<?xml version="1.0" encoding="utf-8"?>
<svg xmlns="http://www.w3.org/2000/svg" xmlns:xlink="http://www.w3.org/1999/xlink" width="800" height="400" viewBox="0 0 3200 1600">
<defs>
  <clipPath id="clip400">
    <rect x="0" y="0" width="3200" height="1600"/>
  </clipPath>
</defs>
<path clip-path="url(#clip400)" d="M0 1600 L3200 1600 L3200 0 L0 0  Z" fill="#ffffff" fill-rule="evenodd" fill-opacity="1"/>
<defs>
  <clipPath id="clip401">
    <rect x="640" y="0" width="2241" height="1600"/>
  </clipPath>
</defs>
<path clip-path="url(#clip400)" d="M120.177 1495.09 L3152.76 1495.09 L3152.76 47.2441 L120.177 47.2441  Z" fill="#ffffff" fill-rule="evenodd" fill-opacity="1"/>
<defs>
  <clipPath id="clip402">
    <rect x="120" y="47" width="3034" height="1449"/>
  </clipPath>
</defs>
<polyline clip-path="url(#clip402)" style="stroke:#000000; stroke-linecap:round; stroke-linejoin:round; stroke-width:2; stroke-opacity:0.1; fill:none" points="201.741,1495.09 201.741,47.2441 "/>
<polyline clip-path="url(#clip402)" style="stroke:#000000; stroke-linecap:round; stroke-linejoin:round; stroke-width:2; stroke-opacity:0.1; fill:none" points="628.108,1495.09 628.108,47.2441 "/>
<polyline clip-path="url(#clip402)" style="stroke:#000000; stroke-linecap:round; stroke-linejoin:round; stroke-width:2; stroke-opacity:0.1; fill:none" points="1054.48,1495.09 1054.48,47.2441 "/>
<polyline clip-path="url(#clip402)" style="stroke:#000000; stroke-linecap:round; stroke-linejoin:round; stroke-width:2; stroke-opacity:0.1; fill:none" points="1480.84,1495.09 1480.84,47.2441 "/>
<polyline clip-path="url(#clip402)" style="stroke:#000000; stroke-linecap:round; stroke-linejoin:round; stroke-width:2; stroke-opacity:0.1; fill:none" points="1907.21,1495.09 1907.21,47.2441 "/>
<polyline clip-path="url(#clip402)" style="stroke:#000000; stroke-linecap:round; stroke-linejoin:round; stroke-width:2; stroke-opacity:0.1; fill:none" points="2333.58,1495.09 2333.58,47.2441 "/>
<polyline clip-path="url(#clip402)" style="stroke:#000000; stroke-linecap:round; stroke-linejoin:round; stroke-width:2; stroke-opacity:0.1; fill:none" points="2759.94,1495.09 2759.94,47.2441 "/>
<polyline clip-path="url(#clip402)" style="stroke:#000000; stroke-linecap:round; stroke-linejoin:round; stroke-width:2; stroke-opacity:0.1; fill:none" points="120.177,1454.11 3152.76,1454.11 "/>
<polyline clip-path="url(#clip402)" style="stroke:#000000; stroke-linecap:round; stroke-linejoin:round; stroke-width:2; stroke-opacity:0.1; fill:none" points="120.177,1122.26 3152.76,1122.26 "/>
<polyline clip-path="url(#clip402)" style="stroke:#000000; stroke-linecap:round; stroke-linejoin:round; stroke-width:2; stroke-opacity:0.1; fill:none" points="120.177,790.409 3152.76,790.409 "/>
<polyline clip-path="url(#clip402)" style="stroke:#000000; stroke-linecap:round; stroke-linejoin:round; stroke-width:2; stroke-opacity:0.1; fill:none" points="120.177,458.558 3152.76,458.558 "/>
<polyline clip-path="url(#clip402)" style="stroke:#000000; stroke-linecap:round; stroke-linejoin:round; stroke-width:2; stroke-opacity:0.1; fill:none" points="120.177,126.707 3152.76,126.707 "/>
<polyline clip-path="url(#clip400)" style="stroke:#000000; stroke-linecap:round; stroke-linejoin:round; stroke-width:4; stroke-opacity:1; fill:none" points="120.177,1495.09 3152.76,1495.09 "/>
<polyline clip-path="url(#clip400)" style="stroke:#000000; stroke-linecap:round; stroke-linejoin:round; stroke-width:4; stroke-opacity:1; fill:none" points="201.741,1495.09 201.741,1476.19 "/>
<polyline clip-path="url(#clip400)" style="stroke:#000000; stroke-linecap:round; stroke-linejoin:round; stroke-width:4; stroke-opacity:1; fill:none" points="628.108,1495.09 628.108,1476.19 "/>
<polyline clip-path="url(#clip400)" style="stroke:#000000; stroke-linecap:round; stroke-linejoin:round; stroke-width:4; stroke-opacity:1; fill:none" points="1054.48,1495.09 1054.48,1476.19 "/>
<polyline clip-path="url(#clip400)" style="stroke:#000000; stroke-linecap:round; stroke-linejoin:round; stroke-width:4; stroke-opacity:1; fill:none" points="1480.84,1495.09 1480.84,1476.19 "/>
<polyline clip-path="url(#clip400)" style="stroke:#000000; stroke-linecap:round; stroke-linejoin:round; stroke-width:4; stroke-opacity:1; fill:none" points="1907.21,1495.09 1907.21,1476.19 "/>
<polyline clip-path="url(#clip400)" style="stroke:#000000; stroke-linecap:round; stroke-linejoin:round; stroke-width:4; stroke-opacity:1; fill:none" points="2333.58,1495.09 2333.58,1476.19 "/>
<polyline clip-path="url(#clip400)" style="stroke:#000000; stroke-linecap:round; stroke-linejoin:round; stroke-width:4; stroke-opacity:1; fill:none" points="2759.94,1495.09 2759.94,1476.19 "/>
<path clip-path="url(#clip400)" d="M201.741 1532.41 Q198.13 1532.41 196.301 1535.97 Q194.496 1539.51 194.496 1546.64 Q194.496 1553.75 196.301 1557.31 Q198.13 1560.86 201.741 1560.86 Q205.375 1560.86 207.181 1557.31 Q209.01 1553.75 209.01 1546.64 Q209.01 1539.51 207.181 1535.97 Q205.375 1532.41 201.741 1532.41 M201.741 1528.7 Q207.551 1528.7 210.607 1533.31 Q213.686 1537.89 213.686 1546.64 Q213.686 1555.37 210.607 1559.98 Q207.551 1564.56 201.741 1564.56 Q195.931 1564.56 192.852 1559.98 Q189.797 1555.37 189.797 1546.64 Q189.797 1537.89 192.852 1533.31 Q195.931 1528.7 201.741 1528.7 Z" fill="#000000" fill-rule="nonzero" fill-opacity="1" /><path clip-path="url(#clip400)" d="M587.715 1559.95 L595.354 1559.95 L595.354 1533.59 L587.044 1535.25 L587.044 1530.99 L595.308 1529.33 L599.983 1529.33 L599.983 1559.95 L607.622 1559.95 L607.622 1563.89 L587.715 1563.89 L587.715 1559.95 Z" fill="#000000" fill-rule="nonzero" fill-opacity="1" /><path clip-path="url(#clip400)" d="M627.067 1532.41 Q623.456 1532.41 621.627 1535.97 Q619.821 1539.51 619.821 1546.64 Q619.821 1553.75 621.627 1557.31 Q623.456 1560.86 627.067 1560.86 Q630.701 1560.86 632.506 1557.31 Q634.335 1553.75 634.335 1546.64 Q634.335 1539.51 632.506 1535.97 Q630.701 1532.41 627.067 1532.41 M627.067 1528.7 Q632.877 1528.7 635.932 1533.31 Q639.011 1537.89 639.011 1546.64 Q639.011 1555.37 635.932 1559.98 Q632.877 1564.56 627.067 1564.56 Q621.257 1564.56 618.178 1559.98 Q615.122 1555.37 615.122 1546.64 Q615.122 1537.89 618.178 1533.31 Q621.257 1528.7 627.067 1528.7 Z" fill="#000000" fill-rule="nonzero" fill-opacity="1" /><path clip-path="url(#clip400)" d="M657.229 1532.41 Q653.617 1532.41 651.789 1535.97 Q649.983 1539.51 649.983 1546.64 Q649.983 1553.75 651.789 1557.31 Q653.617 1560.86 657.229 1560.86 Q660.863 1560.86 662.668 1557.31 Q664.497 1553.75 664.497 1546.64 Q664.497 1539.51 662.668 1535.97 Q660.863 1532.41 657.229 1532.41 M657.229 1528.7 Q663.039 1528.7 666.094 1533.31 Q669.173 1537.89 669.173 1546.64 Q669.173 1555.37 666.094 1559.98 Q663.039 1564.56 657.229 1564.56 Q651.418 1564.56 648.34 1559.98 Q645.284 1555.37 645.284 1546.64 Q645.284 1537.89 648.34 1533.31 Q651.418 1528.7 657.229 1528.7 Z" fill="#000000" fill-rule="nonzero" fill-opacity="1" /><path clip-path="url(#clip400)" d="M1018.17 1559.95 L1034.49 1559.95 L1034.49 1563.89 L1012.54 1563.89 L1012.54 1559.95 Q1015.2 1557.2 1019.79 1552.57 Q1024.39 1547.92 1025.58 1546.57 Q1027.82 1544.05 1028.7 1542.31 Q1029.6 1540.55 1029.6 1538.86 Q1029.6 1536.11 1027.66 1534.37 Q1025.74 1532.64 1022.64 1532.64 Q1020.44 1532.64 1017.98 1533.4 Q1015.55 1534.17 1012.77 1535.72 L1012.77 1530.99 Q1015.6 1529.86 1018.05 1529.28 Q1020.51 1528.7 1022.54 1528.7 Q1027.91 1528.7 1031.11 1531.39 Q1034.3 1534.07 1034.3 1538.56 Q1034.3 1540.69 1033.49 1542.61 Q1032.7 1544.51 1030.6 1547.11 Q1030.02 1547.78 1026.92 1550.99 Q1023.82 1554.19 1018.17 1559.95 Z" fill="#000000" fill-rule="nonzero" fill-opacity="1" /><path clip-path="url(#clip400)" d="M1054.3 1532.41 Q1050.69 1532.41 1048.86 1535.97 Q1047.06 1539.51 1047.06 1546.64 Q1047.06 1553.75 1048.86 1557.31 Q1050.69 1560.86 1054.3 1560.86 Q1057.94 1560.86 1059.74 1557.31 Q1061.57 1553.75 1061.57 1546.64 Q1061.57 1539.51 1059.74 1535.97 Q1057.94 1532.41 1054.3 1532.41 M1054.3 1528.7 Q1060.11 1528.7 1063.17 1533.31 Q1066.25 1537.89 1066.25 1546.64 Q1066.25 1555.37 1063.17 1559.98 Q1060.11 1564.56 1054.3 1564.56 Q1048.49 1564.56 1045.41 1559.98 Q1042.36 1555.37 1042.36 1546.64 Q1042.36 1537.89 1045.41 1533.31 Q1048.49 1528.7 1054.3 1528.7 Z" fill="#000000" fill-rule="nonzero" fill-opacity="1" /><path clip-path="url(#clip400)" d="M1084.46 1532.41 Q1080.85 1532.41 1079.02 1535.97 Q1077.22 1539.51 1077.22 1546.64 Q1077.22 1553.75 1079.02 1557.31 Q1080.85 1560.86 1084.46 1560.86 Q1088.1 1560.86 1089.9 1557.31 Q1091.73 1553.75 1091.73 1546.64 Q1091.73 1539.51 1089.9 1535.97 Q1088.1 1532.41 1084.46 1532.41 M1084.46 1528.7 Q1090.27 1528.7 1093.33 1533.31 Q1096.41 1537.89 1096.41 1546.64 Q1096.41 1555.37 1093.33 1559.98 Q1090.27 1564.56 1084.46 1564.56 Q1078.65 1564.56 1075.57 1559.98 Q1072.52 1555.37 1072.52 1546.64 Q1072.52 1537.89 1075.57 1533.31 Q1078.65 1528.7 1084.46 1528.7 Z" fill="#000000" fill-rule="nonzero" fill-opacity="1" /><path clip-path="url(#clip400)" d="M1454.6 1545.25 Q1457.96 1545.97 1459.84 1548.24 Q1461.73 1550.51 1461.73 1553.84 Q1461.73 1558.96 1458.22 1561.76 Q1454.7 1564.56 1448.22 1564.56 Q1446.04 1564.56 1443.72 1564.12 Q1441.43 1563.7 1438.98 1562.85 L1438.98 1558.33 Q1440.92 1559.47 1443.24 1560.05 Q1445.55 1560.62 1448.08 1560.62 Q1452.47 1560.62 1454.77 1558.89 Q1457.08 1557.15 1457.08 1553.84 Q1457.08 1550.79 1454.93 1549.07 Q1452.8 1547.34 1448.98 1547.34 L1444.95 1547.34 L1444.95 1543.49 L1449.16 1543.49 Q1452.61 1543.49 1454.44 1542.13 Q1456.27 1540.74 1456.27 1538.15 Q1456.27 1535.49 1454.37 1534.07 Q1452.5 1532.64 1448.98 1532.64 Q1447.06 1532.64 1444.86 1533.05 Q1442.66 1533.47 1440.02 1534.35 L1440.02 1530.18 Q1442.68 1529.44 1445 1529.07 Q1447.34 1528.7 1449.4 1528.7 Q1454.72 1528.7 1457.82 1531.13 Q1460.92 1533.54 1460.92 1537.66 Q1460.92 1540.53 1459.28 1542.52 Q1457.64 1544.49 1454.6 1545.25 Z" fill="#000000" fill-rule="nonzero" fill-opacity="1" /><path clip-path="url(#clip400)" d="M1480.6 1532.41 Q1476.99 1532.41 1475.16 1535.97 Q1473.35 1539.51 1473.35 1546.64 Q1473.35 1553.75 1475.16 1557.31 Q1476.99 1560.86 1480.6 1560.86 Q1484.23 1560.86 1486.04 1557.31 Q1487.87 1553.75 1487.87 1546.64 Q1487.87 1539.51 1486.04 1535.97 Q1484.23 1532.41 1480.6 1532.41 M1480.6 1528.7 Q1486.41 1528.7 1489.47 1533.31 Q1492.54 1537.89 1492.54 1546.64 Q1492.54 1555.37 1489.47 1559.98 Q1486.41 1564.56 1480.6 1564.56 Q1474.79 1564.56 1471.71 1559.98 Q1468.66 1555.37 1468.66 1546.64 Q1468.66 1537.89 1471.71 1533.31 Q1474.79 1528.7 1480.6 1528.7 Z" fill="#000000" fill-rule="nonzero" fill-opacity="1" /><path clip-path="url(#clip400)" d="M1510.76 1532.41 Q1507.15 1532.41 1505.32 1535.97 Q1503.52 1539.51 1503.52 1546.64 Q1503.52 1553.75 1505.32 1557.31 Q1507.15 1560.86 1510.76 1560.86 Q1514.4 1560.86 1516.2 1557.31 Q1518.03 1553.75 1518.03 1546.64 Q1518.03 1539.51 1516.2 1535.97 Q1514.4 1532.41 1510.76 1532.41 M1510.76 1528.7 Q1516.57 1528.7 1519.63 1533.31 Q1522.71 1537.89 1522.71 1546.64 Q1522.71 1555.37 1519.63 1559.98 Q1516.57 1564.56 1510.76 1564.56 Q1504.95 1564.56 1501.87 1559.98 Q1498.82 1555.37 1498.82 1546.64 Q1498.82 1537.89 1501.87 1533.31 Q1504.95 1528.7 1510.76 1528.7 Z" fill="#000000" fill-rule="nonzero" fill-opacity="1" /><path clip-path="url(#clip400)" d="M1880.3 1533.4 L1868.49 1551.85 L1880.3 1551.85 L1880.3 1533.4 M1879.07 1529.33 L1884.95 1529.33 L1884.95 1551.85 L1889.88 1551.85 L1889.88 1555.74 L1884.95 1555.74 L1884.95 1563.89 L1880.3 1563.89 L1880.3 1555.74 L1864.7 1555.74 L1864.7 1551.23 L1879.07 1529.33 Z" fill="#000000" fill-rule="nonzero" fill-opacity="1" /><path clip-path="url(#clip400)" d="M1907.61 1532.41 Q1904 1532.41 1902.17 1535.97 Q1900.37 1539.51 1900.37 1546.64 Q1900.37 1553.75 1902.17 1557.31 Q1904 1560.86 1907.61 1560.86 Q1911.25 1560.86 1913.05 1557.31 Q1914.88 1553.75 1914.88 1546.64 Q1914.88 1539.51 1913.05 1535.97 Q1911.25 1532.41 1907.61 1532.41 M1907.61 1528.7 Q1913.42 1528.7 1916.48 1533.31 Q1919.56 1537.89 1919.56 1546.64 Q1919.56 1555.37 1916.48 1559.98 Q1913.42 1564.56 1907.61 1564.56 Q1901.8 1564.56 1898.73 1559.98 Q1895.67 1555.37 1895.67 1546.64 Q1895.67 1537.89 1898.73 1533.31 Q1901.8 1528.7 1907.61 1528.7 Z" fill="#000000" fill-rule="nonzero" fill-opacity="1" /><path clip-path="url(#clip400)" d="M1937.78 1532.41 Q1934.17 1532.41 1932.34 1535.97 Q1930.53 1539.51 1930.53 1546.64 Q1930.53 1553.75 1932.34 1557.31 Q1934.17 1560.86 1937.78 1560.86 Q1941.41 1560.86 1943.22 1557.31 Q1945.05 1553.75 1945.05 1546.64 Q1945.05 1539.51 1943.22 1535.97 Q1941.41 1532.41 1937.78 1532.41 M1937.78 1528.7 Q1943.59 1528.7 1946.64 1533.31 Q1949.72 1537.89 1949.72 1546.64 Q1949.72 1555.37 1946.64 1559.98 Q1943.59 1564.56 1937.78 1564.56 Q1931.97 1564.56 1928.89 1559.98 Q1925.83 1555.37 1925.83 1546.64 Q1925.83 1537.89 1928.89 1533.31 Q1931.97 1528.7 1937.78 1528.7 Z" fill="#000000" fill-rule="nonzero" fill-opacity="1" /><path clip-path="url(#clip400)" d="M2293.2 1529.33 L2311.55 1529.33 L2311.55 1533.26 L2297.48 1533.26 L2297.48 1541.74 Q2298.5 1541.39 2299.51 1541.23 Q2300.53 1541.04 2301.55 1541.04 Q2307.34 1541.04 2310.72 1544.21 Q2314.1 1547.38 2314.1 1552.8 Q2314.1 1558.38 2310.63 1561.48 Q2307.15 1564.56 2300.83 1564.56 Q2298.66 1564.56 2296.39 1564.19 Q2294.14 1563.82 2291.74 1563.08 L2291.74 1558.38 Q2293.82 1559.51 2296.04 1560.07 Q2298.26 1560.62 2300.74 1560.62 Q2304.75 1560.62 2307.08 1558.52 Q2309.42 1556.41 2309.42 1552.8 Q2309.42 1549.19 2307.08 1547.08 Q2304.75 1544.98 2300.74 1544.98 Q2298.87 1544.98 2296.99 1545.39 Q2295.14 1545.81 2293.2 1546.69 L2293.2 1529.33 Z" fill="#000000" fill-rule="nonzero" fill-opacity="1" /><path clip-path="url(#clip400)" d="M2333.31 1532.41 Q2329.7 1532.41 2327.87 1535.97 Q2326.07 1539.51 2326.07 1546.64 Q2326.07 1553.75 2327.87 1557.31 Q2329.7 1560.86 2333.31 1560.86 Q2336.94 1560.86 2338.75 1557.31 Q2340.58 1553.75 2340.58 1546.64 Q2340.58 1539.51 2338.75 1535.97 Q2336.94 1532.41 2333.31 1532.41 M2333.31 1528.7 Q2339.12 1528.7 2342.18 1533.31 Q2345.25 1537.89 2345.25 1546.64 Q2345.25 1555.37 2342.18 1559.98 Q2339.12 1564.56 2333.31 1564.56 Q2327.5 1564.56 2324.42 1559.98 Q2321.37 1555.37 2321.37 1546.64 Q2321.37 1537.89 2324.42 1533.31 Q2327.5 1528.7 2333.31 1528.7 Z" fill="#000000" fill-rule="nonzero" fill-opacity="1" /><path clip-path="url(#clip400)" d="M2363.47 1532.41 Q2359.86 1532.41 2358.03 1535.97 Q2356.23 1539.51 2356.23 1546.64 Q2356.23 1553.75 2358.03 1557.31 Q2359.86 1560.86 2363.47 1560.86 Q2367.11 1560.86 2368.91 1557.31 Q2370.74 1553.75 2370.74 1546.64 Q2370.74 1539.51 2368.91 1535.97 Q2367.11 1532.41 2363.47 1532.41 M2363.47 1528.7 Q2369.28 1528.7 2372.34 1533.31 Q2375.42 1537.89 2375.42 1546.64 Q2375.42 1555.37 2372.34 1559.98 Q2369.28 1564.56 2363.47 1564.56 Q2357.66 1564.56 2354.58 1559.98 Q2351.53 1555.37 2351.53 1546.64 Q2351.53 1537.89 2354.58 1533.31 Q2357.66 1528.7 2363.47 1528.7 Z" fill="#000000" fill-rule="nonzero" fill-opacity="1" /><path clip-path="url(#clip400)" d="M2730.27 1544.74 Q2727.12 1544.74 2725.27 1546.9 Q2723.44 1549.05 2723.44 1552.8 Q2723.44 1556.53 2725.27 1558.7 Q2727.12 1560.86 2730.27 1560.86 Q2733.42 1560.86 2735.24 1558.7 Q2737.1 1556.53 2737.1 1552.8 Q2737.1 1549.05 2735.24 1546.9 Q2733.42 1544.74 2730.27 1544.74 M2739.55 1530.09 L2739.55 1534.35 Q2737.79 1533.52 2735.99 1533.08 Q2734.2 1532.64 2732.44 1532.64 Q2727.81 1532.64 2725.36 1535.76 Q2722.93 1538.89 2722.58 1545.21 Q2723.95 1543.19 2726.01 1542.13 Q2728.07 1541.04 2730.55 1541.04 Q2735.75 1541.04 2738.76 1544.21 Q2741.8 1547.36 2741.8 1552.8 Q2741.8 1558.12 2738.65 1561.34 Q2735.5 1564.56 2730.27 1564.56 Q2724.27 1564.56 2721.1 1559.98 Q2717.93 1555.37 2717.93 1546.64 Q2717.93 1538.45 2721.82 1533.59 Q2725.71 1528.7 2732.26 1528.7 Q2734.02 1528.7 2735.8 1529.05 Q2737.61 1529.4 2739.55 1530.09 Z" fill="#000000" fill-rule="nonzero" fill-opacity="1" /><path clip-path="url(#clip400)" d="M2759.85 1532.41 Q2756.24 1532.41 2754.41 1535.97 Q2752.61 1539.51 2752.61 1546.64 Q2752.61 1553.75 2754.41 1557.31 Q2756.24 1560.86 2759.85 1560.86 Q2763.49 1560.86 2765.29 1557.31 Q2767.12 1553.75 2767.12 1546.64 Q2767.12 1539.51 2765.29 1535.97 Q2763.49 1532.41 2759.85 1532.41 M2759.85 1528.7 Q2765.66 1528.7 2768.72 1533.31 Q2771.8 1537.89 2771.8 1546.64 Q2771.8 1555.37 2768.72 1559.98 Q2765.66 1564.56 2759.85 1564.56 Q2754.04 1564.56 2750.96 1559.98 Q2747.91 1555.37 2747.91 1546.64 Q2747.91 1537.89 2750.96 1533.31 Q2754.04 1528.7 2759.85 1528.7 Z" fill="#000000" fill-rule="nonzero" fill-opacity="1" /><path clip-path="url(#clip400)" d="M2790.01 1532.41 Q2786.4 1532.41 2784.57 1535.97 Q2782.77 1539.51 2782.77 1546.64 Q2782.77 1553.75 2784.57 1557.31 Q2786.4 1560.86 2790.01 1560.86 Q2793.65 1560.86 2795.45 1557.31 Q2797.28 1553.75 2797.28 1546.64 Q2797.28 1539.51 2795.45 1535.97 Q2793.65 1532.41 2790.01 1532.41 M2790.01 1528.7 Q2795.82 1528.7 2798.88 1533.31 Q2801.96 1537.89 2801.96 1546.64 Q2801.96 1555.37 2798.88 1559.98 Q2795.82 1564.56 2790.01 1564.56 Q2784.2 1564.56 2781.12 1559.98 Q2778.07 1555.37 2778.07 1546.64 Q2778.07 1537.89 2781.12 1533.31 Q2784.2 1528.7 2790.01 1528.7 Z" fill="#000000" fill-rule="nonzero" fill-opacity="1" /><polyline clip-path="url(#clip400)" style="stroke:#000000; stroke-linecap:round; stroke-linejoin:round; stroke-width:4; stroke-opacity:1; fill:none" points="120.177,1495.09 120.177,47.2441 "/>
<polyline clip-path="url(#clip400)" style="stroke:#000000; stroke-linecap:round; stroke-linejoin:round; stroke-width:4; stroke-opacity:1; fill:none" points="120.177,1454.11 139.075,1454.11 "/>
<polyline clip-path="url(#clip400)" style="stroke:#000000; stroke-linecap:round; stroke-linejoin:round; stroke-width:4; stroke-opacity:1; fill:none" points="120.177,1122.26 139.075,1122.26 "/>
<polyline clip-path="url(#clip400)" style="stroke:#000000; stroke-linecap:round; stroke-linejoin:round; stroke-width:4; stroke-opacity:1; fill:none" points="120.177,790.409 139.075,790.409 "/>
<polyline clip-path="url(#clip400)" style="stroke:#000000; stroke-linecap:round; stroke-linejoin:round; stroke-width:4; stroke-opacity:1; fill:none" points="120.177,458.558 139.075,458.558 "/>
<polyline clip-path="url(#clip400)" style="stroke:#000000; stroke-linecap:round; stroke-linejoin:round; stroke-width:4; stroke-opacity:1; fill:none" points="120.177,126.707 139.075,126.707 "/>
<path clip-path="url(#clip400)" d="M60.2328 1439.91 Q56.6217 1439.91 54.793 1443.47 Q52.9875 1447.02 52.9875 1454.15 Q52.9875 1461.25 54.793 1464.82 Q56.6217 1468.36 60.2328 1468.36 Q63.867 1468.36 65.6726 1464.82 Q67.5013 1461.25 67.5013 1454.15 Q67.5013 1447.02 65.6726 1443.47 Q63.867 1439.91 60.2328 1439.91 M60.2328 1436.21 Q66.0429 1436.21 69.0985 1440.81 Q72.1772 1445.4 72.1772 1454.15 Q72.1772 1462.87 69.0985 1467.48 Q66.0429 1472.06 60.2328 1472.06 Q54.4226 1472.06 51.344 1467.48 Q48.2884 1462.87 48.2884 1454.15 Q48.2884 1445.4 51.344 1440.81 Q54.4226 1436.21 60.2328 1436.21 Z" fill="#000000" fill-rule="nonzero" fill-opacity="1" /><path clip-path="url(#clip400)" d="M55.8578 1135.6 L72.1772 1135.6 L72.1772 1139.54 L50.2328 1139.54 L50.2328 1135.6 Q52.8949 1132.85 57.4782 1128.22 Q62.0846 1123.57 63.2652 1122.23 Q65.5105 1119.7 66.3902 1117.97 Q67.2929 1116.21 67.2929 1114.52 Q67.2929 1111.76 65.3485 1110.03 Q63.4272 1108.29 60.3254 1108.29 Q58.1263 1108.29 55.6726 1109.05 Q53.2421 1109.82 50.4643 1111.37 L50.4643 1106.65 Q53.2884 1105.51 55.7421 1104.93 Q58.1958 1104.36 60.2328 1104.36 Q65.6031 1104.36 68.7976 1107.04 Q71.992 1109.73 71.992 1114.22 Q71.992 1116.35 71.1818 1118.27 Q70.3948 1120.17 68.2883 1122.76 Q67.7096 1123.43 64.6078 1126.65 Q61.5059 1129.84 55.8578 1135.6 Z" fill="#000000" fill-rule="nonzero" fill-opacity="1" /><path clip-path="url(#clip400)" d="M62.5939 777.203 L50.7884 795.652 L62.5939 795.652 L62.5939 777.203 M61.367 773.129 L67.2466 773.129 L67.2466 795.652 L72.1772 795.652 L72.1772 799.541 L67.2466 799.541 L67.2466 807.689 L62.5939 807.689 L62.5939 799.541 L46.9921 799.541 L46.9921 795.027 L61.367 773.129 Z" fill="#000000" fill-rule="nonzero" fill-opacity="1" /><path clip-path="url(#clip400)" d="M60.6495 456.694 Q57.5013 456.694 55.6495 458.847 Q53.8208 461 53.8208 464.75 Q53.8208 468.477 55.6495 470.653 Q57.5013 472.805 60.6495 472.805 Q63.7976 472.805 65.6263 470.653 Q67.4781 468.477 67.4781 464.75 Q67.4781 461 65.6263 458.847 Q63.7976 456.694 60.6495 456.694 M69.9318 442.042 L69.9318 446.301 Q68.1726 445.468 66.367 445.028 Q64.5846 444.588 62.8254 444.588 Q58.1958 444.588 55.7421 447.713 Q53.3115 450.838 52.9643 457.157 Q54.33 455.144 56.3902 454.079 Q58.4504 452.991 60.9272 452.991 Q66.1355 452.991 69.1448 456.162 Q72.1772 459.31 72.1772 464.75 Q72.1772 470.074 69.029 473.292 Q65.8809 476.509 60.6495 476.509 Q54.6541 476.509 51.4828 471.926 Q48.3116 467.319 48.3116 458.593 Q48.3116 450.398 52.2004 445.537 Q56.0893 440.653 62.6402 440.653 Q64.3994 440.653 66.1818 441 Q67.9874 441.347 69.9318 442.042 Z" fill="#000000" fill-rule="nonzero" fill-opacity="1" /><path clip-path="url(#clip400)" d="M60.3254 127.575 Q56.9921 127.575 55.0708 129.357 Q53.1726 131.14 53.1726 134.265 Q53.1726 137.39 55.0708 139.172 Q56.9921 140.954 60.3254 140.954 Q63.6587 140.954 65.58 139.172 Q67.5013 137.366 67.5013 134.265 Q67.5013 131.14 65.58 129.357 Q63.6819 127.575 60.3254 127.575 M55.6495 125.584 Q52.6402 124.843 50.9504 122.783 Q49.2838 120.723 49.2838 117.76 Q49.2838 113.617 52.2236 111.209 Q55.1865 108.802 60.3254 108.802 Q65.4874 108.802 68.4272 111.209 Q71.367 113.617 71.367 117.76 Q71.367 120.723 69.6772 122.783 Q68.0105 124.843 65.0244 125.584 Q68.404 126.371 70.279 128.663 Q72.1772 130.954 72.1772 134.265 Q72.1772 139.288 69.0985 141.973 Q66.0429 144.658 60.3254 144.658 Q54.6078 144.658 51.5291 141.973 Q48.4736 139.288 48.4736 134.265 Q48.4736 130.954 50.3717 128.663 Q52.2699 126.371 55.6495 125.584 M53.9365 118.2 Q53.9365 120.885 55.6032 122.39 Q57.293 123.894 60.3254 123.894 Q63.3346 123.894 65.0244 122.39 Q66.7374 120.885 66.7374 118.2 Q66.7374 115.515 65.0244 114.01 Q63.3346 112.505 60.3254 112.505 Q57.293 112.505 55.6032 114.01 Q53.9365 115.515 53.9365 118.2 Z" fill="#000000" fill-rule="nonzero" fill-opacity="1" /><polyline clip-path="url(#clip402)" style="stroke:#009af9; stroke-linecap:round; stroke-linejoin:round; stroke-width:4; stroke-opacity:1; fill:none" points="206.005,733.936 210.269,749.143 214.532,758.337 218.796,806.512 223.06,800.678 227.323,834.895 231.587,820.591 235.851,809.179 240.114,773.532 244.378,736.714 248.642,734.83 252.905,736.388 257.169,730.273 261.433,746.98 265.696,768.316 269.96,786.633 274.224,818.986 278.487,834.387 282.751,818.282 287.015,783.291 291.278,770.716 295.542,746.289 299.806,718.216 304.069,739.824 308.333,737.451 312.597,735.471 316.86,778.928 321.124,786.123 325.388,822.152 329.651,836.559 333.915,825.484 338.179,784.902 342.442,762.657 346.706,745.434 350.97,718.246 355.233,733.569 359.497,726.982 363.761,759.46 368.024,766.673 372.288,808.948 376.552,832.808 380.815,810.449 385.079,830.23 389.343,806.62 393.606,766.683 397.87,760.516 402.134,743.716 406.397,717.894 410.661,726.891 414.925,761.319 419.188,771.074 423.452,813.237 427.716,813.821 431.979,817.164 436.243,803.99 440.507,813.072 444.77,769.731 449.034,761.806 453.298,742.91 457.561,727.132 461.825,740.843 466.089,736.468 470.352,760.236 474.616,814.989 478.88,804.246 483.143,832.263 487.407,814.812 491.671,815.269 495.935,785.813 500.198,754.193 504.462,721.651 508.726,708.157 512.989,726.915 517.253,745.71 521.517,788.064 525.78,785.527 530.044,811.975 534.308,827.121 538.571,824.909 542.835,786.498 547.099,787.238 551.362,754.652 555.626,731.447 559.89,707.88 564.153,746.244 568.417,750.05 572.681,783.96 576.944,809.131 581.208,831.088 585.472,807.002 589.735,811.027 593.999,806.093 598.263,758.765 602.526,741.804 606.79,726.746 611.054,729.859 615.317,719.847 619.581,736.609 623.845,771.104 628.108,788.515 632.372,818.76 636.636,820.651 640.899,807.834 645.163,789.945 649.427,772.019 653.69,746.778 657.954,728.678 662.218,738.694 666.481,724.453 670.745,746.747 675.009,764.095 679.272,803.781 683.536,828.927 687.8,820.872 692.063,812.935 696.327,808.279 700.591,759.224 704.854,738.887 709.118,722.39 713.382,723.312 717.645,730.299 721.909,753.399 726.173,778.016 730.436,802.426 734.7,801.619 738.964,807.57 743.227,809.286 747.491,814.339 751.755,758.349 756.018,764.642 760.282,732.516 764.546,709.02 768.809,720.441 773.073,739.598 777.337,760.801 781.6,799.46 785.864,809.891 790.128,835.693 794.391,825.357 798.655,813.108 802.919,768.102 807.183,734.205 811.446,740.55 815.71,729.846 819.974,736.992 824.237,733.197 828.501,783.151 832.765,802.73 837.028,827.586 841.292,810.633 845.556,820.714 849.819,799.108 854.083,774.472 858.347,742.468 862.61,729.114 866.874,712.633 871.138,740.26 875.401,763.181 879.665,777.303 883.929,806.589 888.192,818.882 892.456,807.957 896.72,830.889 900.983,813.34 905.247,786.461 909.511,744.056 913.774,743.634 918.038,712.305 922.302,717.792 926.565,758.184 930.829,774.304 935.093,801.602 939.356,833.246 943.62,831.636 947.884,811.637 952.147,799.392 956.411,775.117 960.675,743.897 964.938,734.512 969.202,725.478 973.466,732.484 977.729,751.584 981.993,758.07 986.257,787.21 990.52,827.931 994.784,833.332 999.048,815.165 1003.31,791.529 1007.58,788.653 1011.84,763.551 1016.1,742.545 1020.37,717.057 1024.63,728.092 1028.89,744.315 1033.16,768.106 1037.42,788.842 1041.68,808.301 1045.95,813.822 1050.21,831.844 1054.48,793.559 1058.74,774.081 1063,759.221 1067.27,731.433 1071.53,721.97 1075.79,736.504 1080.06,733.359 1084.32,778.95 1088.58,790.799 1092.85,823.219 1097.11,840.132 1101.38,808.069 1105.64,806.791 1109.9,764.595 1114.17,763.246 1118.43,718.222 1122.69,720.726 1126.96,724.697 1131.22,744.613 1135.49,783.093 1139.75,782.679 1144.01,816.791 1148.28,834.174 1152.54,805.743 1156.8,803.165 1161.07,764.078 1165.33,733.222 1169.59,722.022 1173.86,722.747 1178.12,728.974 1182.39,753.995 1186.65,757.366 1190.91,783.415 1195.18,811.729 1199.44,808.662 1203.7,812.503 1207.97,807.474 1212.23,778.957 1216.49,763.037 1220.76,737.793 1225.02,734.394 1229.29,718.978 1233.55,752.6 1237.81,771.992 1242.08,797.907 1246.34,823.705 1250.6,819.917 1254.87,825.97 1259.13,814.378 1263.4,779.898 1267.66,746.12 1271.92,733.761 1276.19,722.786 1280.45,744.959 1284.71,751.602 1288.98,780.661 1293.24,796.331 1297.5,804.444 1301.77,836.932 1306.03,813.745 1310.3,797.326 1314.56,785.166 1318.82,760.094 1323.09,717.665 1327.35,740.04 1331.61,722.953 1335.88,752.242 1340.14,774.315 1344.41,795.762 1348.67,818.065 1352.93,808.239 1357.2,823.846 1361.46,801.853 1365.72,776.83 1369.99,764.296 1374.25,718.862 1378.51,725.172 1382.78,724.936 1387.04,759.816 1391.31,774.281 1395.57,800.724 1399.83,802.984 1404.1,808.395 1408.36,827.825 1412.62,808.827 1416.89,759.342 1421.15,738.332 1425.41,717.907 1429.68,726.611 1433.94,738.869 1438.21,760.173 1442.47,766.252 1446.73,810.716 1451,803.338 1455.26,837.094 1459.52,829.083 1463.79,786.678 1468.05,773.683 1472.32,751.776 1476.58,744.686 1480.84,717.546 1485.11,721.58 1489.37,760.899 1493.63,775.14 1497.9,794.818 1502.16,820.938 1506.42,830.684 1510.69,822.159 1514.95,796.54 1519.22,775.33 1523.48,745.523 1527.74,738.666 1532.01,722.264 1536.27,720.822 1540.53,748.953 1544.8,769.174 1549.06,791.225 1553.32,808.361 1557.59,815.438 1561.85,816.055 1566.12,788.821 1570.38,768.703 1574.64,753.583 1578.91,718.207 1583.17,713.509 1587.43,745.718 1591.7,751.85 1595.96,769.358 1600.23,787.745 1604.49,824.624 1608.75,836.105 1613.02,817.023 1617.28,796.154 1621.54,780.375 1625.81,736.812 1630.07,718.433 1634.33,725.133 1638.6,735.076 1642.86,762.731 1647.13,770.457 1651.39,813.299 1655.65,810.737 1659.92,837.168 1664.18,807.342 1668.44,798.696 1672.71,770.13 1676.97,763.71 1681.24,727.598 1685.5,736.489 1689.76,743.695 1694.03,739.561 1698.29,758.511 1702.55,787.129 1706.82,802.11 1711.08,822.019 1715.34,827.664 1719.61,787.552 1723.87,758.439 1728.14,754.445 1732.4,738.205 1736.66,732.199 1740.93,741.605 1745.19,764.394 1749.45,780.532 1753.72,783.698 1757.98,811.008 1762.24,831.373 1766.51,828.918 1770.77,797.367 1775.04,764.754 1779.3,745.197 1783.56,726.876 1787.83,739.266 1792.09,735.778 1796.35,758.949 1800.62,767.601 1804.88,796.037 1809.15,825.223 1813.41,809.606 1817.67,829.818 1821.94,804.649 1826.2,782.884 1830.46,760.258 1834.73,720.293 1838.99,737.949 1843.25,726.455 1847.52,759.682 1851.78,763.233 1856.05,805.144 1860.31,819.07 1864.57,814.841 1868.84,805.142 1873.1,806.237 1877.36,776.774 1881.63,743.604 1885.89,720.97 1890.15,728.808 1894.42,725.523 1898.68,755.813 1902.95,790.101 1907.21,810.619 1911.47,828.775 1915.74,813.442 1920,828.751 1924.26,789.555 1928.53,760.035 1932.79,763.14 1937.06,715.727 1941.32,712.525 1945.58,723.574 1949.85,741.687 1954.11,772.669 1958.37,788.697 1962.64,813.702 1966.9,835.889 1971.16,826.862 1975.43,783.088 1979.69,777.97 1983.96,736.079 1988.22,730.861 1992.48,721.191 1996.75,743.976 2001.01,764.92 2005.27,789.977 2009.54,789.91 2013.8,805.854 2018.07,822.321 2022.33,826.567 2026.59,814.391 2030.86,778.046 2035.12,739.445 2039.38,716.833 2043.65,710.14 2047.91,729.193 2052.17,745.057 2056.44,782.697 2060.7,783.163 2064.97,804.804 2069.23,836.86 2073.49,817.179 2077.76,803.824 2082.02,762.793 2086.28,760.783 2090.55,732.82 2094.81,724.175 2099.07,723.749 2103.34,764.638 2107.6,767.225 2111.87,785.305 2116.13,804.166 2120.39,826.655 2124.66,812.283 2128.92,813.156 2133.18,778.977 2137.45,757.955 2141.71,734.375 2145.98,707.678 2150.24,719.694 2154.5,735.626 2158.77,769.748 2163.03,789.532 2167.29,810.276 2171.56,835.622 2175.82,825.836 2180.08,790.015 2184.35,774.008 2188.61,756.208 2192.88,732.98 2197.14,729.599 2201.4,725.757 2205.67,746.195 2209.93,758.754 2214.19,810.557 2218.46,816.32 2222.72,825.961 2226.98,803.461 2231.25,795.475 2235.51,789.106 2239.78,744.392 2244.04,717.69 2248.3,738.556 2252.57,714.121 2256.83,753.448 2261.09,760.13 2265.36,811.439 2269.62,816.599 2273.89,815.413 2278.15,812.681 2282.41,792.615 2286.68,762.586 2290.94,745.769 2295.2,740.633 2299.47,739.455 2303.73,740.276 2307.99,747.799 2312.26,776.372 2316.52,786.038 2320.79,803.357 2325.05,816.274 2329.31,818.324 2333.58,811.641 2337.84,762.839 2342.1,733.01 2346.37,730.673 2350.63,727.013 2354.9,742.34 2359.16,763.426 2363.42,785.74 2367.69,806.577 2371.95,832.437 2376.21,832.085 2380.48,824.575 2384.74,808.455 2389,789.433 2393.27,761.318 2397.53,720.497 2401.8,708.439 2406.06,737.837 2410.32,741.352 2414.59,760.129 2418.85,792.839 2423.11,829.838 2427.38,823.362 2431.64,825.874 2435.9,782.54 2440.17,772.225 2444.43,740.941 2448.7,718.338 2452.96,731.412 2457.22,720.736 2461.49,758.598 2465.75,787.037 2470.01,796.553 2474.28,812.626 2478.54,830.76 2482.81,802.271 2487.07,795.056 2491.33,775.39 2495.6,736.069 2499.86,733.265 2504.12,712.201 2508.39,744.256 2512.65,752.699 2516.91,775.679 2521.18,788.132 2525.44,817.409 2529.71,828.688 2533.97,811.21 2538.23,784.287 2542.5,789.044 2546.76,735.639 2551.02,719.109 2555.29,710.14 2559.55,717.428 2563.82,752.587 2568.08,785.188 2572.34,786.94 2576.61,822.573 2580.87,815.15 2585.13,804.375 2589.4,794.85 2593.66,781.894 2597.92,759.683 2602.19,718.665 2606.45,739.738 2610.72,739.609 2614.98,764.89 2619.24,771.434 2623.51,794.846 2627.77,819.8 2632.03,837.351 2636.3,828.295 2640.56,792.759 2644.82,770.218 2649.09,740.445 2653.35,738.64 2657.62,737.65 2661.88,721.151 2666.14,748.562 2670.41,766.538 2674.67,814.46 2678.93,832.409 2683.2,814.233 2687.46,816.221 2691.73,806.752 2695.99,757.344 2700.25,751.915 2704.52,746.483 2708.78,725.06 2713.04,745.136 2717.31,763.92 2721.57,761.616 2725.83,808.839 2730.1,828.987 2734.36,809.781 2738.63,820.124 2742.89,785.939 2747.15,787.489 2751.42,741.269 2755.68,745.592 2759.94,737.277 2764.21,741.666 2768.47,732.735 2772.73,778.171 2777,813.04 2781.26,830.506 2785.53,821.405 2789.79,814.438 2794.05,801.403 2798.32,787.581 2802.58,765.066 2806.84,725.783 2811.11,722.362 2815.37,746.674 2819.64,754.898 2823.9,788.062 2828.16,790.412 2832.43,811.612 2836.69,818.587 2840.95,827.726 2845.22,813.555 2849.48,781.608 2853.74,748.639 2858.01,731.512 2862.27,726.462 2866.54,715.851 2870.8,737.078 2875.06,782.237 2879.33,815.013 2883.59,822.595 2887.85,807.155 2892.12,814.66 2896.38,808.506 2900.65,762.307 2904.91,755.376 2909.17,735.597 2913.44,729.078 2917.7,740.983 2921.96,748.953 2926.23,762.955 2930.49,810.94 2934.75,820.84 2939.02,823.75 2943.28,804.319 2947.55,809.733 2951.81,775.317 2956.07,744.271 2960.34,728.542 2964.6,720.782 2968.86,725.776 2973.13,734.668 2977.39,782.729 2981.65,808.27 2985.92,818.769 2990.18,815.887 2994.45,812.034 2998.71,789.153 3002.97,784.152 3007.24,738.048 3011.5,722.538 3015.76,730.188 3020.03,737.644 3024.29,743.315 3028.56,769.551 3032.82,783.274 3037.08,817.645 3041.35,818.242 3045.61,830.24 3049.87,784.45 3054.14,758.181 3058.4,747.052 3062.66,717.179 3066.93,739.946 "/>
<polyline clip-path="url(#clip402)" style="stroke:#e26f46; stroke-linecap:round; stroke-linejoin:round; stroke-width:4; stroke-opacity:1; fill:none" points="206.005,1454.11 210.269,1454.11 214.532,1454.11 218.796,1454.11 223.06,1454.11 227.323,1454.11 231.587,1412.28 235.851,1323.28 240.114,1270.52 244.378,1186.36 248.642,1171.48 252.905,1140.82 257.169,1161.79 261.433,1148.45 265.696,1189.68 269.96,1262.69 274.224,1335.51 278.487,1413.25 282.751,1454.11 287.015,1454.11 291.278,1454.11 295.542,1454.11 299.806,1454.11 304.069,1454.11 308.333,1454.11 312.597,1454.11 316.86,1454.11 321.124,1454.11 325.388,1454.11 329.651,1454.11 333.915,1429.36 338.179,1375.36 342.442,1336.08 346.706,1290.16 350.97,1249.4 355.233,1265.2 359.497,1238.02 363.761,1264.73 368.024,1294.68 372.288,1333.22 376.552,1371.64 380.815,1427.16 385.079,1454.11 389.343,1454.11 393.606,1454.11 397.87,1454.11 402.134,1454.11 406.397,1454.11 410.661,1454.11 414.925,1454.11 419.188,1454.11 423.452,1454.11 427.716,1454.11 431.979,1454.11 436.243,1354.99 440.507,1145.41 444.77,1023.33 449.034,875.64 453.298,703.579 457.561,716.017 461.825,721.093 466.089,778.416 470.352,847.081 474.616,977.572 478.88,1185.64 483.143,1353.44 487.407,1454.11 491.671,1454.11 495.935,1454.11 500.198,1454.11 504.462,1454.11 508.726,1454.11 512.989,1454.11 517.253,1454.11 521.517,1454.11 525.78,1454.11 530.044,1454.11 534.308,1454.11 538.571,1366.67 542.835,1207.58 547.099,1018.42 551.362,894.869 555.626,855.668 559.89,748.085 564.153,810.908 568.417,789.229 572.681,861.329 576.944,1032.89 581.208,1204.68 585.472,1357.37 589.735,1454.11 593.999,1454.11 598.263,1454.11 602.526,1454.11 606.79,1454.11 611.054,1454.11 615.317,1454.11 619.581,1454.11 623.845,1454.11 628.108,1454.11 632.372,1454.11 636.636,1454.11 640.899,1397.1 645.163,1286.58 649.427,1196.24 653.69,1130.77 657.954,1024.12 662.218,987.614 666.481,1002.8 670.745,1035.44 675.009,1118.36 679.272,1167.65 683.536,1303.25 687.8,1397.44 692.063,1454.11 696.327,1454.11 700.591,1454.11 704.854,1454.11 709.118,1454.11 713.382,1454.11 717.645,1454.11 721.909,1454.11 726.173,1454.11 730.436,1454.11 734.7,1454.11 738.964,1454.11 743.227,1442.83 747.491,1423.49 751.755,1404.63 756.018,1390.16 760.282,1375.88 764.546,1377.52 768.809,1364.23 773.073,1374.52 777.337,1389.73 781.6,1404.39 785.864,1420.83 790.128,1442.3 794.391,1454.11 798.655,1454.11 802.919,1454.11 807.183,1454.11 811.446,1454.11 815.71,1454.11 819.974,1454.11 824.237,1454.11 828.501,1454.11 832.765,1454.11 837.028,1454.11 841.292,1454.11 845.556,1348.01 849.819,1127.73 854.083,904.557 858.347,792.601 862.61,632.639 866.874,663.896 871.138,585.287 875.401,708.724 879.665,829.454 883.929,889.761 888.192,1144.26 892.456,1339.05 896.72,1454.11 900.983,1454.11 905.247,1454.11 909.511,1454.11 913.774,1454.11 918.038,1454.11 922.302,1454.11 926.565,1454.11 930.829,1454.11 935.093,1454.11 939.356,1454.11 943.62,1454.11 947.884,1385.77 952.147,1268.78 956.411,1151.3 960.675,1052.87 964.938,1008.2 969.202,892.754 973.466,896.333 977.729,943.566 981.993,1029.56 986.257,1148.78 990.52,1267 994.784,1382.2 999.048,1454.11 1003.31,1454.11 1007.58,1454.11 1011.84,1454.11 1016.1,1454.11 1020.37,1454.11 1024.63,1454.11 1028.89,1454.11 1033.16,1454.11 1037.42,1454.11 1041.68,1454.11 1045.95,1454.11 1050.21,1414.96 1054.48,1342.58 1058.74,1271.72 1063,1238.16 1067.27,1219.53 1071.53,1193.5 1075.79,1157.55 1080.06,1187.8 1084.32,1226.13 1088.58,1274.5 1092.85,1340.73 1097.11,1415.67 1101.38,1454.11 1105.64,1454.11 1109.9,1454.11 1114.17,1454.11 1118.43,1454.11 1122.69,1454.11 1126.96,1454.11 1131.22,1454.11 1135.49,1454.11 1139.75,1454.11 1144.01,1454.11 1148.28,1454.11 1152.54,1432.99 1156.8,1385.84 1161.07,1359.64 1165.33,1319.1 1169.59,1285.42 1173.86,1285.11 1178.12,1293.7 1182.39,1285.39 1186.65,1324.61 1190.91,1343.07 1195.18,1391.12 1199.44,1430.04 1203.7,1454.11 1207.97,1454.11 1212.23,1454.11 1216.49,1454.11 1220.76,1454.11 1225.02,1454.11 1229.29,1454.11 1233.55,1454.11 1237.81,1454.11 1242.08,1454.11 1246.34,1454.11 1250.6,1454.11 1254.87,1425.64 1259.13,1371.78 1263.4,1329.85 1267.66,1282.95 1271.92,1279.18 1276.19,1243.56 1280.45,1253.8 1284.71,1260.65 1288.98,1300.26 1293.24,1323.42 1297.5,1375 1301.77,1426.89 1306.03,1454.11 1310.3,1454.11 1314.56,1454.11 1318.82,1454.11 1323.09,1454.11 1327.35,1454.11 1331.61,1454.11 1335.88,1454.11 1340.14,1454.11 1344.41,1454.11 1348.67,1454.11 1352.93,1454.11 1357.2,1354.86 1361.46,1185.24 1365.72,964.303 1369.99,849.277 1374.25,776.702 1378.51,745.391 1382.78,693.546 1387.04,779.151 1391.31,828.989 1395.57,1024.28 1399.83,1152.16 1404.1,1361.86 1408.36,1454.11 1412.62,1454.11 1416.89,1454.11 1421.15,1454.11 1425.41,1454.11 1429.68,1454.11 1433.94,1454.11 1438.21,1454.11 1442.47,1454.11 1446.73,1454.11 1451,1454.11 1455.26,1454.11 1459.52,1447.64 1463.79,1436.56 1468.05,1426.57 1472.32,1418.05 1476.58,1410.53 1480.84,1403.2 1485.11,1409.41 1489.37,1412.45 1493.63,1413.87 1497.9,1422.06 1502.16,1434.32 1506.42,1447.43 1510.69,1454.11 1514.95,1454.11 1519.22,1454.11 1523.48,1454.11 1527.74,1454.11 1532.01,1454.11 1536.27,1454.11 1540.53,1454.11 1544.8,1454.11 1549.06,1454.11 1553.32,1454.11 1557.59,1454.11 1561.85,1373.96 1566.12,1222.77 1570.38,1082.85 1574.64,934.072 1578.91,801.231 1583.17,858.452 1587.43,748.462 1591.7,812.213 1595.96,966.02 1600.23,1085.57 1604.49,1179.76 1608.75,1370.8 1613.02,1454.11 1617.28,1454.11 1621.54,1454.11 1625.81,1454.11 1630.07,1454.11 1634.33,1454.11 1638.6,1454.11 1642.86,1454.11 1647.13,1454.11 1651.39,1454.11 1655.65,1454.11 1659.92,1454.11 1664.18,1406.63 1668.44,1297.93 1672.71,1241.34 1676.97,1153.28 1681.24,1104.33 1685.5,1104.12 1689.76,1094.23 1694.03,1098.55 1698.29,1162.03 1702.55,1219.72 1706.82,1301.39 1711.08,1399.87 1715.34,1454.11 1719.61,1454.11 1723.87,1454.11 1728.14,1454.11 1732.4,1454.11 1736.66,1454.11 1740.93,1454.11 1745.19,1454.11 1749.45,1454.11 1753.72,1454.11 1757.98,1454.11 1762.24,1454.11 1766.51,1336.82 1770.77,1108.71 1775.04,882.918 1779.3,712.67 1783.56,677.757 1787.83,508.381 1792.09,628.583 1796.35,571.526 1800.62,707.594 1804.88,863.605 1809.15,1121.14 1813.41,1336.85 1817.67,1454.11 1821.94,1454.11 1826.2,1454.11 1830.46,1454.11 1834.73,1454.11 1838.99,1454.11 1843.25,1454.11 1847.52,1454.11 1851.78,1454.11 1856.05,1454.11 1860.31,1454.11 1864.57,1454.11 1868.84,1429.78 1873.1,1377.24 1877.36,1326.1 1881.63,1298.14 1885.89,1277.72 1890.15,1245.32 1894.42,1259.01 1898.68,1279.85 1902.95,1309.66 1907.21,1343.33 1911.47,1381.78 1915.74,1428.62 1920,1454.11 1924.26,1454.11 1928.53,1454.11 1932.79,1454.11 1937.06,1454.11 1941.32,1454.11 1945.58,1454.11 1949.85,1454.11 1954.11,1454.11 1958.37,1454.11 1962.64,1454.11 1966.9,1454.11 1971.16,1421.26 1975.43,1364.69 1979.69,1312.48 1983.96,1269.24 1988.22,1231.59 1992.48,1200.73 1996.75,1186.53 2001.01,1234.72 2005.27,1248.99 2009.54,1305.24 2013.8,1350.87 2018.07,1423.02 2022.33,1454.11 2026.59,1454.11 2030.86,1454.11 2035.12,1454.11 2039.38,1454.11 2043.65,1454.11 2047.91,1454.11 2052.17,1454.11 2056.44,1454.11 2060.7,1454.11 2064.97,1454.11 2069.23,1454.11 2073.49,1418.27 2077.76,1338.84 2082.02,1281.93 2086.28,1214.44 2090.55,1194.72 2094.81,1194.75 2099.07,1161.99 2103.34,1173.47 2107.6,1247.43 2111.87,1290.17 2116.13,1347.58 2120.39,1416.67 2124.66,1454.11 2128.92,1454.11 2133.18,1454.11 2137.45,1454.11 2141.71,1454.11 2145.98,1454.11 2150.24,1454.11 2154.5,1454.11 2158.77,1454.11 2163.03,1454.11 2167.29,1454.11 2171.56,1454.11 2175.82,1395.57 2180.08,1275.71 2184.35,1163.16 2188.61,1045.79 2192.88,980.96 2197.14,1017.62 2201.4,966.929 2205.67,979.562 2209.93,1069.87 2214.19,1185.47 2218.46,1269.64 2222.72,1387.41 2226.98,1454.11 2231.25,1454.11 2235.51,1454.11 2239.78,1454.11 2244.04,1454.11 2248.3,1454.11 2252.57,1454.11 2256.83,1454.11 2261.09,1454.11 2265.36,1454.11 2269.62,1454.11 2273.89,1454.11 2278.15,1418.05 2282.41,1361.85 2286.68,1302.05 2290.94,1254.06 2295.2,1236.89 2299.47,1215.84 2303.73,1187.83 2307.99,1203.82 2312.26,1244.78 2316.52,1297.36 2320.79,1361.57 2325.05,1421.26 2329.31,1454.11 2333.58,1454.11 2337.84,1454.11 2342.1,1454.11 2346.37,1454.11 2350.63,1454.11 2354.9,1454.11 2359.16,1454.11 2363.42,1454.11 2367.69,1454.11 2371.95,1454.11 2376.21,1454.11 2380.48,1340.38 2384.74,1104.14 2389,910.412 2393.27,729.456 2397.53,717.983 2401.8,551.203 2406.06,546.725 2410.32,688.53 2414.59,725.043 2418.85,912.324 2423.11,1116.85 2427.38,1344.05 2431.64,1454.11 2435.9,1454.11 2440.17,1454.11 2444.43,1454.11 2448.7,1454.11 2452.96,1454.11 2457.22,1454.11 2461.49,1454.11 2465.75,1454.11 2470.01,1454.11 2474.28,1454.11 2478.54,1454.11 2482.81,1379.31 2487.07,1235.73 2491.33,1124.73 2495.6,986.095 2499.86,883.963 2504.12,872.715 2508.39,830.213 2512.65,912.986 2516.91,1004.29 2521.18,1072.69 2525.44,1215.16 2529.71,1382.64 2533.97,1454.11 2538.23,1454.11 2542.5,1454.11 2546.76,1454.11 2551.02,1454.11 2555.29,1454.11 2559.55,1454.11 2563.82,1454.11 2568.08,1454.11 2572.34,1454.11 2576.61,1454.11 2580.87,1454.11 2585.13,1428.02 2589.4,1384.07 2593.66,1333.19 2597.92,1296.58 2602.19,1286.46 2606.45,1258.1 2610.72,1263.46 2614.98,1264.12 2619.24,1304.5 2623.51,1334.8 2627.77,1378.08 2632.03,1430.07 2636.3,1454.11 2640.56,1454.11 2644.82,1454.11 2649.09,1454.11 2653.35,1454.11 2657.62,1454.11 2661.88,1454.11 2666.14,1454.11 2670.41,1454.11 2674.67,1454.11 2678.93,1454.11 2683.2,1454.11 2687.46,1416.67 2691.73,1343.67 2695.99,1281.19 2700.25,1230.23 2704.52,1155.55 2708.78,1145.67 2713.04,1158.05 2717.31,1192.92 2721.57,1212.13 2725.83,1274.08 2730.1,1336.62 2734.36,1415.77 2738.63,1454.11 2742.89,1454.11 2747.15,1454.11 2751.42,1454.11 2755.68,1454.11 2759.94,1454.11 2764.21,1454.11 2768.47,1454.11 2772.73,1454.11 2777,1454.11 2781.26,1454.11 2785.53,1454.11 2789.79,1446.75 2794.05,1434.08 2798.32,1419.99 2802.58,1411.13 2806.84,1403.82 2811.11,1395.92 2815.37,1396.4 2819.64,1397.94 2823.9,1413.07 2828.16,1421.12 2832.43,1433.21 2836.69,1446.93 2840.95,1454.11 2845.22,1454.11 2849.48,1454.11 2853.74,1454.11 2858.01,1454.11 2862.27,1454.11 2866.54,1454.11 2870.8,1454.11 2875.06,1454.11 2879.33,1454.11 2883.59,1454.11 2887.85,1454.11 2892.12,1385.62 2896.38,1246.98 2900.65,1155.48 2904.91,1040.68 2909.17,969.772 2913.44,947.61 2917.7,965.79 2921.96,1008.36 2926.23,1032.04 2930.49,1161.08 2934.75,1263.78 2939.02,1380.58 2943.28,1454.11 2947.55,1454.11 2951.81,1454.11 2956.07,1454.11 2960.34,1454.11 2964.6,1454.11 2968.86,1454.11 2973.13,1454.11 2977.39,1454.11 2981.65,1454.11 2985.92,1454.11 2990.18,1454.11 2994.45,1359.15 2998.71,1221.9 3002.97,1063.13 3007.24,969.192 3011.5,876.35 3015.76,753.445 3020.03,849.453 3024.29,848.182 3028.56,963.279 3032.82,1032.55 3037.08,1217.56 3041.35,1367.08 3045.61,1454.11 3049.87,1454.11 3054.14,1454.11 3058.4,1454.11 3062.66,1454.11 3066.93,1454.11 "/>
<polyline clip-path="url(#clip402)" style="stroke:#3da44d; stroke-linecap:round; stroke-linejoin:round; stroke-width:4; stroke-opacity:1; fill:none" points="206.005,845.784 210.269,812.45 214.532,748.453 218.796,688.657 223.06,578.153 227.323,480.704 231.587,417.745 235.851,337.582 240.114,266.964 244.378,204.366 248.642,113.255 252.905,195.427 257.169,94.5176 261.433,238.824 265.696,339.114 269.96,275.473 274.224,406.218 278.487,495.106 282.751,586.955 287.015,687.228 291.278,763.706 295.542,813.183 299.806,843.312 304.069,856.777 308.333,843.58 312.597,813.776 316.86,757.695 321.124,696.498 325.388,623.399 329.651,535.185 333.915,455.196 338.179,382.731 342.442,300.267 346.706,147.453 350.97,152.608 355.233,105.692 359.497,185.544 363.761,229.442 368.024,260.29 372.288,333.536 376.552,466.543 380.815,504.051 385.079,630.162 389.343,687.604 393.606,766.288 397.87,812.512 402.134,843.583 406.397,856.777 410.661,845.543 414.925,814.901 419.188,755.816 423.452,681.647 427.716,569.412 431.979,535.529 436.243,475.839 440.507,343.442 444.77,257.115 449.034,216.578 453.298,253.668 457.561,193.624 461.825,188.117 466.089,193.31 470.352,271.548 474.616,331.236 478.88,379.707 483.143,508.615 487.407,586.79 491.671,689.573 495.935,746.507 500.198,809.517 504.462,845.829 508.726,856.777 512.989,845.587 517.253,814.182 521.517,751.928 525.78,707.221 530.044,576.675 534.308,556.691 538.571,403.629 542.835,374.694 547.099,303.078 551.362,197.678 555.626,110.647 559.89,121.356 564.153,199.42 568.417,296.237 572.681,226.402 576.944,317.458 581.208,442.078 585.472,520.218 589.735,569.645 593.999,697.39 598.263,763.376 602.526,807.138 606.79,844.178 611.054,856.777 615.317,845.066 619.581,811.924 623.845,761.291 628.108,702.372 632.372,628.265 636.636,469.646 640.899,468.279 645.163,364.954 649.427,342.464 653.69,142.181 657.954,231.593 662.218,165.26 666.481,154.15 670.745,172.335 675.009,255.41 679.272,314.375 683.536,409.54 687.8,530.296 692.063,597.243 696.327,689.421 700.591,764.091 704.854,809.002 709.118,845.15 713.382,856.777 717.645,844.778 721.909,804.929 726.173,768.259 730.436,702.137 734.7,573.151 738.964,505.54 743.227,424.287 747.491,394.839 751.755,227.943 756.018,180.816 760.282,229.274 764.546,225.73 768.809,161.275 773.073,298.324 777.337,260.241 781.6,328.699 785.864,437.101 790.128,523.884 794.391,631.851 798.655,663.798 802.919,750.354 807.183,805.335 811.446,845.478 815.71,856.777 819.974,845.811 824.237,805.706 828.501,749.009 832.765,688.269 837.028,601.976 841.292,539.845 845.556,441.166 849.819,358.709 854.083,311.017 858.347,152.91 862.61,233.011 866.874,88.2208 871.138,156.124 875.401,148.865 879.665,335.323 883.929,275.305 888.192,393.749 892.456,529.903 896.72,571.55 900.983,672.083 905.247,751.683 909.511,810.455 913.774,844.342 918.038,856.778 922.302,845.797 926.565,812.848 930.829,767.55 935.093,676.661 939.356,624.69 943.62,496.438 947.884,376.919 952.147,366.942 956.411,307.795 960.675,291.524 964.938,161.658 969.202,165.56 973.466,150.76 977.729,149.614 981.993,327.473 986.257,276.955 990.52,379.456 994.784,554.54 999.048,606.044 1003.31,681.596 1007.58,746.789 1011.84,812.811 1016.1,843.623 1020.37,856.777 1024.63,846.525 1028.89,814.434 1033.16,767.816 1037.42,665.497 1041.68,590.088 1045.95,556.894 1050.21,472.222 1054.48,348.505 1058.74,249.548 1063,299.109 1067.27,212.274 1071.53,186.094 1075.79,216.383 1080.06,236.827 1084.32,251.309 1088.58,301.086 1092.85,380.081 1097.11,510.543 1101.38,600.397 1105.64,692.597 1109.9,764.97 1114.17,807.629 1118.43,844.211 1122.69,856.778 1126.96,844.483 1131.22,811.8 1135.49,758.962 1139.75,695.247 1144.01,582.075 1148.28,487.633 1152.54,420.337 1156.8,304.248 1161.07,259.836 1165.33,164.806 1169.59,105.621 1173.86,147.139 1178.12,144.571 1182.39,243.55 1186.65,323.935 1190.91,351.716 1195.18,411.272 1199.44,555.883 1203.7,593.487 1207.97,699.677 1212.23,751.944 1216.49,806.24 1220.76,844.162 1225.02,856.777 1229.29,845.908 1233.55,814.619 1237.81,763.412 1242.08,697.957 1246.34,629.193 1250.6,514.79 1254.87,467.708 1259.13,288.584 1263.4,301.55 1267.66,260.871 1271.92,154.498 1276.19,171.48 1280.45,252.321 1284.71,265.284 1288.98,285.991 1293.24,351.933 1297.5,435.573 1301.77,526.507 1306.03,623.555 1310.3,668.329 1314.56,756.111 1318.82,808.342 1323.09,845.214 1327.35,856.777 1331.61,845.917 1335.88,814.466 1340.14,768.947 1344.41,688.258 1348.67,583.709 1352.93,499.36 1357.2,397.02 1361.46,288.179 1365.72,232.748 1369.99,189.414 1374.25,256.216 1378.51,102.11 1382.78,100.208 1387.04,261.602 1391.31,249.48 1395.57,296.957 1399.83,384.927 1404.1,555.968 1408.36,598.372 1412.62,671.283 1416.89,757.212 1421.15,804.216 1425.41,845.607 1429.68,856.778 1433.94,844.739 1438.21,812.613 1442.47,766.82 1446.73,705.614 1451,613.111 1455.26,514.787 1459.52,368.501 1463.79,367.279 1468.05,283.716 1472.32,192.869 1476.58,145.912 1480.84,150.407 1485.11,150.202 1489.37,259.135 1493.63,223.132 1497.9,368.139 1502.16,394.089 1506.42,519.065 1510.69,580.74 1514.95,667.915 1519.22,767.09 1523.48,808.983 1527.74,844.501 1532.01,856.778 1536.27,845.391 1540.53,815.368 1544.8,761.447 1549.06,670.404 1553.32,597.189 1557.59,533.779 1561.85,394.256 1566.12,387.309 1570.38,255.399 1574.64,245.136 1578.91,245.303 1583.17,197.955 1587.43,259.847 1591.7,238.77 1595.96,248.314 1600.23,307.651 1604.49,462.185 1608.75,547.619 1613.02,633.288 1617.28,684.437 1621.54,742.314 1625.81,812.404 1630.07,846.02 1634.33,856.778 1638.6,845.643 1642.86,809.313 1647.13,743.72 1651.39,704.833 1655.65,626.474 1659.92,537.305 1664.18,396.591 1668.44,365.608 1672.71,303.698 1676.97,218.206 1681.24,178.596 1685.5,202.017 1689.76,207.721 1694.03,268.722 1698.29,211.11 1702.55,327.339 1706.82,391.072 1711.08,489.373 1715.34,631.013 1719.61,684.438 1723.87,750.176 1728.14,808.116 1732.4,843.48 1736.66,856.777 1740.93,844.71 1745.19,805.585 1749.45,748.755 1753.72,664.615 1757.98,589.277 1762.24,536.873 1766.51,451.611 1770.77,349.201 1775.04,280.292 1779.3,196.959 1783.56,260.642 1787.83,137.924 1792.09,164.365 1796.35,140.573 1800.62,330.656 1804.88,276.195 1809.15,405.049 1813.41,496.369 1817.67,631.545 1821.94,673.583 1826.2,758.897 1830.46,813.203 1834.73,844.579 1838.99,856.778 1843.25,845.119 1847.52,815.921 1851.78,762.642 1856.05,674.165 1860.31,602.035 1864.57,505.692 1868.84,418.392 1873.1,277.795 1877.36,329.335 1881.63,180.813 1885.89,125.94 1890.15,236.057 1894.42,262.563 1898.68,295.727 1902.95,306.165 1907.21,274.577 1911.47,413.193 1915.74,487.947 1920,632.924 1924.26,679.005 1928.53,755.936 1932.79,813.494 1937.06,846.154 1941.32,856.777 1945.58,845.767 1949.85,807.953 1954.11,746.545 1958.37,704.044 1962.64,609.33 1966.9,543.473 1971.16,428.887 1975.43,297.106 1979.69,265.315 1983.96,218.926 1988.22,132.578 1992.48,148.378 1996.75,197.462 2001.01,164.633 2005.27,222.936 2009.54,327.348 2013.8,477.595 2018.07,541.817 2022.33,604.614 2026.59,702.826 2030.86,759.505 2035.12,809.63 2039.38,843.747 2043.65,856.777 2047.91,845.626 2052.17,811.248 2056.44,753.322 2060.7,684.015 2064.97,610.223 2069.23,474.139 2073.49,480.222 2077.76,404.893 2082.02,242.395 2086.28,140.489 2090.55,201.412 2094.81,242.924 2099.07,215.282 2103.34,166.861 2107.6,243.819 2111.87,287.787 2116.13,381.768 2120.39,546.671 2124.66,591.854 2128.92,706.512 2133.18,751.353 2137.45,804.859 2141.71,844.214 2145.98,856.777 2150.24,844.192 2154.5,805.837 2158.77,755.842 2163.03,698.276 2167.29,619.651 2171.56,557.72 2175.82,424.308 2180.08,361.993 2184.35,219.381 2188.61,256.732 2192.88,165.768 2197.14,196.353 2201.4,251.864 2205.67,239.144 2209.93,324.081 2214.19,287.769 2218.46,475.508 2222.72,506.653 2226.98,627.927 2231.25,689.717 2235.51,767.001 2239.78,812.013 2244.04,845.843 2248.3,856.777 2252.57,845.003 2256.83,808.039 2261.09,748.775 2265.36,702.49 2269.62,607.185 2273.89,511.866 2278.15,445.219 2282.41,403.616 2286.68,245.527 2290.94,274.28 2295.2,105.702 2299.47,256.399 2303.73,238.531 2307.99,144.729 2312.26,228.301 2316.52,321.431 2320.79,419.593 2325.05,514.903 2329.31,612.074 2333.58,679.225 2337.84,751.224 2342.1,805.359 2346.37,845.444 2350.63,856.777 2354.9,846.282 2359.16,816.18 2363.42,765.648 2367.69,707.419 2371.95,570.19 2376.21,554.241 2380.48,469.735 2384.74,340.614 2389,319.718 2393.27,181.213 2397.53,170.412 2401.8,127.345 2406.06,97.4248 2410.32,210.831 2414.59,308.668 2418.85,392.219 2423.11,382.901 2427.38,554.157 2431.64,616.459 2435.9,694.392 2440.17,758.935 2444.43,815.203 2448.7,843.517 2452.96,856.777 2457.22,845.362 2461.49,805.168 2465.75,755.578 2470.01,689.91 2474.28,576.504 2478.54,475.304 2482.81,369.127 2487.07,394.381 2491.33,213.887 2495.6,206.59 2499.86,226.504 2504.12,227.397 2508.39,190.898 2512.65,201.312 2516.91,252.425 2521.18,363.611 2525.44,417.168 2529.71,556.32 2533.97,578.584 2538.23,699.618 2542.5,758.202 2546.76,808.447 2551.02,844.452 2555.29,856.778 2559.55,846.258 2563.82,806.522 2568.08,745.708 2572.34,664.017 2576.61,571.838 2580.87,546.754 2585.13,429.044 2589.4,291.992 2593.66,277.182 2597.92,177.858 2602.19,207.048 2606.45,153.328 2610.72,164.285 2614.98,279.85 2619.24,264.597 2623.51,359.218 2627.77,403.34 2632.03,522.931 2636.3,581.566 2640.56,666.907 2644.82,755.495 2649.09,814.516 2653.35,844.405 2657.62,856.778 2661.88,845.731 2666.14,808.492 2670.41,760.054 2674.67,699.519 2678.93,598.385 2683.2,483.363 2687.46,398.603 2691.73,324.386 2695.99,300.279 2700.25,163.134 2704.52,175.155 2708.78,98.5788 2713.04,223.132 2717.31,281.279 2721.57,235.358 2725.83,289.512 2730.1,423.895 2734.36,534.365 2738.63,608.24 2742.89,699.111 2747.15,743.106 2751.42,814.328 2755.68,845.679 2759.94,856.777 2764.21,846.053 2768.47,808.328 2772.73,753.602 2777,687.95 2781.26,608.548 2785.53,519.381 2789.79,422.107 2794.05,359.075 2798.32,294.935 2802.58,158.77 2806.84,259.971 2811.11,226.843 2815.37,195.296 2819.64,139.208 2823.9,225.371 2828.16,339.735 2832.43,446.682 2836.69,495.25 2840.95,631.989 2845.22,674.776 2849.48,754.375 2853.74,806.543 2858.01,845.96 2862.27,856.778 2866.54,846.223 2870.8,808.564 2875.06,749.723 2879.33,680.952 2883.59,617.447 2887.85,536.093 2892.12,411.921 2896.38,394.312 2900.65,281.861 2904.91,274.205 2909.17,112.238 2913.44,142.709 2917.7,161.003 2921.96,134.529 2926.23,329.298 2930.49,282.304 2934.75,417.924 2939.02,484.237 2943.28,572.955 2947.55,703.478 2951.81,747.721 2956.07,813.364 2960.34,844.635 2964.6,856.777 2968.86,844.485 2973.13,806.7 2977.39,759.408 2981.65,677.398 2985.92,625.646 2990.18,495.713 2994.45,462.711 2998.71,286.297 3002.97,302.005 3007.24,281.202 3011.5,249.494 3015.76,249.525 3020.03,256.685 3024.29,132.079 3028.56,230.675 3032.82,330.472 3037.08,390.161 3041.35,507.207 3045.61,627.471 3049.87,679.593 3054.14,755.141 3058.4,810.728 3062.66,845.588 3066.93,856.777 "/>
<path clip-path="url(#clip400)" d="M2560.7 302.866 L3051.67 302.866 L3051.67 95.5056 L2560.7 95.5056  Z" fill="#ffffff" fill-rule="evenodd" fill-opacity="1"/>
<polyline clip-path="url(#clip400)" style="stroke:#000000; stroke-linecap:round; stroke-linejoin:round; stroke-width:4; stroke-opacity:1; fill:none" points="2560.7,302.866 3051.67,302.866 3051.67,95.5056 2560.7,95.5056 2560.7,302.866 "/>
<polyline clip-path="url(#clip400)" style="stroke:#009af9; stroke-linecap:round; stroke-linejoin:round; stroke-width:4; stroke-opacity:1; fill:none" points="2594.4,147.346 2796.57,147.346 "/>
<path clip-path="url(#clip400)" d="M2843.67 151.593 Q2838.51 151.593 2836.52 152.774 Q2834.53 153.954 2834.53 156.802 Q2834.53 159.07 2836.01 160.413 Q2837.51 161.732 2840.08 161.732 Q2843.62 161.732 2845.75 159.232 Q2847.91 156.709 2847.91 152.542 L2847.91 151.593 L2843.67 151.593 M2852.17 149.834 L2852.17 164.626 L2847.91 164.626 L2847.91 160.69 Q2846.45 163.051 2844.27 164.186 Q2842.1 165.297 2838.95 165.297 Q2834.97 165.297 2832.61 163.075 Q2830.27 160.829 2830.27 157.079 Q2830.27 152.704 2833.18 150.482 Q2836.12 148.26 2841.93 148.26 L2847.91 148.26 L2847.91 147.843 Q2847.91 144.903 2845.96 143.306 Q2844.04 141.686 2840.55 141.686 Q2838.32 141.686 2836.22 142.218 Q2834.11 142.751 2832.17 143.815 L2832.17 139.88 Q2834.5 138.978 2836.7 138.538 Q2838.9 138.075 2840.98 138.075 Q2846.61 138.075 2849.39 140.991 Q2852.17 143.908 2852.17 149.834 Z" fill="#000000" fill-rule="nonzero" fill-opacity="1" /><path clip-path="url(#clip400)" d="M2857.88 138.7 L2862.4 138.7 L2870.5 160.459 L2878.6 138.7 L2883.11 138.7 L2873.39 164.626 L2867.61 164.626 L2857.88 138.7 Z" fill="#000000" fill-rule="nonzero" fill-opacity="1" /><path clip-path="url(#clip400)" d="M2900.78 151.593 Q2895.61 151.593 2893.62 152.774 Q2891.63 153.954 2891.63 156.802 Q2891.63 159.07 2893.11 160.413 Q2894.62 161.732 2897.19 161.732 Q2900.73 161.732 2902.86 159.232 Q2905.01 156.709 2905.01 152.542 L2905.01 151.593 L2900.78 151.593 M2909.27 149.834 L2909.27 164.626 L2905.01 164.626 L2905.01 160.69 Q2903.55 163.051 2901.38 164.186 Q2899.2 165.297 2896.05 165.297 Q2892.07 165.297 2889.71 163.075 Q2887.37 160.829 2887.37 157.079 Q2887.37 152.704 2890.29 150.482 Q2893.23 148.26 2899.04 148.26 L2905.01 148.26 L2905.01 147.843 Q2905.01 144.903 2903.07 143.306 Q2901.15 141.686 2897.65 141.686 Q2895.43 141.686 2893.32 142.218 Q2891.22 142.751 2889.27 143.815 L2889.27 139.88 Q2891.61 138.978 2893.81 138.538 Q2896.01 138.075 2898.09 138.075 Q2903.72 138.075 2906.49 140.991 Q2909.27 143.908 2909.27 149.834 Z" fill="#000000" fill-rule="nonzero" fill-opacity="1" /><path clip-path="url(#clip400)" d="M2918.04 138.7 L2922.3 138.7 L2922.3 164.626 L2918.04 164.626 L2918.04 138.7 M2918.04 128.607 L2922.3 128.607 L2922.3 134.001 L2918.04 134.001 L2918.04 128.607 Z" fill="#000000" fill-rule="nonzero" fill-opacity="1" /><path clip-path="url(#clip400)" d="M2931.22 128.607 L2935.48 128.607 L2935.48 164.626 L2931.22 164.626 L2931.22 128.607 Z" fill="#000000" fill-rule="nonzero" fill-opacity="1" /><polyline clip-path="url(#clip400)" style="stroke:#e26f46; stroke-linecap:round; stroke-linejoin:round; stroke-width:4; stroke-opacity:1; fill:none" points="2594.4,199.186 2796.57,199.186 "/>
<path clip-path="url(#clip400)" d="M2848.69 191.304 L2848.69 195.331 Q2846.89 194.405 2844.94 193.943 Q2843 193.48 2840.92 193.48 Q2837.74 193.48 2836.15 194.452 Q2834.57 195.424 2834.57 197.368 Q2834.57 198.85 2835.71 199.706 Q2836.84 200.54 2840.27 201.304 L2841.73 201.628 Q2846.26 202.6 2848.16 204.382 Q2850.08 206.142 2850.08 209.313 Q2850.08 212.924 2847.21 215.03 Q2844.36 217.137 2839.36 217.137 Q2837.28 217.137 2835.01 216.72 Q2832.77 216.327 2830.27 215.516 L2830.27 211.118 Q2832.63 212.345 2834.92 212.97 Q2837.21 213.572 2839.46 213.572 Q2842.47 213.572 2844.09 212.554 Q2845.71 211.512 2845.71 209.637 Q2845.71 207.901 2844.53 206.975 Q2843.37 206.049 2839.41 205.192 L2837.93 204.845 Q2833.97 204.012 2832.21 202.299 Q2830.45 200.563 2830.45 197.554 Q2830.45 193.896 2833.05 191.906 Q2835.64 189.915 2840.41 189.915 Q2842.77 189.915 2844.85 190.262 Q2846.93 190.609 2848.69 191.304 Z" fill="#000000" fill-rule="nonzero" fill-opacity="1" /><path clip-path="url(#clip400)" d="M2866.91 193.526 Q2863.48 193.526 2861.49 196.211 Q2859.5 198.873 2859.5 203.526 Q2859.5 208.179 2861.47 210.864 Q2863.46 213.526 2866.91 213.526 Q2870.31 213.526 2872.3 210.841 Q2874.29 208.155 2874.29 203.526 Q2874.29 198.919 2872.3 196.234 Q2870.31 193.526 2866.91 193.526 M2866.91 189.915 Q2872.47 189.915 2875.64 193.526 Q2878.81 197.137 2878.81 203.526 Q2878.81 209.892 2875.64 213.526 Q2872.47 217.137 2866.91 217.137 Q2861.33 217.137 2858.16 213.526 Q2855.01 209.892 2855.01 203.526 Q2855.01 197.137 2858.16 193.526 Q2861.33 189.915 2866.91 189.915 Z" fill="#000000" fill-rule="nonzero" fill-opacity="1" /><path clip-path="url(#clip400)" d="M2885.87 180.447 L2890.13 180.447 L2890.13 216.466 L2885.87 216.466 L2885.87 180.447 Z" fill="#000000" fill-rule="nonzero" fill-opacity="1" /><path clip-path="url(#clip400)" d="M2910.82 203.433 Q2905.66 203.433 2903.67 204.614 Q2901.68 205.794 2901.68 208.642 Q2901.68 210.91 2903.16 212.253 Q2904.67 213.572 2907.23 213.572 Q2910.78 213.572 2912.91 211.072 Q2915.06 208.549 2915.06 204.382 L2915.06 203.433 L2910.82 203.433 M2919.32 201.674 L2919.32 216.466 L2915.06 216.466 L2915.06 212.53 Q2913.6 214.891 2911.42 216.026 Q2909.25 217.137 2906.1 217.137 Q2902.12 217.137 2899.76 214.915 Q2897.42 212.669 2897.42 208.919 Q2897.42 204.544 2900.34 202.322 Q2903.28 200.1 2909.09 200.1 L2915.06 200.1 L2915.06 199.683 Q2915.06 196.743 2913.11 195.146 Q2911.19 193.526 2907.7 193.526 Q2905.48 193.526 2903.37 194.058 Q2901.26 194.591 2899.32 195.655 L2899.32 191.72 Q2901.66 190.818 2903.85 190.378 Q2906.05 189.915 2908.14 189.915 Q2913.76 189.915 2916.54 192.831 Q2919.32 195.748 2919.32 201.674 Z" fill="#000000" fill-rule="nonzero" fill-opacity="1" /><path clip-path="url(#clip400)" d="M2943.11 194.521 Q2942.4 194.105 2941.54 193.919 Q2940.71 193.711 2939.69 193.711 Q2936.08 193.711 2934.13 196.072 Q2932.21 198.41 2932.21 202.808 L2932.21 216.466 L2927.93 216.466 L2927.93 190.54 L2932.21 190.54 L2932.21 194.568 Q2933.55 192.206 2935.71 191.072 Q2937.86 189.915 2940.94 189.915 Q2941.38 189.915 2941.91 189.984 Q2942.44 190.031 2943.09 190.146 L2943.11 194.521 Z" fill="#000000" fill-rule="nonzero" fill-opacity="1" /><polyline clip-path="url(#clip400)" style="stroke:#3da44d; stroke-linecap:round; stroke-linejoin:round; stroke-width:4; stroke-opacity:1; fill:none" points="2594.4,251.026 2796.57,251.026 "/>
<path clip-path="url(#clip400)" d="M2849.18 246.315 L2849.18 232.287 L2853.44 232.287 L2853.44 268.306 L2849.18 268.306 L2849.18 264.417 Q2847.84 266.731 2845.78 267.866 Q2843.74 268.977 2840.87 268.977 Q2836.17 268.977 2833.21 265.227 Q2830.27 261.477 2830.27 255.366 Q2830.27 249.255 2833.21 245.505 Q2836.17 241.755 2840.87 241.755 Q2843.74 241.755 2845.78 242.889 Q2847.84 244 2849.18 246.315 M2834.67 255.366 Q2834.67 260.065 2836.59 262.75 Q2838.53 265.412 2841.91 265.412 Q2845.29 265.412 2847.23 262.75 Q2849.18 260.065 2849.18 255.366 Q2849.18 250.667 2847.23 248.005 Q2845.29 245.32 2841.91 245.32 Q2838.53 245.32 2836.59 248.005 Q2834.67 250.667 2834.67 255.366 Z" fill="#000000" fill-rule="nonzero" fill-opacity="1" /><path clip-path="url(#clip400)" d="M2884.39 254.278 L2884.39 256.361 L2864.8 256.361 Q2865.08 260.759 2867.44 263.074 Q2869.83 265.366 2874.06 265.366 Q2876.52 265.366 2878.81 264.764 Q2881.12 264.162 2883.39 262.958 L2883.39 266.986 Q2881.1 267.958 2878.69 268.468 Q2876.29 268.977 2873.81 268.977 Q2867.61 268.977 2863.97 265.366 Q2860.36 261.755 2860.36 255.597 Q2860.36 249.232 2863.79 245.505 Q2867.23 241.755 2873.07 241.755 Q2878.3 241.755 2881.33 245.134 Q2884.39 248.491 2884.39 254.278 M2880.13 253.028 Q2880.08 249.533 2878.16 247.449 Q2876.26 245.366 2873.11 245.366 Q2869.55 245.366 2867.4 247.38 Q2865.27 249.394 2864.94 253.051 L2880.13 253.028 Z" fill="#000000" fill-rule="nonzero" fill-opacity="1" /><path clip-path="url(#clip400)" d="M2911.56 247.357 Q2913.16 244.486 2915.38 243.121 Q2917.6 241.755 2920.61 241.755 Q2924.66 241.755 2926.86 244.602 Q2929.06 247.426 2929.06 252.657 L2929.06 268.306 L2924.78 268.306 L2924.78 252.796 Q2924.78 249.07 2923.46 247.264 Q2922.14 245.458 2919.43 245.458 Q2916.12 245.458 2914.2 247.658 Q2912.28 249.857 2912.28 253.653 L2912.28 268.306 L2908 268.306 L2908 252.796 Q2908 249.046 2906.68 247.264 Q2905.36 245.458 2902.6 245.458 Q2899.34 245.458 2897.42 247.681 Q2895.5 249.88 2895.5 253.653 L2895.5 268.306 L2891.22 268.306 L2891.22 242.38 L2895.5 242.38 L2895.5 246.408 Q2896.96 244.023 2898.99 242.889 Q2901.03 241.755 2903.83 241.755 Q2906.66 241.755 2908.62 243.19 Q2910.61 244.625 2911.56 247.357 Z" fill="#000000" fill-rule="nonzero" fill-opacity="1" /><path clip-path="url(#clip400)" d="M2949.34 255.273 Q2944.18 255.273 2942.19 256.454 Q2940.2 257.634 2940.2 260.482 Q2940.2 262.75 2941.68 264.093 Q2943.18 265.412 2945.75 265.412 Q2949.29 265.412 2951.42 262.912 Q2953.58 260.389 2953.58 256.222 L2953.58 255.273 L2949.34 255.273 M2957.84 253.514 L2957.84 268.306 L2953.58 268.306 L2953.58 264.37 Q2952.12 266.731 2949.94 267.866 Q2947.77 268.977 2944.62 268.977 Q2940.64 268.977 2938.28 266.755 Q2935.94 264.509 2935.94 260.759 Q2935.94 256.384 2938.85 254.162 Q2941.79 251.94 2947.6 251.94 L2953.58 251.94 L2953.58 251.523 Q2953.58 248.583 2951.63 246.986 Q2949.71 245.366 2946.22 245.366 Q2943.99 245.366 2941.89 245.898 Q2939.78 246.431 2937.84 247.495 L2937.84 243.56 Q2940.17 242.658 2942.37 242.218 Q2944.57 241.755 2946.66 241.755 Q2952.28 241.755 2955.06 244.671 Q2957.84 247.588 2957.84 253.514 Z" fill="#000000" fill-rule="nonzero" fill-opacity="1" /><path clip-path="url(#clip400)" d="M2988.16 252.657 L2988.16 268.306 L2983.9 268.306 L2983.9 252.796 Q2983.9 249.116 2982.47 247.287 Q2981.03 245.458 2978.16 245.458 Q2974.71 245.458 2972.72 247.658 Q2970.73 249.857 2970.73 253.653 L2970.73 268.306 L2966.45 268.306 L2966.45 242.38 L2970.73 242.38 L2970.73 246.408 Q2972.26 244.07 2974.32 242.912 Q2976.4 241.755 2979.11 241.755 Q2983.58 241.755 2985.87 244.533 Q2988.16 247.287 2988.16 252.657 Z" fill="#000000" fill-rule="nonzero" fill-opacity="1" /><path clip-path="url(#clip400)" d="M3013.72 246.315 L3013.72 232.287 L3017.97 232.287 L3017.97 268.306 L3013.72 268.306 L3013.72 264.417 Q3012.37 266.731 3010.31 267.866 Q3008.28 268.977 3005.41 268.977 Q3000.71 268.977 2997.74 265.227 Q2994.8 261.477 2994.8 255.366 Q2994.8 249.255 2997.74 245.505 Q3000.71 241.755 3005.41 241.755 Q3008.28 241.755 3010.31 242.889 Q3012.37 244 3013.72 246.315 M2999.2 255.366 Q2999.2 260.065 3001.12 262.75 Q3003.07 265.412 3006.45 265.412 Q3009.83 265.412 3011.77 262.75 Q3013.72 260.065 3013.72 255.366 Q3013.72 250.667 3011.77 248.005 Q3009.83 245.32 3006.45 245.32 Q3003.07 245.32 3001.12 248.005 Q2999.2 250.667 2999.2 255.366 Z" fill="#000000" fill-rule="nonzero" fill-opacity="1" /></svg>
