<?xml version="1.0" encoding="utf-8"?>
<svg xmlns="http://www.w3.org/2000/svg" xmlns:xlink="http://www.w3.org/1999/xlink" width="800" height="400" viewBox="0 0 3200 1600">
<defs>
  <clipPath id="clip780">
    <rect x="0" y="0" width="3200" height="1600"/>
  </clipPath>
</defs>
<path clip-path="url(#clip780)" d="M0 1600 L3200 1600 L3200 0 L0 0  Z" fill="#ffffff" fill-rule="evenodd" fill-opacity="1"/>
<defs>
  <clipPath id="clip781">
    <rect x="640" y="0" width="2241" height="1600"/>
  </clipPath>
</defs>
<path clip-path="url(#clip780)" d="M245.662 1443.7 L3152.76 1443.7 L3152.76 108.352 L245.662 108.352  Z" fill="#ffffff" fill-rule="evenodd" fill-opacity="1"/>
<defs>
  <clipPath id="clip782">
    <rect x="245" y="108" width="2908" height="1336"/>
  </clipPath>
</defs>
<polyline clip-path="url(#clip782)" style="stroke:#000000; stroke-linecap:round; stroke-linejoin:round; stroke-width:2; stroke-opacity:0.1; fill:none" points="311.516,1443.7 311.516,108.352 "/>
<polyline clip-path="url(#clip782)" style="stroke:#000000; stroke-linecap:round; stroke-linejoin:round; stroke-width:2; stroke-opacity:0.1; fill:none" points="1132.64,1443.7 1132.64,108.352 "/>
<polyline clip-path="url(#clip782)" style="stroke:#000000; stroke-linecap:round; stroke-linejoin:round; stroke-width:2; stroke-opacity:0.1; fill:none" points="1953.76,1443.7 1953.76,108.352 "/>
<polyline clip-path="url(#clip782)" style="stroke:#000000; stroke-linecap:round; stroke-linejoin:round; stroke-width:2; stroke-opacity:0.1; fill:none" points="2774.88,1443.7 2774.88,108.352 "/>
<polyline clip-path="url(#clip782)" style="stroke:#000000; stroke-linecap:round; stroke-linejoin:round; stroke-width:2; stroke-opacity:0.1; fill:none" points="245.662,1405.91 3152.76,1405.91 "/>
<polyline clip-path="url(#clip782)" style="stroke:#000000; stroke-linecap:round; stroke-linejoin:round; stroke-width:2; stroke-opacity:0.1; fill:none" points="245.662,1086.17 3152.76,1086.17 "/>
<polyline clip-path="url(#clip782)" style="stroke:#000000; stroke-linecap:round; stroke-linejoin:round; stroke-width:2; stroke-opacity:0.1; fill:none" points="245.662,766.434 3152.76,766.434 "/>
<polyline clip-path="url(#clip782)" style="stroke:#000000; stroke-linecap:round; stroke-linejoin:round; stroke-width:2; stroke-opacity:0.1; fill:none" points="245.662,446.697 3152.76,446.697 "/>
<polyline clip-path="url(#clip782)" style="stroke:#000000; stroke-linecap:round; stroke-linejoin:round; stroke-width:2; stroke-opacity:0.1; fill:none" points="245.662,126.961 3152.76,126.961 "/>
<polyline clip-path="url(#clip780)" style="stroke:#000000; stroke-linecap:round; stroke-linejoin:round; stroke-width:4; stroke-opacity:1; fill:none" points="245.662,1443.7 3152.76,1443.7 "/>
<polyline clip-path="url(#clip780)" style="stroke:#000000; stroke-linecap:round; stroke-linejoin:round; stroke-width:4; stroke-opacity:1; fill:none" points="311.516,1443.7 311.516,1424.8 "/>
<polyline clip-path="url(#clip780)" style="stroke:#000000; stroke-linecap:round; stroke-linejoin:round; stroke-width:4; stroke-opacity:1; fill:none" points="1132.64,1443.7 1132.64,1424.8 "/>
<polyline clip-path="url(#clip780)" style="stroke:#000000; stroke-linecap:round; stroke-linejoin:round; stroke-width:4; stroke-opacity:1; fill:none" points="1953.76,1443.7 1953.76,1424.8 "/>
<polyline clip-path="url(#clip780)" style="stroke:#000000; stroke-linecap:round; stroke-linejoin:round; stroke-width:4; stroke-opacity:1; fill:none" points="2774.88,1443.7 2774.88,1424.8 "/>
<path clip-path="url(#clip780)" d="M311.516 1481.02 Q307.905 1481.02 306.076 1484.58 Q304.271 1488.12 304.271 1495.25 Q304.271 1502.36 306.076 1505.93 Q307.905 1509.47 311.516 1509.47 Q315.15 1509.47 316.956 1505.93 Q318.784 1502.36 318.784 1495.25 Q318.784 1488.12 316.956 1484.58 Q315.15 1481.02 311.516 1481.02 M311.516 1477.31 Q317.326 1477.31 320.382 1481.92 Q323.46 1486.5 323.46 1495.25 Q323.46 1503.98 320.382 1508.59 Q317.326 1513.17 311.516 1513.17 Q305.706 1513.17 302.627 1508.59 Q299.571 1503.98 299.571 1495.25 Q299.571 1486.5 302.627 1481.92 Q305.706 1477.31 311.516 1477.31 Z" fill="#000000" fill-rule="nonzero" fill-opacity="1" /><path clip-path="url(#clip780)" d="M1107.34 1477.94 L1125.69 1477.94 L1125.69 1481.88 L1111.62 1481.88 L1111.62 1490.35 Q1112.64 1490 1113.65 1489.84 Q1114.67 1489.65 1115.69 1489.65 Q1121.48 1489.65 1124.86 1492.82 Q1128.24 1496 1128.24 1501.41 Q1128.24 1506.99 1124.77 1510.09 Q1121.29 1513.17 1114.97 1513.17 Q1112.8 1513.17 1110.53 1512.8 Q1108.28 1512.43 1105.88 1511.69 L1105.88 1506.99 Q1107.96 1508.12 1110.18 1508.68 Q1112.4 1509.24 1114.88 1509.24 Q1118.89 1509.24 1121.22 1507.13 Q1123.56 1505.02 1123.56 1501.41 Q1123.56 1497.8 1121.22 1495.69 Q1118.89 1493.59 1114.88 1493.59 Q1113.01 1493.59 1111.13 1494 Q1109.28 1494.42 1107.34 1495.3 L1107.34 1477.94 Z" fill="#000000" fill-rule="nonzero" fill-opacity="1" /><path clip-path="url(#clip780)" d="M1147.45 1481.02 Q1143.84 1481.02 1142.01 1484.58 Q1140.21 1488.12 1140.21 1495.25 Q1140.21 1502.36 1142.01 1505.93 Q1143.84 1509.47 1147.45 1509.47 Q1151.09 1509.47 1152.89 1505.93 Q1154.72 1502.36 1154.72 1495.25 Q1154.72 1488.12 1152.89 1484.58 Q1151.09 1481.02 1147.45 1481.02 M1147.45 1477.31 Q1153.26 1477.31 1156.32 1481.92 Q1159.4 1486.5 1159.4 1495.25 Q1159.4 1503.98 1156.32 1508.59 Q1153.26 1513.17 1147.45 1513.17 Q1141.64 1513.17 1138.56 1508.59 Q1135.51 1503.98 1135.51 1495.25 Q1135.51 1486.5 1138.56 1481.92 Q1141.64 1477.31 1147.45 1477.31 Z" fill="#000000" fill-rule="nonzero" fill-opacity="1" /><path clip-path="url(#clip780)" d="M1913.36 1508.56 L1921 1508.56 L1921 1482.2 L1912.69 1483.87 L1912.69 1479.61 L1920.96 1477.94 L1925.63 1477.94 L1925.63 1508.56 L1933.27 1508.56 L1933.27 1512.5 L1913.36 1512.5 L1913.36 1508.56 Z" fill="#000000" fill-rule="nonzero" fill-opacity="1" /><path clip-path="url(#clip780)" d="M1952.71 1481.02 Q1949.1 1481.02 1947.27 1484.58 Q1945.47 1488.12 1945.47 1495.25 Q1945.47 1502.36 1947.27 1505.93 Q1949.1 1509.47 1952.71 1509.47 Q1956.35 1509.47 1958.15 1505.93 Q1959.98 1502.36 1959.98 1495.25 Q1959.98 1488.12 1958.15 1484.58 Q1956.35 1481.02 1952.71 1481.02 M1952.71 1477.31 Q1958.52 1477.31 1961.58 1481.92 Q1964.66 1486.5 1964.66 1495.25 Q1964.66 1503.98 1961.58 1508.59 Q1958.52 1513.17 1952.71 1513.17 Q1946.9 1513.17 1943.83 1508.59 Q1940.77 1503.98 1940.77 1495.25 Q1940.77 1486.5 1943.83 1481.92 Q1946.9 1477.31 1952.71 1477.31 Z" fill="#000000" fill-rule="nonzero" fill-opacity="1" /><path clip-path="url(#clip780)" d="M1982.88 1481.02 Q1979.27 1481.02 1977.44 1484.58 Q1975.63 1488.12 1975.63 1495.25 Q1975.63 1502.36 1977.44 1505.93 Q1979.27 1509.47 1982.88 1509.47 Q1986.51 1509.47 1988.32 1505.93 Q1990.14 1502.36 1990.14 1495.25 Q1990.14 1488.12 1988.32 1484.58 Q1986.51 1481.02 1982.88 1481.02 M1982.88 1477.31 Q1988.69 1477.31 1991.74 1481.92 Q1994.82 1486.5 1994.82 1495.25 Q1994.82 1503.98 1991.74 1508.59 Q1988.69 1513.17 1982.88 1513.17 Q1977.07 1513.17 1973.99 1508.59 Q1970.93 1503.98 1970.93 1495.25 Q1970.93 1486.5 1973.99 1481.92 Q1977.07 1477.31 1982.88 1477.31 Z" fill="#000000" fill-rule="nonzero" fill-opacity="1" /><path clip-path="url(#clip780)" d="M2734.48 1508.56 L2742.12 1508.56 L2742.12 1482.2 L2733.81 1483.87 L2733.81 1479.61 L2742.08 1477.94 L2746.75 1477.94 L2746.75 1508.56 L2754.39 1508.56 L2754.39 1512.5 L2734.48 1512.5 L2734.48 1508.56 Z" fill="#000000" fill-rule="nonzero" fill-opacity="1" /><path clip-path="url(#clip780)" d="M2763.88 1477.94 L2782.24 1477.94 L2782.24 1481.88 L2768.16 1481.88 L2768.16 1490.35 Q2769.18 1490 2770.2 1489.84 Q2771.22 1489.65 2772.24 1489.65 Q2778.02 1489.65 2781.4 1492.82 Q2784.78 1496 2784.78 1501.41 Q2784.78 1506.99 2781.31 1510.09 Q2777.84 1513.17 2771.52 1513.17 Q2769.34 1513.17 2767.08 1512.8 Q2764.83 1512.43 2762.42 1511.69 L2762.42 1506.99 Q2764.51 1508.12 2766.73 1508.68 Q2768.95 1509.24 2771.43 1509.24 Q2775.43 1509.24 2777.77 1507.13 Q2780.11 1505.02 2780.11 1501.41 Q2780.11 1497.8 2777.77 1495.69 Q2775.43 1493.59 2771.43 1493.59 Q2769.55 1493.59 2767.68 1494 Q2765.83 1494.42 2763.88 1495.3 L2763.88 1477.94 Z" fill="#000000" fill-rule="nonzero" fill-opacity="1" /><path clip-path="url(#clip780)" d="M2804 1481.02 Q2800.39 1481.02 2798.56 1484.58 Q2796.75 1488.12 2796.75 1495.25 Q2796.75 1502.36 2798.56 1505.93 Q2800.39 1509.47 2804 1509.47 Q2807.63 1509.47 2809.44 1505.93 Q2811.27 1502.36 2811.27 1495.25 Q2811.27 1488.12 2809.44 1484.58 Q2807.63 1481.02 2804 1481.02 M2804 1477.31 Q2809.81 1477.31 2812.86 1481.92 Q2815.94 1486.5 2815.94 1495.25 Q2815.94 1503.98 2812.86 1508.59 Q2809.81 1513.17 2804 1513.17 Q2798.19 1513.17 2795.11 1508.59 Q2792.05 1503.98 2792.05 1495.25 Q2792.05 1486.5 2795.11 1481.92 Q2798.19 1477.31 2804 1477.31 Z" fill="#000000" fill-rule="nonzero" fill-opacity="1" /><path clip-path="url(#clip780)" d="M1550.63 1553.04 L1590.83 1553.04 L1590.83 1558.45 L1573.96 1558.45 L1573.96 1600.56 L1567.5 1600.56 L1567.5 1558.45 L1550.63 1558.45 L1550.63 1553.04 Z" fill="#000000" fill-rule="nonzero" fill-opacity="1" /><path clip-path="url(#clip780)" d="M1594.78 1564.92 L1600.64 1564.92 L1600.64 1600.56 L1594.78 1600.56 L1594.78 1564.92 M1594.78 1551.04 L1600.64 1551.04 L1600.64 1558.45 L1594.78 1558.45 L1594.78 1551.04 Z" fill="#000000" fill-rule="nonzero" fill-opacity="1" /><path clip-path="url(#clip780)" d="M1640.64 1571.76 Q1642.84 1567.81 1645.9 1565.93 Q1648.95 1564.06 1653.09 1564.06 Q1658.66 1564.06 1661.68 1567.97 Q1664.71 1571.85 1664.71 1579.05 L1664.71 1600.56 L1658.82 1600.56 L1658.82 1579.24 Q1658.82 1574.11 1657 1571.63 Q1655.19 1569.15 1651.47 1569.15 Q1646.91 1569.15 1644.27 1572.17 Q1641.63 1575.2 1641.63 1580.42 L1641.63 1600.56 L1635.74 1600.56 L1635.74 1579.24 Q1635.74 1574.08 1633.93 1571.63 Q1632.11 1569.15 1628.33 1569.15 Q1623.84 1569.15 1621.2 1572.2 Q1618.56 1575.23 1618.56 1580.42 L1618.56 1600.56 L1612.67 1600.56 L1612.67 1564.92 L1618.56 1564.92 L1618.56 1570.45 Q1620.56 1567.18 1623.36 1565.62 Q1626.16 1564.06 1630.01 1564.06 Q1633.9 1564.06 1636.6 1566.03 Q1639.34 1568 1640.64 1571.76 Z" fill="#000000" fill-rule="nonzero" fill-opacity="1" /><path clip-path="url(#clip780)" d="M1706.88 1581.28 L1706.88 1584.14 L1679.95 1584.14 Q1680.33 1590.19 1683.58 1593.37 Q1686.86 1596.52 1692.68 1596.52 Q1696.06 1596.52 1699.21 1595.69 Q1702.39 1594.87 1705.51 1593.21 L1705.51 1598.75 Q1702.36 1600.09 1699.05 1600.79 Q1695.74 1601.49 1692.33 1601.49 Q1683.8 1601.49 1678.81 1596.52 Q1673.84 1591.56 1673.84 1583.09 Q1673.84 1574.34 1678.55 1569.21 Q1683.29 1564.06 1691.32 1564.06 Q1698.51 1564.06 1702.68 1568.7 Q1706.88 1573.32 1706.88 1581.28 M1701.02 1579.56 Q1700.96 1574.75 1698.32 1571.89 Q1695.71 1569.02 1691.38 1569.02 Q1686.48 1569.02 1683.52 1571.79 Q1680.59 1574.56 1680.14 1579.59 L1701.02 1579.56 Z" fill="#000000" fill-rule="nonzero" fill-opacity="1" /><path clip-path="url(#clip780)" d="M1739.22 1565.97 L1739.22 1571.5 Q1736.73 1570.23 1734.06 1569.59 Q1731.39 1568.96 1728.52 1568.96 Q1724.16 1568.96 1721.97 1570.29 Q1719.8 1571.63 1719.8 1574.31 Q1719.8 1576.34 1721.36 1577.52 Q1722.92 1578.67 1727.63 1579.72 L1729.64 1580.16 Q1735.88 1581.5 1738.49 1583.95 Q1741.13 1586.37 1741.13 1590.73 Q1741.13 1595.69 1737.18 1598.59 Q1733.27 1601.49 1726.39 1601.49 Q1723.53 1601.49 1720.41 1600.91 Q1717.32 1600.37 1713.88 1599.26 L1713.88 1593.21 Q1717.13 1594.9 1720.28 1595.76 Q1723.43 1596.59 1726.52 1596.59 Q1730.66 1596.59 1732.88 1595.18 Q1735.11 1593.75 1735.11 1591.17 Q1735.11 1588.79 1733.49 1587.51 Q1731.9 1586.24 1726.45 1585.06 L1724.42 1584.59 Q1718.97 1583.44 1716.56 1581.08 Q1714.14 1578.7 1714.14 1574.56 Q1714.14 1569.53 1717.7 1566.79 Q1721.27 1564.06 1727.82 1564.06 Q1731.07 1564.06 1733.93 1564.53 Q1736.8 1565.01 1739.22 1565.97 Z" fill="#000000" fill-rule="nonzero" fill-opacity="1" /><path clip-path="url(#clip780)" d="M1756.25 1554.79 L1756.25 1564.92 L1768.31 1564.92 L1768.31 1569.47 L1756.25 1569.47 L1756.25 1588.82 Q1756.25 1593.18 1757.42 1594.42 Q1758.63 1595.66 1762.29 1595.66 L1768.31 1595.66 L1768.31 1600.56 L1762.29 1600.56 Q1755.51 1600.56 1752.94 1598.05 Q1750.36 1595.5 1750.36 1588.82 L1750.36 1569.47 L1746.06 1569.47 L1746.06 1564.92 L1750.36 1564.92 L1750.36 1554.79 L1756.25 1554.79 Z" fill="#000000" fill-rule="nonzero" fill-opacity="1" /><path clip-path="url(#clip780)" d="M1806.5 1581.28 L1806.5 1584.14 L1779.58 1584.14 Q1779.96 1590.19 1783.2 1593.37 Q1786.48 1596.52 1792.31 1596.52 Q1795.68 1596.52 1798.83 1595.69 Q1802.02 1594.87 1805.13 1593.21 L1805.13 1598.75 Q1801.98 1600.09 1798.67 1600.79 Q1795.36 1601.49 1791.96 1601.49 Q1783.43 1601.49 1778.43 1596.52 Q1773.46 1591.56 1773.46 1583.09 Q1773.46 1574.34 1778.18 1569.21 Q1782.92 1564.06 1790.94 1564.06 Q1798.13 1564.06 1802.3 1568.7 Q1806.5 1573.32 1806.5 1581.28 M1800.65 1579.56 Q1800.58 1574.75 1797.94 1571.89 Q1795.33 1569.02 1791 1569.02 Q1786.1 1569.02 1783.14 1571.79 Q1780.21 1574.56 1779.77 1579.59 L1800.65 1579.56 Z" fill="#000000" fill-rule="nonzero" fill-opacity="1" /><path clip-path="url(#clip780)" d="M1821.78 1595.22 L1821.78 1614.12 L1815.89 1614.12 L1815.89 1564.92 L1821.78 1564.92 L1821.78 1570.33 Q1823.63 1567.14 1826.43 1565.62 Q1829.26 1564.06 1833.18 1564.06 Q1839.67 1564.06 1843.71 1569.21 Q1847.78 1574.37 1847.78 1582.77 Q1847.78 1591.17 1843.71 1596.33 Q1839.67 1601.49 1833.18 1601.49 Q1829.26 1601.49 1826.43 1599.96 Q1823.63 1598.4 1821.78 1595.22 M1841.71 1582.77 Q1841.71 1576.31 1839.03 1572.65 Q1836.39 1568.96 1831.74 1568.96 Q1827.1 1568.96 1824.42 1572.65 Q1821.78 1576.31 1821.78 1582.77 Q1821.78 1589.23 1824.42 1592.92 Q1827.1 1596.59 1831.74 1596.59 Q1836.39 1596.59 1839.03 1592.92 Q1841.71 1589.23 1841.71 1582.77 Z" fill="#000000" fill-rule="nonzero" fill-opacity="1" /><polyline clip-path="url(#clip780)" style="stroke:#000000; stroke-linecap:round; stroke-linejoin:round; stroke-width:4; stroke-opacity:1; fill:none" points="245.662,1443.7 245.662,108.352 "/>
<polyline clip-path="url(#clip780)" style="stroke:#000000; stroke-linecap:round; stroke-linejoin:round; stroke-width:4; stroke-opacity:1; fill:none" points="245.662,1405.91 264.56,1405.91 "/>
<polyline clip-path="url(#clip780)" style="stroke:#000000; stroke-linecap:round; stroke-linejoin:round; stroke-width:4; stroke-opacity:1; fill:none" points="245.662,1086.17 264.56,1086.17 "/>
<polyline clip-path="url(#clip780)" style="stroke:#000000; stroke-linecap:round; stroke-linejoin:round; stroke-width:4; stroke-opacity:1; fill:none" points="245.662,766.434 264.56,766.434 "/>
<polyline clip-path="url(#clip780)" style="stroke:#000000; stroke-linecap:round; stroke-linejoin:round; stroke-width:4; stroke-opacity:1; fill:none" points="245.662,446.697 264.56,446.697 "/>
<polyline clip-path="url(#clip780)" style="stroke:#000000; stroke-linecap:round; stroke-linejoin:round; stroke-width:4; stroke-opacity:1; fill:none" points="245.662,126.961 264.56,126.961 "/>
<path clip-path="url(#clip780)" d="M110.325 1391.71 Q106.713 1391.71 104.885 1395.27 Q103.079 1398.81 103.079 1405.94 Q103.079 1413.05 104.885 1416.61 Q106.713 1420.15 110.325 1420.15 Q113.959 1420.15 115.764 1416.61 Q117.593 1413.05 117.593 1405.94 Q117.593 1398.81 115.764 1395.27 Q113.959 1391.71 110.325 1391.71 M110.325 1388 Q116.135 1388 119.19 1392.61 Q122.269 1397.19 122.269 1405.94 Q122.269 1414.67 119.19 1419.27 Q116.135 1423.86 110.325 1423.86 Q104.514 1423.86 101.436 1419.27 Q98.3802 1414.67 98.3802 1405.94 Q98.3802 1397.19 101.436 1392.61 Q104.514 1388 110.325 1388 Z" fill="#000000" fill-rule="nonzero" fill-opacity="1" /><path clip-path="url(#clip780)" d="M130.486 1417.31 L135.371 1417.31 L135.371 1423.19 L130.486 1423.19 L130.486 1417.31 Z" fill="#000000" fill-rule="nonzero" fill-opacity="1" /><path clip-path="url(#clip780)" d="M155.556 1391.71 Q151.945 1391.71 150.116 1395.27 Q148.31 1398.81 148.31 1405.94 Q148.31 1413.05 150.116 1416.61 Q151.945 1420.15 155.556 1420.15 Q159.19 1420.15 160.996 1416.61 Q162.824 1413.05 162.824 1405.94 Q162.824 1398.81 160.996 1395.27 Q159.19 1391.71 155.556 1391.71 M155.556 1388 Q161.366 1388 164.421 1392.61 Q167.5 1397.19 167.5 1405.94 Q167.5 1414.67 164.421 1419.27 Q161.366 1423.86 155.556 1423.86 Q149.746 1423.86 146.667 1419.27 Q143.611 1414.67 143.611 1405.94 Q143.611 1397.19 146.667 1392.61 Q149.746 1388 155.556 1388 Z" fill="#000000" fill-rule="nonzero" fill-opacity="1" /><path clip-path="url(#clip780)" d="M185.718 1391.71 Q182.107 1391.71 180.278 1395.27 Q178.472 1398.81 178.472 1405.94 Q178.472 1413.05 180.278 1416.61 Q182.107 1420.15 185.718 1420.15 Q189.352 1420.15 191.157 1416.61 Q192.986 1413.05 192.986 1405.94 Q192.986 1398.81 191.157 1395.27 Q189.352 1391.71 185.718 1391.71 M185.718 1388 Q191.528 1388 194.583 1392.61 Q197.662 1397.19 197.662 1405.94 Q197.662 1414.67 194.583 1419.27 Q191.528 1423.86 185.718 1423.86 Q179.907 1423.86 176.829 1419.27 Q173.773 1414.67 173.773 1405.94 Q173.773 1397.19 176.829 1392.61 Q179.907 1388 185.718 1388 Z" fill="#000000" fill-rule="nonzero" fill-opacity="1" /><path clip-path="url(#clip780)" d="M111.32 1071.97 Q107.709 1071.97 105.88 1075.53 Q104.075 1079.08 104.075 1086.21 Q104.075 1093.31 105.88 1096.88 Q107.709 1100.42 111.32 1100.42 Q114.954 1100.42 116.76 1096.88 Q118.588 1093.31 118.588 1086.21 Q118.588 1079.08 116.76 1075.53 Q114.954 1071.97 111.32 1071.97 M111.32 1068.27 Q117.13 1068.27 120.186 1072.87 Q123.264 1077.46 123.264 1086.21 Q123.264 1094.93 120.186 1099.54 Q117.13 1104.12 111.32 1104.12 Q105.51 1104.12 102.431 1099.54 Q99.3755 1094.93 99.3755 1086.21 Q99.3755 1077.46 102.431 1072.87 Q105.51 1068.27 111.32 1068.27 Z" fill="#000000" fill-rule="nonzero" fill-opacity="1" /><path clip-path="url(#clip780)" d="M131.482 1097.57 L136.366 1097.57 L136.366 1103.45 L131.482 1103.45 L131.482 1097.57 Z" fill="#000000" fill-rule="nonzero" fill-opacity="1" /><path clip-path="url(#clip780)" d="M150.579 1099.52 L166.898 1099.52 L166.898 1103.45 L144.954 1103.45 L144.954 1099.52 Q147.616 1096.76 152.199 1092.13 Q156.806 1087.48 157.986 1086.14 Q160.232 1083.61 161.111 1081.88 Q162.014 1080.12 162.014 1078.43 Q162.014 1075.67 160.07 1073.94 Q158.148 1072.2 155.047 1072.2 Q152.847 1072.2 150.394 1072.96 Q147.963 1073.73 145.185 1075.28 L145.185 1070.56 Q148.01 1069.42 150.463 1068.84 Q152.917 1068.27 154.954 1068.27 Q160.324 1068.27 163.519 1070.95 Q166.713 1073.64 166.713 1078.13 Q166.713 1080.26 165.903 1082.18 Q165.116 1084.08 163.009 1086.67 Q162.431 1087.34 159.329 1090.56 Q156.227 1093.75 150.579 1099.52 Z" fill="#000000" fill-rule="nonzero" fill-opacity="1" /><path clip-path="url(#clip780)" d="M176.759 1068.89 L195.116 1068.89 L195.116 1072.83 L181.042 1072.83 L181.042 1081.3 Q182.06 1080.95 183.079 1080.79 Q184.097 1080.6 185.116 1080.6 Q190.903 1080.6 194.282 1083.77 Q197.662 1086.95 197.662 1092.36 Q197.662 1097.94 194.19 1101.04 Q190.718 1104.12 184.398 1104.12 Q182.222 1104.12 179.954 1103.75 Q177.708 1103.38 175.301 1102.64 L175.301 1097.94 Q177.384 1099.08 179.607 1099.63 Q181.829 1100.19 184.306 1100.19 Q188.31 1100.19 190.648 1098.08 Q192.986 1095.97 192.986 1092.36 Q192.986 1088.75 190.648 1086.64 Q188.31 1084.54 184.306 1084.54 Q182.431 1084.54 180.556 1084.96 Q178.704 1085.37 176.759 1086.25 L176.759 1068.89 Z" fill="#000000" fill-rule="nonzero" fill-opacity="1" /><path clip-path="url(#clip780)" d="M110.325 752.233 Q106.713 752.233 104.885 755.797 Q103.079 759.339 103.079 766.469 Q103.079 773.575 104.885 777.14 Q106.713 780.681 110.325 780.681 Q113.959 780.681 115.764 777.14 Q117.593 773.575 117.593 766.469 Q117.593 759.339 115.764 755.797 Q113.959 752.233 110.325 752.233 M110.325 748.529 Q116.135 748.529 119.19 753.135 Q122.269 757.719 122.269 766.469 Q122.269 775.195 119.19 779.802 Q116.135 784.385 110.325 784.385 Q104.514 784.385 101.436 779.802 Q98.3802 775.195 98.3802 766.469 Q98.3802 757.719 101.436 753.135 Q104.514 748.529 110.325 748.529 Z" fill="#000000" fill-rule="nonzero" fill-opacity="1" /><path clip-path="url(#clip780)" d="M130.486 777.834 L135.371 777.834 L135.371 783.714 L130.486 783.714 L130.486 777.834 Z" fill="#000000" fill-rule="nonzero" fill-opacity="1" /><path clip-path="url(#clip780)" d="M145.602 749.154 L163.959 749.154 L163.959 753.089 L149.885 753.089 L149.885 761.561 Q150.903 761.214 151.922 761.052 Q152.94 760.867 153.959 760.867 Q159.746 760.867 163.125 764.038 Q166.505 767.209 166.505 772.626 Q166.505 778.205 163.033 781.306 Q159.56 784.385 153.241 784.385 Q151.065 784.385 148.797 784.015 Q146.551 783.644 144.144 782.904 L144.144 778.205 Q146.227 779.339 148.449 779.894 Q150.672 780.45 153.148 780.45 Q157.153 780.45 159.491 778.344 Q161.829 776.237 161.829 772.626 Q161.829 769.015 159.491 766.908 Q157.153 764.802 153.148 764.802 Q151.273 764.802 149.398 765.219 Q147.547 765.635 145.602 766.515 L145.602 749.154 Z" fill="#000000" fill-rule="nonzero" fill-opacity="1" /><path clip-path="url(#clip780)" d="M185.718 752.233 Q182.107 752.233 180.278 755.797 Q178.472 759.339 178.472 766.469 Q178.472 773.575 180.278 777.14 Q182.107 780.681 185.718 780.681 Q189.352 780.681 191.157 777.14 Q192.986 773.575 192.986 766.469 Q192.986 759.339 191.157 755.797 Q189.352 752.233 185.718 752.233 M185.718 748.529 Q191.528 748.529 194.583 753.135 Q197.662 757.719 197.662 766.469 Q197.662 775.195 194.583 779.802 Q191.528 784.385 185.718 784.385 Q179.907 784.385 176.829 779.802 Q173.773 775.195 173.773 766.469 Q173.773 757.719 176.829 753.135 Q179.907 748.529 185.718 748.529 Z" fill="#000000" fill-rule="nonzero" fill-opacity="1" /><path clip-path="url(#clip780)" d="M111.32 432.496 Q107.709 432.496 105.88 436.061 Q104.075 439.602 104.075 446.732 Q104.075 453.839 105.88 457.403 Q107.709 460.945 111.32 460.945 Q114.954 460.945 116.76 457.403 Q118.588 453.839 118.588 446.732 Q118.588 439.602 116.76 436.061 Q114.954 432.496 111.32 432.496 M111.32 428.792 Q117.13 428.792 120.186 433.399 Q123.264 437.982 123.264 446.732 Q123.264 455.459 120.186 460.065 Q117.13 464.649 111.32 464.649 Q105.51 464.649 102.431 460.065 Q99.3755 455.459 99.3755 446.732 Q99.3755 437.982 102.431 433.399 Q105.51 428.792 111.32 428.792 Z" fill="#000000" fill-rule="nonzero" fill-opacity="1" /><path clip-path="url(#clip780)" d="M131.482 458.098 L136.366 458.098 L136.366 463.977 L131.482 463.977 L131.482 458.098 Z" fill="#000000" fill-rule="nonzero" fill-opacity="1" /><path clip-path="url(#clip780)" d="M145.371 429.417 L167.593 429.417 L167.593 431.408 L155.047 463.977 L150.162 463.977 L161.968 433.353 L145.371 433.353 L145.371 429.417 Z" fill="#000000" fill-rule="nonzero" fill-opacity="1" /><path clip-path="url(#clip780)" d="M176.759 429.417 L195.116 429.417 L195.116 433.353 L181.042 433.353 L181.042 441.825 Q182.06 441.477 183.079 441.315 Q184.097 441.13 185.116 441.13 Q190.903 441.13 194.282 444.302 Q197.662 447.473 197.662 452.889 Q197.662 458.468 194.19 461.57 Q190.718 464.649 184.398 464.649 Q182.222 464.649 179.954 464.278 Q177.708 463.908 175.301 463.167 L175.301 458.468 Q177.384 459.602 179.607 460.158 Q181.829 460.713 184.306 460.713 Q188.31 460.713 190.648 458.607 Q192.986 456.501 192.986 452.889 Q192.986 449.278 190.648 447.172 Q188.31 445.065 184.306 445.065 Q182.431 445.065 180.556 445.482 Q178.704 445.899 176.759 446.778 L176.759 429.417 Z" fill="#000000" fill-rule="nonzero" fill-opacity="1" /><path clip-path="url(#clip780)" d="M101.135 140.306 L108.774 140.306 L108.774 113.94 L100.463 115.607 L100.463 111.347 L108.727 109.681 L113.403 109.681 L113.403 140.306 L121.042 140.306 L121.042 144.241 L101.135 144.241 L101.135 140.306 Z" fill="#000000" fill-rule="nonzero" fill-opacity="1" /><path clip-path="url(#clip780)" d="M130.486 138.361 L135.371 138.361 L135.371 144.241 L130.486 144.241 L130.486 138.361 Z" fill="#000000" fill-rule="nonzero" fill-opacity="1" /><path clip-path="url(#clip780)" d="M155.556 112.759 Q151.945 112.759 150.116 116.324 Q148.31 119.866 148.31 126.996 Q148.31 134.102 150.116 137.667 Q151.945 141.208 155.556 141.208 Q159.19 141.208 160.996 137.667 Q162.824 134.102 162.824 126.996 Q162.824 119.866 160.996 116.324 Q159.19 112.759 155.556 112.759 M155.556 109.056 Q161.366 109.056 164.421 113.662 Q167.5 118.246 167.5 126.996 Q167.5 135.722 164.421 140.329 Q161.366 144.912 155.556 144.912 Q149.746 144.912 146.667 140.329 Q143.611 135.722 143.611 126.996 Q143.611 118.246 146.667 113.662 Q149.746 109.056 155.556 109.056 Z" fill="#000000" fill-rule="nonzero" fill-opacity="1" /><path clip-path="url(#clip780)" d="M185.718 112.759 Q182.107 112.759 180.278 116.324 Q178.472 119.866 178.472 126.996 Q178.472 134.102 180.278 137.667 Q182.107 141.208 185.718 141.208 Q189.352 141.208 191.157 137.667 Q192.986 134.102 192.986 126.996 Q192.986 119.866 191.157 116.324 Q189.352 112.759 185.718 112.759 M185.718 109.056 Q191.528 109.056 194.583 113.662 Q197.662 118.246 197.662 126.996 Q197.662 135.722 194.583 140.329 Q191.528 144.912 185.718 144.912 Q179.907 144.912 176.829 140.329 Q173.773 135.722 173.773 126.996 Q173.773 118.246 176.829 113.662 Q179.907 109.056 185.718 109.056 Z" fill="#000000" fill-rule="nonzero" fill-opacity="1" /><path clip-path="url(#clip780)" d="M36.1242 845.396 L-11.3958 863.539 L-11.3958 856.823 L28.6126 841.768 L-11.3958 826.681 L-11.3958 819.997 L36.1242 838.108 L36.1242 845.396 Z" fill="#000000" fill-rule="nonzero" fill-opacity="1" /><path clip-path="url(#clip780)" d="M18.2047 802.173 Q18.2047 809.271 19.8279 812.008 Q21.4512 814.745 25.3661 814.745 Q28.4853 814.745 30.3314 812.708 Q32.1456 810.64 32.1456 807.107 Q32.1456 802.237 28.7081 799.309 Q25.2388 796.349 19.5097 796.349 L18.2047 796.349 L18.2047 802.173 M15.7857 790.492 L36.1242 790.492 L36.1242 796.349 L30.7133 796.349 Q33.9598 798.354 35.5194 801.346 Q37.0472 804.337 37.0472 808.666 Q37.0472 814.141 33.9916 817.387 Q30.9043 820.602 25.7481 820.602 Q19.7325 820.602 16.6769 816.591 Q13.6214 812.549 13.6214 804.56 L13.6214 796.349 L13.0485 796.349 Q9.00625 796.349 6.81008 799.022 Q4.58208 801.664 4.58208 806.47 Q4.58208 809.526 5.31414 812.422 Q6.04619 815.318 7.51031 817.992 L2.09946 817.992 Q0.858143 814.777 0.253401 811.754 Q-0.38317 808.73 -0.38317 805.865 Q-0.38317 798.131 3.62723 794.311 Q7.63762 790.492 15.7857 790.492 Z" fill="#000000" fill-rule="nonzero" fill-opacity="1" /><path clip-path="url(#clip780)" d="M-13.401 778.429 L-13.401 772.573 L36.1242 772.573 L36.1242 778.429 L-13.401 778.429 Z" fill="#000000" fill-rule="nonzero" fill-opacity="1" /><path clip-path="url(#clip780)" d="M22.0559 760.923 L0.4762 760.923 L0.4762 755.067 L21.8331 755.067 Q26.8939 755.067 29.4402 753.094 Q31.9546 751.12 31.9546 747.173 Q31.9546 742.431 28.9309 739.694 Q25.9072 736.925 20.6873 736.925 L0.4762 736.925 L0.4762 731.068 L36.1242 731.068 L36.1242 736.925 L30.6496 736.925 Q33.8962 739.057 35.4876 741.89 Q37.0472 744.691 37.0472 748.415 Q37.0472 754.558 33.2278 757.74 Q29.4083 760.923 22.0559 760.923 M-0.38317 746.187 L-0.38317 746.187 Z" fill="#000000" fill-rule="nonzero" fill-opacity="1" /><path clip-path="url(#clip780)" d="M16.8361 688.513 L19.7006 688.513 L19.7006 715.44 Q25.7481 715.058 28.9309 711.812 Q32.0819 708.534 32.0819 702.709 Q32.0819 699.335 31.2544 696.184 Q30.4269 693.001 28.7718 689.882 L34.3099 689.882 Q35.6467 693.033 36.347 696.343 Q37.0472 699.653 37.0472 703.059 Q37.0472 711.589 32.0819 716.586 Q27.1167 721.551 18.6503 721.551 Q9.89745 721.551 4.77305 716.841 Q-0.38317 712.098 -0.38317 704.078 Q-0.38317 696.884 4.2638 692.715 Q8.87893 688.513 16.8361 688.513 M15.1173 694.37 Q10.3112 694.434 7.44665 697.075 Q4.58208 699.685 4.58208 704.014 Q4.58208 708.916 7.35116 711.876 Q10.1202 714.804 15.1492 715.249 L15.1173 694.37 Z" fill="#000000" fill-rule="nonzero" fill-opacity="1" /><path clip-path="url(#clip780)" d="M1164.59 18.8205 L1164.59 41.5461 L1174.88 41.5461 Q1180.59 41.5461 1183.71 38.5889 Q1186.83 35.6318 1186.83 30.163 Q1186.83 24.7348 1183.71 21.7777 Q1180.59 18.8205 1174.88 18.8205 L1164.59 18.8205 M1156.41 12.096 L1174.88 12.096 Q1185.05 12.096 1190.23 16.714 Q1195.46 21.2916 1195.46 30.163 Q1195.46 39.1155 1190.23 43.6931 Q1185.05 48.2706 1174.88 48.2706 L1164.59 48.2706 L1164.59 72.576 L1156.41 72.576 L1156.41 12.096 Z" fill="#000000" fill-rule="nonzero" fill-opacity="1" /><path clip-path="url(#clip780)" d="M1230.94 34.1734 Q1229.69 33.4443 1228.19 33.1202 Q1226.73 32.7556 1224.95 32.7556 Q1218.63 32.7556 1215.23 36.8875 Q1211.86 40.9789 1211.86 48.6757 L1211.86 72.576 L1204.37 72.576 L1204.37 27.2059 L1211.86 27.2059 L1211.86 34.2544 Q1214.21 30.1225 1217.98 28.1376 Q1221.75 26.1121 1227.14 26.1121 Q1227.91 26.1121 1228.84 26.2337 Q1229.77 26.3147 1230.9 26.5172 L1230.94 34.1734 Z" fill="#000000" fill-rule="nonzero" fill-opacity="1" /><path clip-path="url(#clip780)" d="M1254.52 32.4315 Q1248.53 32.4315 1245.04 37.1306 Q1241.56 41.7891 1241.56 49.9314 Q1241.56 58.0738 1245 62.7728 Q1248.49 67.4314 1254.52 67.4314 Q1260.48 67.4314 1263.96 62.7323 Q1267.44 58.0333 1267.44 49.9314 Q1267.44 41.8701 1263.96 37.1711 Q1260.48 32.4315 1254.52 32.4315 M1254.52 26.1121 Q1264.24 26.1121 1269.79 32.4315 Q1275.34 38.7509 1275.34 49.9314 Q1275.34 61.0714 1269.79 67.4314 Q1264.24 73.7508 1254.52 73.7508 Q1244.76 73.7508 1239.21 67.4314 Q1233.7 61.0714 1233.7 49.9314 Q1233.7 38.7509 1239.21 32.4315 Q1244.76 26.1121 1254.52 26.1121 Z" fill="#000000" fill-rule="nonzero" fill-opacity="1" /><path clip-path="url(#clip780)" d="M1310.67 9.54393 L1310.67 15.7418 L1303.54 15.7418 Q1299.53 15.7418 1297.95 17.3622 Q1296.41 18.9825 1296.41 23.1955 L1296.41 27.2059 L1308.68 27.2059 L1308.68 32.9987 L1296.41 32.9987 L1296.41 72.576 L1288.91 72.576 L1288.91 32.9987 L1281.78 32.9987 L1281.78 27.2059 L1288.91 27.2059 L1288.91 24.0462 Q1288.91 16.471 1292.44 13.0277 Q1295.96 9.54393 1303.62 9.54393 L1310.67 9.54393 Z" fill="#000000" fill-rule="nonzero" fill-opacity="1" /><path clip-path="url(#clip780)" d="M1316.9 27.2059 L1324.36 27.2059 L1324.36 72.576 L1316.9 72.576 L1316.9 27.2059 M1316.9 9.54393 L1324.36 9.54393 L1324.36 18.9825 L1316.9 18.9825 L1316.9 9.54393 Z" fill="#000000" fill-rule="nonzero" fill-opacity="1" /><path clip-path="url(#clip780)" d="M1339.95 9.54393 L1347.41 9.54393 L1347.41 72.576 L1339.95 72.576 L1339.95 9.54393 Z" fill="#000000" fill-rule="nonzero" fill-opacity="1" /><path clip-path="url(#clip780)" d="M1401.81 48.0275 L1401.81 51.6733 L1367.54 51.6733 Q1368.03 59.3701 1372.16 63.421 Q1376.33 67.4314 1383.74 67.4314 Q1388.04 67.4314 1392.05 66.3781 Q1396.1 65.3249 1400.07 63.2184 L1400.07 70.267 Q1396.06 71.9684 1391.85 72.8596 Q1387.63 73.7508 1383.3 73.7508 Q1372.44 73.7508 1366.08 67.4314 Q1359.76 61.1119 1359.76 50.3365 Q1359.76 39.1965 1365.76 32.6746 Q1371.79 26.1121 1382 26.1121 Q1391.16 26.1121 1396.46 32.0264 Q1401.81 37.9003 1401.81 48.0275 M1394.36 45.84 Q1394.28 39.7232 1390.91 36.0774 Q1387.59 32.4315 1382.08 32.4315 Q1375.85 32.4315 1372.08 35.9558 Q1368.35 39.4801 1367.78 45.8805 L1394.36 45.84 Z" fill="#000000" fill-rule="nonzero" fill-opacity="1" /><path clip-path="url(#clip780)" d="M1442.97 28.5427 L1442.97 35.5912 Q1439.81 33.9709 1436.41 33.1607 Q1433 32.3505 1429.36 32.3505 Q1423.81 32.3505 1421.01 34.0519 Q1418.26 35.7533 1418.26 39.156 Q1418.26 41.7486 1420.24 43.2475 Q1422.23 44.7058 1428.22 46.0426 L1430.78 46.6097 Q1438.72 48.3111 1442.04 51.4303 Q1445.4 54.509 1445.4 60.0587 Q1445.4 66.3781 1440.38 70.0644 Q1435.39 73.7508 1426.64 73.7508 Q1423 73.7508 1419.03 73.0216 Q1415.1 72.3329 1410.72 70.9151 L1410.72 63.2184 Q1414.86 65.3654 1418.87 66.4591 Q1422.88 67.5124 1426.81 67.5124 Q1432.07 67.5124 1434.91 65.73 Q1437.74 63.9071 1437.74 60.6258 Q1437.74 57.5877 1435.68 55.9673 Q1433.65 54.3469 1426.72 52.8481 L1424.13 52.2405 Q1417.21 50.7821 1414.13 47.7845 Q1411.05 44.7463 1411.05 39.4801 Q1411.05 33.0797 1415.58 29.5959 Q1420.12 26.1121 1428.47 26.1121 Q1432.6 26.1121 1436.24 26.7198 Q1439.89 27.3274 1442.97 28.5427 Z" fill="#000000" fill-rule="nonzero" fill-opacity="1" /><path clip-path="url(#clip780)" d="M1483.64 27.2059 L1491.09 27.2059 L1491.09 72.576 L1483.64 72.576 L1483.64 27.2059 M1483.64 9.54393 L1491.09 9.54393 L1491.09 18.9825 L1483.64 18.9825 L1483.64 9.54393 Z" fill="#000000" fill-rule="nonzero" fill-opacity="1" /><path clip-path="url(#clip780)" d="M1544.4 45.1919 L1544.4 72.576 L1536.95 72.576 L1536.95 45.4349 Q1536.95 38.994 1534.44 35.7938 Q1531.93 32.5936 1526.9 32.5936 Q1520.87 32.5936 1517.38 36.4419 Q1513.9 40.2903 1513.9 46.9338 L1513.9 72.576 L1506.41 72.576 L1506.41 27.2059 L1513.9 27.2059 L1513.9 34.2544 Q1516.57 30.163 1520.18 28.1376 Q1523.83 26.1121 1528.56 26.1121 Q1536.38 26.1121 1540.39 30.9732 Q1544.4 35.7938 1544.4 45.1919 Z" fill="#000000" fill-rule="nonzero" fill-opacity="1" /><path clip-path="url(#clip780)" d="M1593.01 14.324 L1593.01 27.2059 L1608.37 27.2059 L1608.37 32.9987 L1593.01 32.9987 L1593.01 57.6282 Q1593.01 63.1779 1594.51 64.7578 Q1596.05 66.3376 1600.71 66.3376 L1608.37 66.3376 L1608.37 72.576 L1600.71 72.576 Q1592.08 72.576 1588.8 69.3758 Q1585.52 66.1351 1585.52 57.6282 L1585.52 32.9987 L1580.05 32.9987 L1580.05 27.2059 L1585.52 27.2059 L1585.52 14.324 L1593.01 14.324 Z" fill="#000000" fill-rule="nonzero" fill-opacity="1" /><path clip-path="url(#clip780)" d="M1655.88 45.1919 L1655.88 72.576 L1648.43 72.576 L1648.43 45.4349 Q1648.43 38.994 1645.92 35.7938 Q1643.41 32.5936 1638.38 32.5936 Q1632.35 32.5936 1628.87 36.4419 Q1625.38 40.2903 1625.38 46.9338 L1625.38 72.576 L1617.89 72.576 L1617.89 9.54393 L1625.38 9.54393 L1625.38 34.2544 Q1628.05 30.163 1631.66 28.1376 Q1635.31 26.1121 1640.05 26.1121 Q1647.86 26.1121 1651.87 30.9732 Q1655.88 35.7938 1655.88 45.1919 Z" fill="#000000" fill-rule="nonzero" fill-opacity="1" /><path clip-path="url(#clip780)" d="M1709.56 48.0275 L1709.56 51.6733 L1675.29 51.6733 Q1675.77 59.3701 1679.91 63.421 Q1684.08 67.4314 1691.49 67.4314 Q1695.79 67.4314 1699.8 66.3781 Q1703.85 65.3249 1707.82 63.2184 L1707.82 70.267 Q1703.81 71.9684 1699.59 72.8596 Q1695.38 73.7508 1691.05 73.7508 Q1680.19 73.7508 1673.83 67.4314 Q1667.51 61.1119 1667.51 50.3365 Q1667.51 39.1965 1673.51 32.6746 Q1679.54 26.1121 1689.75 26.1121 Q1698.91 26.1121 1704.21 32.0264 Q1709.56 37.9003 1709.56 48.0275 M1702.11 45.84 Q1702.02 39.7232 1698.66 36.0774 Q1695.34 32.4315 1689.83 32.4315 Q1683.59 32.4315 1679.83 35.9558 Q1676.1 39.4801 1675.53 45.8805 L1702.11 45.84 Z" fill="#000000" fill-rule="nonzero" fill-opacity="1" /><path clip-path="url(#clip780)" d="M1748.49 12.096 L1759.51 12.096 L1786.32 62.6918 L1786.32 12.096 L1794.26 12.096 L1794.26 72.576 L1783.24 72.576 L1756.43 21.9802 L1756.43 72.576 L1748.49 72.576 L1748.49 12.096 Z" fill="#000000" fill-rule="nonzero" fill-opacity="1" /><path clip-path="url(#clip780)" d="M1849.03 48.0275 L1849.03 51.6733 L1814.76 51.6733 Q1815.25 59.3701 1819.38 63.421 Q1823.55 67.4314 1830.96 67.4314 Q1835.26 67.4314 1839.27 66.3781 Q1843.32 65.3249 1847.29 63.2184 L1847.29 70.267 Q1843.28 71.9684 1839.07 72.8596 Q1834.85 73.7508 1830.52 73.7508 Q1819.66 73.7508 1813.3 67.4314 Q1806.98 61.1119 1806.98 50.3365 Q1806.98 39.1965 1812.98 32.6746 Q1819.01 26.1121 1829.22 26.1121 Q1838.38 26.1121 1843.68 32.0264 Q1849.03 37.9003 1849.03 48.0275 M1841.58 45.84 Q1841.5 39.7232 1838.13 36.0774 Q1834.81 32.4315 1829.3 32.4315 Q1823.07 32.4315 1819.3 35.9558 Q1815.57 39.4801 1815 45.8805 L1841.58 45.84 Z" fill="#000000" fill-rule="nonzero" fill-opacity="1" /><path clip-path="url(#clip780)" d="M1868.64 14.324 L1868.64 27.2059 L1883.99 27.2059 L1883.99 32.9987 L1868.64 32.9987 L1868.64 57.6282 Q1868.64 63.1779 1870.14 64.7578 Q1871.68 66.3376 1876.33 66.3376 L1883.99 66.3376 L1883.99 72.576 L1876.33 72.576 Q1867.71 72.576 1864.43 69.3758 Q1861.14 66.1351 1861.14 57.6282 L1861.14 32.9987 L1855.68 32.9987 L1855.68 27.2059 L1861.14 27.2059 L1861.14 14.324 L1868.64 14.324 Z" fill="#000000" fill-rule="nonzero" fill-opacity="1" /><path clip-path="url(#clip780)" d="M1931.51 45.1919 L1931.51 72.576 L1924.05 72.576 L1924.05 45.4349 Q1924.05 38.994 1921.54 35.7938 Q1919.03 32.5936 1914.01 32.5936 Q1907.97 32.5936 1904.49 36.4419 Q1901 40.2903 1901 46.9338 L1901 72.576 L1893.51 72.576 L1893.51 9.54393 L1901 9.54393 L1901 34.2544 Q1903.68 30.163 1907.28 28.1376 Q1910.93 26.1121 1915.67 26.1121 Q1923.49 26.1121 1927.5 30.9732 Q1931.51 35.7938 1931.51 45.1919 Z" fill="#000000" fill-rule="nonzero" fill-opacity="1" /><path clip-path="url(#clip780)" d="M1985.18 48.0275 L1985.18 51.6733 L1950.91 51.6733 Q1951.4 59.3701 1955.53 63.421 Q1959.7 67.4314 1967.12 67.4314 Q1971.41 67.4314 1975.42 66.3781 Q1979.47 65.3249 1983.44 63.2184 L1983.44 70.267 Q1979.43 71.9684 1975.22 72.8596 Q1971 73.7508 1966.67 73.7508 Q1955.81 73.7508 1949.45 67.4314 Q1943.13 61.1119 1943.13 50.3365 Q1943.13 39.1965 1949.13 32.6746 Q1955.17 26.1121 1965.37 26.1121 Q1974.53 26.1121 1979.84 32.0264 Q1985.18 37.9003 1985.18 48.0275 M1977.73 45.84 Q1977.65 39.7232 1974.29 36.0774 Q1970.96 32.4315 1965.45 32.4315 Q1959.22 32.4315 1955.45 35.9558 Q1951.72 39.4801 1951.15 45.8805 L1977.73 45.84 Z" fill="#000000" fill-rule="nonzero" fill-opacity="1" /><path clip-path="url(#clip780)" d="M2023.71 34.1734 Q2022.45 33.4443 2020.95 33.1202 Q2019.49 32.7556 2017.71 32.7556 Q2011.39 32.7556 2007.99 36.8875 Q2004.63 40.9789 2004.63 48.6757 L2004.63 72.576 L1997.13 72.576 L1997.13 27.2059 L2004.63 27.2059 L2004.63 34.2544 Q2006.98 30.1225 2010.74 28.1376 Q2014.51 26.1121 2019.9 26.1121 Q2020.67 26.1121 2021.6 26.2337 Q2022.53 26.3147 2023.67 26.5172 L2023.71 34.1734 Z" fill="#000000" fill-rule="nonzero" fill-opacity="1" /><path clip-path="url(#clip780)" d="M2031.52 9.54393 L2038.98 9.54393 L2038.98 72.576 L2031.52 72.576 L2031.52 9.54393 Z" fill="#000000" fill-rule="nonzero" fill-opacity="1" /><path clip-path="url(#clip780)" d="M2075.19 49.7694 Q2066.16 49.7694 2062.68 51.8354 Q2059.19 53.9013 2059.19 58.8839 Q2059.19 62.8538 2061.79 65.2034 Q2064.42 67.5124 2068.91 67.5124 Q2075.11 67.5124 2078.84 63.1374 Q2082.61 58.7219 2082.61 51.4303 L2082.61 49.7694 L2075.19 49.7694 M2090.06 46.6907 L2090.06 72.576 L2082.61 72.576 L2082.61 65.6895 Q2080.05 69.8214 2076.25 71.8063 Q2072.44 73.7508 2066.93 73.7508 Q2059.96 73.7508 2055.83 69.8619 Q2051.74 65.9325 2051.74 59.3701 Q2051.74 51.7138 2056.84 47.825 Q2061.99 43.9361 2072.16 43.9361 L2082.61 43.9361 L2082.61 43.2069 Q2082.61 38.0623 2079.2 35.2672 Q2075.84 32.4315 2069.72 32.4315 Q2065.84 32.4315 2062.15 33.3632 Q2058.46 34.295 2055.06 36.1584 L2055.06 29.2718 Q2059.15 27.692 2063 26.9223 Q2066.85 26.1121 2070.49 26.1121 Q2080.34 26.1121 2085.2 31.2163 Q2090.06 36.3204 2090.06 46.6907 Z" fill="#000000" fill-rule="nonzero" fill-opacity="1" /><path clip-path="url(#clip780)" d="M2143.13 45.1919 L2143.13 72.576 L2135.67 72.576 L2135.67 45.4349 Q2135.67 38.994 2133.16 35.7938 Q2130.65 32.5936 2125.63 32.5936 Q2119.59 32.5936 2116.11 36.4419 Q2112.62 40.2903 2112.62 46.9338 L2112.62 72.576 L2105.13 72.576 L2105.13 27.2059 L2112.62 27.2059 L2112.62 34.2544 Q2115.3 30.163 2118.9 28.1376 Q2122.55 26.1121 2127.29 26.1121 Q2135.11 26.1121 2139.12 30.9732 Q2143.13 35.7938 2143.13 45.1919 Z" fill="#000000" fill-rule="nonzero" fill-opacity="1" /><path clip-path="url(#clip780)" d="M2187.85 34.0924 L2187.85 9.54393 L2195.3 9.54393 L2195.3 72.576 L2187.85 72.576 L2187.85 65.7705 Q2185.5 69.8214 2181.89 71.8063 Q2178.33 73.7508 2173.31 73.7508 Q2165.08 73.7508 2159.9 67.1883 Q2154.75 60.6258 2154.75 49.9314 Q2154.75 39.2371 2159.9 32.6746 Q2165.08 26.1121 2173.31 26.1121 Q2178.33 26.1121 2181.89 28.0971 Q2185.5 30.0415 2187.85 34.0924 M2162.45 49.9314 Q2162.45 58.1548 2165.81 62.8538 Q2169.22 67.5124 2175.13 67.5124 Q2181.04 67.5124 2184.45 62.8538 Q2187.85 58.1548 2187.85 49.9314 Q2187.85 41.7081 2184.45 37.0496 Q2181.04 32.3505 2175.13 32.3505 Q2169.22 32.3505 2165.81 37.0496 Q2162.45 41.7081 2162.45 49.9314 Z" fill="#000000" fill-rule="nonzero" fill-opacity="1" /><path clip-path="url(#clip780)" d="M2239.58 28.5427 L2239.58 35.5912 Q2236.42 33.9709 2233.02 33.1607 Q2229.61 32.3505 2225.97 32.3505 Q2220.42 32.3505 2217.62 34.0519 Q2214.87 35.7533 2214.87 39.156 Q2214.87 41.7486 2216.85 43.2475 Q2218.84 44.7058 2224.83 46.0426 L2227.39 46.6097 Q2235.33 48.3111 2238.65 51.4303 Q2242.01 54.509 2242.01 60.0587 Q2242.01 66.3781 2236.99 70.0644 Q2232 73.7508 2223.25 73.7508 Q2219.61 73.7508 2215.64 73.0216 Q2211.71 72.3329 2207.33 70.9151 L2207.33 63.2184 Q2211.47 65.3654 2215.48 66.4591 Q2219.49 67.5124 2223.42 67.5124 Q2228.68 67.5124 2231.52 65.73 Q2234.35 63.9071 2234.35 60.6258 Q2234.35 57.5877 2232.29 55.9673 Q2230.26 54.3469 2223.34 52.8481 L2220.74 52.2405 Q2213.82 50.7821 2210.74 47.7845 Q2207.66 44.7463 2207.66 39.4801 Q2207.66 33.0797 2212.2 29.5959 Q2216.73 26.1121 2225.08 26.1121 Q2229.21 26.1121 2232.85 26.7198 Q2236.5 27.3274 2239.58 28.5427 Z" fill="#000000" fill-rule="nonzero" fill-opacity="1" /><polyline clip-path="url(#clip782)" style="stroke:#009af9; stroke-linecap:round; stroke-linejoin:round; stroke-width:4; stroke-opacity:1; fill:none" points="327.938,1405.91 344.361,1405.91 360.783,1405.91 377.205,1405.91 393.628,1405.91 410.05,1405.91 426.473,1405.91 442.895,1405.91 459.318,1386.72 475.74,1234.53 492.162,1170.58 508.585,1168.02 525.007,1170.58 541.43,1243.48 557.852,1324.05 574.274,1399.51 590.697,1405.91 607.119,1405.91 623.542,1405.91 639.964,1405.91 656.386,1405.91 672.809,1405.91 689.231,1405.91 705.654,1405.91 722.076,1405.91 738.498,1405.91 754.921,1405.91 771.343,1405.91 787.766,1405.91 804.188,1405.91 820.61,1405.91 837.033,1405.91 853.455,1400.79 869.878,1270.34 886.3,1043.97 902.722,891.771 919.145,926.302 935.567,1006.88 951.99,1191.04 968.412,1381.61 984.834,1405.91 1001.26,1405.91 1017.68,1405.91 1034.1,1405.91 1050.52,1405.91 1066.95,1405.91 1083.37,1405.91 1099.79,1405.91 1116.21,1405.91 1132.64,1405.91 1149.06,1405.91 1165.48,1405.91 1181.9,1405.91 1198.33,1405.91 1214.75,1405.91 1231.17,1405.91 1247.59,1404.63 1264.02,1379.05 1280.44,1353.47 1296.86,1303.59 1313.28,1302.31 1329.7,1350.91 1346.13,1380.33 1362.55,1405.91 1378.97,1405.91 1395.39,1405.91 1411.82,1405.91 1428.24,1405.91 1444.66,1405.91 1461.08,1405.91 1477.51,1405.91 1493.93,1405.91 1510.35,1405.91 1526.77,1405.91 1543.2,1405.91 1559.62,1405.91 1576.04,1405.91 1592.46,1405.91 1608.89,1405.91 1625.31,1405.91 1641.73,1371.38 1658.15,1153.95 1674.58,1014.55 1691,931.418 1707.42,917.35 1723.84,990.249 1740.26,1180.81 1756.69,1375.21 1773.11,1405.91 1789.53,1405.91 1805.95,1405.91 1822.38,1405.91 1838.8,1405.91 1855.22,1405.91 1871.64,1405.91 1888.07,1405.91 1904.49,1405.91 1920.91,1405.91 1937.33,1405.91 1953.76,1405.91 1970.18,1405.91 1986.6,1405.91 2003.02,1405.91 2019.45,1405.91 2035.87,1391.84 2052.29,1280.57 2068.71,1206.39 2085.14,1230.69 2101.56,1307.43 2117.98,1348.35 2134.4,1384.16 2150.83,1404.63 2167.25,1405.91 2183.67,1405.91 2200.09,1405.91 2216.51,1405.91 2232.94,1405.91 2249.36,1405.91 2265.78,1405.91 2282.2,1405.91 2298.63,1405.91 2315.05,1405.91 2331.47,1405.91 2347.89,1405.91 2364.32,1405.91 2380.74,1405.91 2397.16,1405.91 2413.58,1405.91 2430.01,1388 2446.43,1243.48 2462.85,1125.82 2479.27,1124.54 2495.7,1148.84 2512.12,1224.3 2528.54,1327.89 2544.96,1400.79 2561.39,1405.91 2577.81,1405.91 2594.23,1405.91 2610.65,1405.91 2627.07,1405.91 2643.5,1405.91 2659.92,1405.91 2676.34,1405.91 2692.76,1405.91 2709.19,1405.91 2725.61,1405.91 2742.03,1405.91 2758.45,1405.91 2774.88,1405.91 2791.3,1405.91 2807.72,1405.91 2824.14,1364.98 2840.57,1100.24 2856.99,918.628 2873.41,872.586 2889.83,919.907 2906.26,1022.22 2922.68,1244.76 2939.1,1389.28 2955.52,1405.91 2971.95,1405.91 2988.37,1405.91 3004.79,1405.91 3021.21,1405.91 3037.63,1405.91 3054.06,1405.91 3070.48,1405.91 "/>
<polyline clip-path="url(#clip782)" style="stroke:#e26f46; stroke-linecap:round; stroke-linejoin:round; stroke-width:4; stroke-opacity:1; fill:none" points="327.938,483.787 344.361,482.508 360.783,463.324 377.205,458.208 393.628,465.882 410.05,433.908 426.473,408.329 442.895,398.097 459.318,389.145 475.74,401.934 492.162,372.518 508.585,335.429 525.007,327.755 541.43,308.571 557.852,284.271 574.274,257.413 590.697,234.392 607.119,210.092 623.542,189.629 639.964,174.282 656.386,169.166 672.809,165.329 689.231,158.934 705.654,155.098 722.076,149.982 738.498,147.424 754.921,146.145 771.343,147.424 787.766,157.656 804.188,173.003 820.61,181.955 837.033,199.861 853.455,202.419 869.878,212.65 886.3,221.603 902.722,222.882 919.145,212.65 935.567,204.977 951.99,199.861 968.412,187.071 984.834,176.84 1001.26,187.071 1017.68,213.929 1034.1,254.855 1050.52,268.924 1066.95,266.366 1083.37,280.434 1099.79,321.361 1116.21,385.308 1132.64,432.629 1149.06,446.697 1165.48,431.35 1181.9,376.355 1198.33,318.803 1214.75,293.224 1231.17,318.803 1247.59,413.445 1264.02,511.924 1280.44,615.518 1296.86,692.255 1313.28,777.944 1329.7,884.097 1346.13,988.971 1362.55,1018.39 1378.97,834.218 1395.39,713.997 1411.82,565.639 1428.24,436.466 1444.66,378.913 1461.08,369.961 1477.51,368.682 1493.93,350.776 1510.35,352.055 1526.77,392.982 1543.2,424.955 1559.62,444.139 1576.04,441.582 1592.46,465.882 1608.89,497.855 1625.31,522.155 1641.73,565.639 1658.15,625.75 1674.58,699.929 1691,758.76 1707.42,783.06 1723.84,806.081 1740.26,823.986 1756.69,826.544 1773.11,845.729 1789.53,863.634 1805.95,839.334 1822.38,774.108 1838.8,706.323 1855.22,667.955 1871.64,664.118 1888.07,667.955 1904.49,656.445 1920.91,641.097 1937.33,628.308 1953.76,637.26 1970.18,643.655 1986.6,642.376 2003.02,648.771 2019.45,657.723 2035.87,666.676 2052.29,707.602 2068.71,730.623 2085.14,733.181 2101.56,742.134 2117.98,770.271 2134.4,789.455 2150.83,781.781 2167.25,779.223 2183.67,786.897 2200.09,789.455 2216.51,792.013 2232.94,798.408 2249.36,798.408 2265.78,797.129 2282.2,797.129 2298.63,795.85 2315.05,789.455 2331.47,780.502 2347.89,780.502 2364.32,780.502 2380.74,770.271 2397.16,749.808 2413.58,738.297 2430.01,742.134 2446.43,772.829 2462.85,807.36 2479.27,803.523 2495.7,788.176 2512.12,760.039 2528.54,706.323 2544.96,628.308 2561.39,565.639 2577.81,540.06 2594.23,565.639 2610.65,551.571 2627.07,522.155 2643.5,474.834 2659.92,462.045 2676.34,511.924 2692.76,568.197 2709.19,611.681 2725.61,679.466 2742.03,806.081 2758.45,910.955 2774.88,885.376 2791.3,733.181 2807.72,589.939 2824.14,542.618 2840.57,529.829 2856.99,458.208 2873.41,407.05 2889.83,419.839 2906.26,441.582 2922.68,446.697 2939.1,430.071 2955.52,375.076 2971.95,331.592 2988.37,285.55 3004.79,257.413 3021.21,242.066 3037.63,229.276 3054.06,224.161 3070.48,217.766 "/>
<polyline clip-path="url(#clip782)" style="stroke:#3da44d; stroke-linecap:round; stroke-linejoin:round; stroke-width:4; stroke-opacity:1; fill:none" points="327.938,933.976 344.361,954.439 360.783,944.207 377.205,918.628 393.628,913.513 410.05,887.934 426.473,850.844 442.895,826.544 459.318,771.55 475.74,799.686 492.162,806.081 508.585,747.25 525.007,711.439 541.43,670.513 557.852,627.029 574.274,582.266 590.697,540.06 607.119,487.624 623.542,439.024 639.964,395.539 656.386,358.45 672.809,334.15 689.231,314.966 705.654,299.619 722.076,284.271 738.498,275.319 754.921,272.761 771.343,271.482 787.766,289.387 804.188,330.313 820.61,376.355 837.033,395.539 853.455,439.024 869.878,495.297 886.3,506.808 902.722,477.392 919.145,460.766 935.567,442.861 951.99,442.861 968.412,414.724 984.834,381.471 1001.26,401.934 1017.68,451.813 1034.1,520.876 1050.52,554.129 1066.95,559.245 1083.37,586.102 1099.79,642.376 1116.21,734.46 1132.64,785.618 1149.06,803.523 1165.48,806.081 1181.9,793.292 1198.33,767.713 1214.75,729.344 1231.17,706.323 1247.59,790.734 1264.02,857.239 1280.44,899.444 1296.86,926.302 1313.28,981.297 1329.7,1063.15 1346.13,1127.1 1362.55,1138.61 1378.97,1137.33 1395.39,1070.82 1411.82,996.644 1428.24,861.076 1444.66,767.713 1461.08,725.508 1477.51,710.16 1493.93,683.302 1510.35,667.955 1526.77,699.929 1543.2,740.855 1559.62,768.992 1576.04,763.876 1592.46,776.665 1608.89,795.85 1625.31,806.081 1641.73,844.45 1658.15,916.071 1674.58,1001.76 1691,1049.08 1707.42,1055.48 1723.84,1069.54 1740.26,1069.54 1756.69,1065.71 1773.11,1078.5 1789.53,1096.4 1805.95,1088.73 1822.38,1050.36 1838.8,1006.88 1855.22,980.018 1871.64,978.739 1888.07,990.249 1904.49,1001.76 1920.91,1013.27 1937.33,1017.11 1953.76,1033.73 1970.18,1037.57 1986.6,1037.57 2003.02,1049.08 2019.45,1058.03 2035.87,1065.71 2052.29,1093.84 2068.71,1095.12 2085.14,1093.84 2101.56,1106.63 2117.98,1129.65 2134.4,1147.56 2150.83,1136.05 2167.25,1133.49 2183.67,1139.89 2200.09,1147.56 2216.51,1152.68 2232.94,1164.19 2249.36,1173.14 2265.78,1174.42 2282.2,1178.25 2298.63,1174.42 2315.05,1166.74 2331.47,1157.79 2347.89,1157.79 2364.32,1156.51 2380.74,1145 2397.16,1129.65 2413.58,1123.26 2430.01,1134.77 2446.43,1164.19 2462.85,1178.25 2479.27,1170.58 2495.7,1160.35 2512.12,1143.72 2528.54,1124.54 2544.96,1050.36 2561.39,986.413 2577.81,946.765 2594.23,940.371 2610.65,942.928 2627.07,928.86 2643.5,899.444 2659.92,863.634 2676.34,880.26 2692.76,919.907 2709.19,945.486 2725.61,977.46 2742.03,1045.24 2758.45,1116.87 2774.88,1116.87 2791.3,1033.73 2807.72,939.092 2824.14,941.65 2840.57,953.16 2856.99,948.044 2873.41,886.655 2889.83,884.097 2906.26,880.26 2922.68,863.634 2939.1,826.544 2955.52,771.55 2971.95,726.787 2988.37,676.908 3004.79,643.655 3021.21,609.124 3037.63,569.476 3054.06,545.176 3070.48,534.945 "/>
<polyline clip-path="url(#clip782)" style="stroke:#c271d2; stroke-linecap:round; stroke-linejoin:round; stroke-width:4; stroke-opacity:1; fill:none" points="327.938,561.802 344.361,577.15 360.783,604.008 377.205,632.145 393.628,648.771 410.05,650.05 426.473,641.097 442.895,623.192 459.318,606.566 475.74,583.545 492.162,549.013 508.585,519.597 525.007,510.645 541.43,508.087 557.852,504.25 574.274,505.529 590.697,477.392 607.119,404.492 623.542,400.655 639.964,410.887 656.386,433.908 672.809,468.439 689.231,509.366 705.654,557.966 722.076,598.892 738.498,629.587 754.921,647.492 771.343,653.887 787.766,650.05 804.188,629.587 820.61,577.15 837.033,505.529 853.455,433.908 869.878,378.913 886.3,350.776 902.722,348.218 919.145,359.729 935.567,367.403 951.99,371.24 968.412,372.518 984.834,353.334 1001.26,270.203 1017.68,291.945 1034.1,321.361 1050.52,363.566 1066.95,416.003 1083.37,467.16 1099.79,511.924 1116.21,563.081 1132.64,598.892 1149.06,624.471 1165.48,637.26 1181.9,641.097 1198.33,628.308 1214.75,601.45 1231.17,556.687 1247.59,491.46 1264.02,427.513 1280.44,385.308 1296.86,367.403 1313.28,364.845 1329.7,375.076 1346.13,380.192 1362.55,381.471 1378.97,357.171 1395.39,311.129 1411.82,330.313 1428.24,359.729 1444.66,399.376 1461.08,444.139 1477.51,487.624 1493.93,532.387 1510.35,574.592 1526.77,607.845 1543.2,630.866 1559.62,642.376 1576.04,644.934 1592.46,641.097 1608.89,629.587 1625.31,600.171 1641.73,561.802 1658.15,524.713 1674.58,490.182 1691,470.997 1707.42,462.045 1723.84,469.718 1740.26,477.392 1756.69,474.834 1773.11,447.976 1789.53,352.055 1805.95,346.94 1822.38,362.287 1838.8,396.818 1855.22,441.582 1871.64,486.345 1888.07,541.339 1904.49,583.545 1920.91,611.681 1937.33,625.75 1953.76,628.308 1970.18,620.634 1986.6,593.776 2003.02,502.971 2019.45,364.845 2035.87,266.366 2052.29,243.345 2068.71,236.95 2085.14,225.44 2101.56,227.998 2117.98,222.882 2134.4,229.276 2150.83,231.834 2167.25,207.534 2183.67,171.724 2200.09,217.766 2216.51,254.855 2232.94,302.176 2249.36,359.729 2265.78,426.234 2282.2,492.739 2298.63,547.734 2315.05,580.987 2331.47,597.613 2347.89,604.008 2364.32,598.892 2380.74,570.755 2397.16,488.903 2413.58,341.824 2430.01,252.298 2446.43,230.555 2462.85,230.555 2479.27,238.229 2495.7,252.298 2512.12,249.74 2528.54,247.182 2544.96,243.345 2561.39,220.324 2577.81,169.166 2594.23,219.045 2610.65,251.019 2627.07,303.455 2643.5,362.287 2659.92,428.792 2676.34,492.739 2692.76,543.897 2709.19,578.429 2725.61,595.055 2742.03,600.171 2758.45,597.613 2774.88,569.476 2791.3,485.066 2807.72,345.661 2824.14,254.855 2840.57,239.508 2856.99,239.508 2873.41,249.74 2889.83,268.924 2906.26,262.529 2922.68,258.692 2939.1,257.413 2955.52,233.113 2971.95,176.84 2988.37,226.719 3004.79,257.413 3021.21,306.013 3037.63,359.729 3054.06,430.071 3070.48,485.066 "/>
<path clip-path="url(#clip780)" d="M342.565 412.064 L944.986 412.064 L944.986 152.864 L342.565 152.864  Z" fill="#ffffff" fill-rule="evenodd" fill-opacity="1"/>
<polyline clip-path="url(#clip780)" style="stroke:#000000; stroke-linecap:round; stroke-linejoin:round; stroke-width:4; stroke-opacity:1; fill:none" points="342.565,412.064 944.986,412.064 944.986,152.864 342.565,152.864 342.565,412.064 "/>
<polyline clip-path="url(#clip780)" style="stroke:#009af9; stroke-linecap:round; stroke-linejoin:round; stroke-width:4; stroke-opacity:1; fill:none" points="374.866,204.704 568.672,204.704 "/>
<path clip-path="url(#clip780)" d="M600.974 187.424 L607.27 187.424 L622.594 216.336 L622.594 187.424 L627.131 187.424 L627.131 221.984 L620.835 221.984 L605.511 193.072 L605.511 221.984 L600.974 221.984 L600.974 187.424 Z" fill="#000000" fill-rule="nonzero" fill-opacity="1" /><path clip-path="url(#clip780)" d="M636.436 187.424 L658.288 187.424 L658.288 191.359 L641.112 191.359 L641.112 201.59 L657.57 201.59 L657.57 205.525 L641.112 205.525 L641.112 218.049 L658.705 218.049 L658.705 221.984 L636.436 221.984 L636.436 187.424 Z" fill="#000000" fill-rule="nonzero" fill-opacity="1" /><path clip-path="url(#clip780)" d="M671.066 191.266 L671.066 218.141 L676.714 218.141 Q683.867 218.141 687.177 214.9 Q690.51 211.66 690.51 204.669 Q690.51 197.725 687.177 194.507 Q683.867 191.266 676.714 191.266 L671.066 191.266 M666.39 187.424 L675.996 187.424 Q686.042 187.424 690.742 191.614 Q695.441 195.78 695.441 204.669 Q695.441 213.604 690.718 217.794 Q685.996 221.984 675.996 221.984 L666.39 221.984 L666.39 187.424 Z" fill="#000000" fill-rule="nonzero" fill-opacity="1" /><path clip-path="url(#clip780)" d="M722.408 229.854 L722.408 233.164 L697.779 233.164 L697.779 229.854 L722.408 229.854 Z" fill="#000000" fill-rule="nonzero" fill-opacity="1" /><path clip-path="url(#clip780)" d="M747.315 188.558 L747.315 193.118 Q744.653 191.845 742.292 191.22 Q739.931 190.595 737.732 190.595 Q733.913 190.595 731.829 192.076 Q729.769 193.558 729.769 196.289 Q729.769 198.581 731.135 199.762 Q732.524 200.919 736.366 201.637 L739.19 202.215 Q744.422 203.211 746.899 205.734 Q749.399 208.234 749.399 212.447 Q749.399 217.47 746.019 220.062 Q742.663 222.655 736.158 222.655 Q733.704 222.655 730.927 222.099 Q728.172 221.544 725.209 220.456 L725.209 215.641 Q728.056 217.238 730.788 218.049 Q733.519 218.859 736.158 218.859 Q740.163 218.859 742.338 217.285 Q744.514 215.711 744.514 212.794 Q744.514 210.248 742.94 208.812 Q741.389 207.377 737.825 206.66 L734.977 206.104 Q729.746 205.063 727.408 202.84 Q725.07 200.618 725.07 196.66 Q725.07 192.076 728.288 189.438 Q731.528 186.799 737.2 186.799 Q739.63 186.799 742.153 187.239 Q744.676 187.678 747.315 188.558 Z" fill="#000000" fill-rule="nonzero" fill-opacity="1" /><path clip-path="url(#clip780)" d="M756.065 211.752 L756.065 196.058 L760.325 196.058 L760.325 211.59 Q760.325 215.271 761.76 217.123 Q763.195 218.951 766.065 218.951 Q769.514 218.951 771.505 216.752 Q773.519 214.553 773.519 210.757 L773.519 196.058 L777.778 196.058 L777.778 221.984 L773.519 221.984 L773.519 218.002 Q771.968 220.363 769.908 221.521 Q767.871 222.655 765.162 222.655 Q760.695 222.655 758.38 219.877 Q756.065 217.099 756.065 211.752 M766.783 195.433 L766.783 195.433 Z" fill="#000000" fill-rule="nonzero" fill-opacity="1" /><path clip-path="url(#clip780)" d="M808.102 206.336 L808.102 221.984 L803.843 221.984 L803.843 206.475 Q803.843 202.794 802.408 200.965 Q800.972 199.137 798.102 199.137 Q794.653 199.137 792.662 201.336 Q790.672 203.535 790.672 207.331 L790.672 221.984 L786.389 221.984 L786.389 196.058 L790.672 196.058 L790.672 200.086 Q792.199 197.748 794.26 196.59 Q796.343 195.433 799.051 195.433 Q803.519 195.433 805.81 198.211 Q808.102 200.965 808.102 206.336 Z" fill="#000000" fill-rule="nonzero" fill-opacity="1" /><path clip-path="url(#clip780)" d="M821.458 191.266 L821.458 204.252 L827.338 204.252 Q830.602 204.252 832.384 202.563 Q834.167 200.873 834.167 197.748 Q834.167 194.646 832.384 192.956 Q830.602 191.266 827.338 191.266 L821.458 191.266 M816.783 187.424 L827.338 187.424 Q833.148 187.424 836.111 190.063 Q839.097 192.678 839.097 197.748 Q839.097 202.863 836.111 205.479 Q833.148 208.095 827.338 208.095 L821.458 208.095 L821.458 221.984 L816.783 221.984 L816.783 187.424 Z" fill="#000000" fill-rule="nonzero" fill-opacity="1" /><path clip-path="url(#clip780)" d="M854.282 221.984 L841.088 187.424 L845.972 187.424 L856.921 216.521 L867.893 187.424 L872.754 187.424 L859.583 221.984 L854.282 221.984 Z" fill="#000000" fill-rule="nonzero" fill-opacity="1" /><polyline clip-path="url(#clip780)" style="stroke:#e26f46; stroke-linecap:round; stroke-linejoin:round; stroke-width:4; stroke-opacity:1; fill:none" points="374.866,256.544 568.672,256.544 "/>
<path clip-path="url(#clip780)" d="M600.974 239.264 L607.27 239.264 L622.594 268.176 L622.594 239.264 L627.131 239.264 L627.131 273.824 L620.835 273.824 L605.511 244.912 L605.511 273.824 L600.974 273.824 L600.974 239.264 Z" fill="#000000" fill-rule="nonzero" fill-opacity="1" /><path clip-path="url(#clip780)" d="M636.436 239.264 L658.288 239.264 L658.288 243.199 L641.112 243.199 L641.112 253.43 L657.57 253.43 L657.57 257.365 L641.112 257.365 L641.112 269.889 L658.705 269.889 L658.705 273.824 L636.436 273.824 L636.436 239.264 Z" fill="#000000" fill-rule="nonzero" fill-opacity="1" /><path clip-path="url(#clip780)" d="M671.066 243.106 L671.066 269.981 L676.714 269.981 Q683.867 269.981 687.177 266.74 Q690.51 263.5 690.51 256.509 Q690.51 249.565 687.177 246.347 Q683.867 243.106 676.714 243.106 L671.066 243.106 M666.39 239.264 L675.996 239.264 Q686.042 239.264 690.742 243.454 Q695.441 247.62 695.441 256.509 Q695.441 265.444 690.718 269.634 Q685.996 273.824 675.996 273.824 L666.39 273.824 L666.39 239.264 Z" fill="#000000" fill-rule="nonzero" fill-opacity="1" /><path clip-path="url(#clip780)" d="M722.408 281.694 L722.408 285.004 L697.779 285.004 L697.779 281.694 L722.408 281.694 Z" fill="#000000" fill-rule="nonzero" fill-opacity="1" /><path clip-path="url(#clip780)" d="M723.519 239.264 L728.241 239.264 L735.51 268.477 L742.755 239.264 L748.01 239.264 L755.278 268.477 L762.524 239.264 L767.269 239.264 L758.588 273.824 L752.709 273.824 L745.417 243.824 L738.056 273.824 L732.177 273.824 L723.519 239.264 Z" fill="#000000" fill-rule="nonzero" fill-opacity="1" /><path clip-path="url(#clip780)" d="M772.246 247.898 L776.505 247.898 L776.505 273.824 L772.246 273.824 L772.246 247.898 M772.246 237.805 L776.505 237.805 L776.505 243.199 L772.246 243.199 L772.246 237.805 Z" fill="#000000" fill-rule="nonzero" fill-opacity="1" /><path clip-path="url(#clip780)" d="M806.968 258.176 L806.968 273.824 L802.709 273.824 L802.709 258.315 Q802.709 254.634 801.273 252.805 Q799.838 250.977 796.968 250.977 Q793.519 250.977 791.528 253.176 Q789.537 255.375 789.537 259.171 L789.537 273.824 L785.255 273.824 L785.255 247.898 L789.537 247.898 L789.537 251.926 Q791.065 249.588 793.125 248.43 Q795.209 247.273 797.917 247.273 Q802.384 247.273 804.676 250.051 Q806.968 252.805 806.968 258.176 Z" fill="#000000" fill-rule="nonzero" fill-opacity="1" /><path clip-path="url(#clip780)" d="M832.523 251.833 L832.523 237.805 L836.782 237.805 L836.782 273.824 L832.523 273.824 L832.523 269.935 Q831.181 272.25 829.12 273.384 Q827.083 274.495 824.213 274.495 Q819.514 274.495 816.551 270.745 Q813.611 266.995 813.611 260.884 Q813.611 254.773 816.551 251.023 Q819.514 247.273 824.213 247.273 Q827.083 247.273 829.12 248.407 Q831.181 249.518 832.523 251.833 M818.009 260.884 Q818.009 265.583 819.931 268.268 Q821.875 270.93 825.255 270.93 Q828.634 270.93 830.579 268.268 Q832.523 265.583 832.523 260.884 Q832.523 256.185 830.579 253.523 Q828.634 250.838 825.255 250.838 Q821.875 250.838 819.931 253.523 Q818.009 256.185 818.009 260.884 Z" fill="#000000" fill-rule="nonzero" fill-opacity="1" /><path clip-path="url(#clip780)" d="M859.768 242.435 Q854.676 242.435 851.667 246.231 Q848.681 250.028 848.681 256.578 Q848.681 263.106 851.667 266.902 Q854.676 270.699 859.768 270.699 Q864.861 270.699 867.824 266.902 Q870.81 263.106 870.81 256.578 Q870.81 250.028 867.824 246.231 Q864.861 242.435 859.768 242.435 M859.768 238.639 Q867.037 238.639 871.389 243.523 Q875.741 248.384 875.741 256.578 Q875.741 264.75 871.389 269.634 Q867.037 274.495 859.768 274.495 Q852.477 274.495 848.102 269.634 Q843.75 264.773 843.75 256.578 Q843.75 248.384 848.102 243.523 Q852.477 238.639 859.768 238.639 Z" fill="#000000" fill-rule="nonzero" fill-opacity="1" /><path clip-path="url(#clip780)" d="M895.995 237.805 L895.995 241.347 L891.921 241.347 Q889.629 241.347 888.727 242.273 Q887.847 243.199 887.847 245.606 L887.847 247.898 L894.861 247.898 L894.861 251.208 L887.847 251.208 L887.847 273.824 L883.565 273.824 L883.565 251.208 L879.491 251.208 L879.491 247.898 L883.565 247.898 L883.565 246.092 Q883.565 241.764 885.578 239.796 Q887.592 237.805 891.967 237.805 L895.995 237.805 Z" fill="#000000" fill-rule="nonzero" fill-opacity="1" /><path clip-path="url(#clip780)" d="M912.685 237.805 L912.685 241.347 L908.611 241.347 Q906.319 241.347 905.416 242.273 Q904.537 243.199 904.537 245.606 L904.537 247.898 L911.551 247.898 L911.551 251.208 L904.537 251.208 L904.537 273.824 L900.254 273.824 L900.254 251.208 L896.18 251.208 L896.18 247.898 L900.254 247.898 L900.254 246.092 Q900.254 241.764 902.268 239.796 Q904.282 237.805 908.657 237.805 L912.685 237.805 Z" fill="#000000" fill-rule="nonzero" fill-opacity="1" /><polyline clip-path="url(#clip780)" style="stroke:#3da44d; stroke-linecap:round; stroke-linejoin:round; stroke-width:4; stroke-opacity:1; fill:none" points="374.866,308.384 568.672,308.384 "/>
<path clip-path="url(#clip780)" d="M600.974 291.104 L607.27 291.104 L622.594 320.016 L622.594 291.104 L627.131 291.104 L627.131 325.664 L620.835 325.664 L605.511 296.752 L605.511 325.664 L600.974 325.664 L600.974 291.104 Z" fill="#000000" fill-rule="nonzero" fill-opacity="1" /><path clip-path="url(#clip780)" d="M636.436 291.104 L658.288 291.104 L658.288 295.039 L641.112 295.039 L641.112 305.27 L657.57 305.27 L657.57 309.205 L641.112 309.205 L641.112 321.729 L658.705 321.729 L658.705 325.664 L636.436 325.664 L636.436 291.104 Z" fill="#000000" fill-rule="nonzero" fill-opacity="1" /><path clip-path="url(#clip780)" d="M671.066 294.946 L671.066 321.821 L676.714 321.821 Q683.867 321.821 687.177 318.58 Q690.51 315.34 690.51 308.349 Q690.51 301.405 687.177 298.187 Q683.867 294.946 676.714 294.946 L671.066 294.946 M666.39 291.104 L675.996 291.104 Q686.042 291.104 690.742 295.294 Q695.441 299.46 695.441 308.349 Q695.441 317.284 690.718 321.474 Q685.996 325.664 675.996 325.664 L666.39 325.664 L666.39 291.104 Z" fill="#000000" fill-rule="nonzero" fill-opacity="1" /><path clip-path="url(#clip780)" d="M722.408 333.534 L722.408 336.844 L697.779 336.844 L697.779 333.534 L722.408 333.534 Z" fill="#000000" fill-rule="nonzero" fill-opacity="1" /><path clip-path="url(#clip780)" d="M723.519 291.104 L728.241 291.104 L735.51 320.317 L742.755 291.104 L748.01 291.104 L755.278 320.317 L762.524 291.104 L767.269 291.104 L758.588 325.664 L752.709 325.664 L745.417 295.664 L738.056 325.664 L732.177 325.664 L723.519 291.104 Z" fill="#000000" fill-rule="nonzero" fill-opacity="1" /><path clip-path="url(#clip780)" d="M772.246 299.738 L776.505 299.738 L776.505 325.664 L772.246 325.664 L772.246 299.738 M772.246 289.645 L776.505 289.645 L776.505 295.039 L772.246 295.039 L772.246 289.645 Z" fill="#000000" fill-rule="nonzero" fill-opacity="1" /><path clip-path="url(#clip780)" d="M806.968 310.016 L806.968 325.664 L802.709 325.664 L802.709 310.155 Q802.709 306.474 801.273 304.645 Q799.838 302.817 796.968 302.817 Q793.519 302.817 791.528 305.016 Q789.537 307.215 789.537 311.011 L789.537 325.664 L785.255 325.664 L785.255 299.738 L789.537 299.738 L789.537 303.766 Q791.065 301.428 793.125 300.27 Q795.209 299.113 797.917 299.113 Q802.384 299.113 804.676 301.891 Q806.968 304.645 806.968 310.016 Z" fill="#000000" fill-rule="nonzero" fill-opacity="1" /><path clip-path="url(#clip780)" d="M832.523 303.673 L832.523 289.645 L836.782 289.645 L836.782 325.664 L832.523 325.664 L832.523 321.775 Q831.181 324.09 829.12 325.224 Q827.083 326.335 824.213 326.335 Q819.514 326.335 816.551 322.585 Q813.611 318.835 813.611 312.724 Q813.611 306.613 816.551 302.863 Q819.514 299.113 824.213 299.113 Q827.083 299.113 829.12 300.247 Q831.181 301.358 832.523 303.673 M818.009 312.724 Q818.009 317.423 819.931 320.108 Q821.875 322.77 825.255 322.77 Q828.634 322.77 830.579 320.108 Q832.523 317.423 832.523 312.724 Q832.523 308.025 830.579 305.363 Q828.634 302.678 825.255 302.678 Q821.875 302.678 819.931 305.363 Q818.009 308.025 818.009 312.724 Z" fill="#000000" fill-rule="nonzero" fill-opacity="1" /><path clip-path="url(#clip780)" d="M859.768 294.275 Q854.676 294.275 851.667 298.071 Q848.681 301.868 848.681 308.418 Q848.681 314.946 851.667 318.742 Q854.676 322.539 859.768 322.539 Q864.861 322.539 867.824 318.742 Q870.81 314.946 870.81 308.418 Q870.81 301.868 867.824 298.071 Q864.861 294.275 859.768 294.275 M859.768 290.479 Q867.037 290.479 871.389 295.363 Q875.741 300.224 875.741 308.418 Q875.741 316.59 871.389 321.474 Q867.037 326.335 859.768 326.335 Q852.477 326.335 848.102 321.474 Q843.75 316.613 843.75 308.418 Q843.75 300.224 848.102 295.363 Q852.477 290.479 859.768 290.479 Z" fill="#000000" fill-rule="nonzero" fill-opacity="1" /><path clip-path="url(#clip780)" d="M904.421 310.016 L904.421 325.664 L900.162 325.664 L900.162 310.155 Q900.162 306.474 898.727 304.645 Q897.291 302.817 894.421 302.817 Q890.972 302.817 888.981 305.016 Q886.99 307.215 886.99 311.011 L886.99 325.664 L882.708 325.664 L882.708 299.738 L886.99 299.738 L886.99 303.766 Q888.518 301.428 890.578 300.27 Q892.662 299.113 895.37 299.113 Q899.838 299.113 902.129 301.891 Q904.421 304.645 904.421 310.016 Z" fill="#000000" fill-rule="nonzero" fill-opacity="1" /><polyline clip-path="url(#clip780)" style="stroke:#c271d2; stroke-linecap:round; stroke-linejoin:round; stroke-width:4; stroke-opacity:1; fill:none" points="374.866,360.224 568.672,360.224 "/>
<path clip-path="url(#clip780)" d="M600.974 342.944 L607.27 342.944 L622.594 371.856 L622.594 342.944 L627.131 342.944 L627.131 377.504 L620.835 377.504 L605.511 348.592 L605.511 377.504 L600.974 377.504 L600.974 342.944 Z" fill="#000000" fill-rule="nonzero" fill-opacity="1" /><path clip-path="url(#clip780)" d="M636.436 342.944 L658.288 342.944 L658.288 346.879 L641.112 346.879 L641.112 357.11 L657.57 357.11 L657.57 361.045 L641.112 361.045 L641.112 373.569 L658.705 373.569 L658.705 377.504 L636.436 377.504 L636.436 342.944 Z" fill="#000000" fill-rule="nonzero" fill-opacity="1" /><path clip-path="url(#clip780)" d="M671.066 346.786 L671.066 373.661 L676.714 373.661 Q683.867 373.661 687.177 370.42 Q690.51 367.18 690.51 360.189 Q690.51 353.245 687.177 350.027 Q683.867 346.786 676.714 346.786 L671.066 346.786 M666.39 342.944 L675.996 342.944 Q686.042 342.944 690.742 347.134 Q695.441 351.3 695.441 360.189 Q695.441 369.124 690.718 373.314 Q685.996 377.504 675.996 377.504 L666.39 377.504 L666.39 342.944 Z" fill="#000000" fill-rule="nonzero" fill-opacity="1" /><path clip-path="url(#clip780)" d="M722.408 385.374 L722.408 388.684 L697.779 388.684 L697.779 385.374 L722.408 385.374 Z" fill="#000000" fill-rule="nonzero" fill-opacity="1" /><path clip-path="url(#clip780)" d="M743.473 355.513 L743.473 341.485 L747.732 341.485 L747.732 377.504 L743.473 377.504 L743.473 373.615 Q742.13 375.93 740.07 377.064 Q738.033 378.175 735.163 378.175 Q730.464 378.175 727.501 374.425 Q724.561 370.675 724.561 364.564 Q724.561 358.453 727.501 354.703 Q730.464 350.953 735.163 350.953 Q738.033 350.953 740.07 352.087 Q742.13 353.198 743.473 355.513 M728.959 364.564 Q728.959 369.263 730.88 371.948 Q732.825 374.61 736.204 374.61 Q739.584 374.61 741.528 371.948 Q743.473 369.263 743.473 364.564 Q743.473 359.865 741.528 357.203 Q739.584 354.518 736.204 354.518 Q732.825 354.518 730.88 357.203 Q728.959 359.865 728.959 364.564 Z" fill="#000000" fill-rule="nonzero" fill-opacity="1" /><path clip-path="url(#clip780)" d="M778.681 363.476 L778.681 365.559 L759.098 365.559 Q759.375 369.957 761.737 372.272 Q764.121 374.564 768.357 374.564 Q770.811 374.564 773.102 373.962 Q775.417 373.36 777.686 372.157 L777.686 376.184 Q775.394 377.156 772.986 377.666 Q770.579 378.175 768.102 378.175 Q761.899 378.175 758.264 374.564 Q754.653 370.953 754.653 364.795 Q754.653 358.43 758.079 354.703 Q761.528 350.953 767.362 350.953 Q772.593 350.953 775.625 354.333 Q778.681 357.689 778.681 363.476 M774.422 362.226 Q774.375 358.731 772.454 356.647 Q770.556 354.564 767.408 354.564 Q763.843 354.564 761.69 356.578 Q759.561 358.592 759.237 362.249 L774.422 362.226 Z" fill="#000000" fill-rule="nonzero" fill-opacity="1" /><path clip-path="url(#clip780)" d="M805.857 356.555 Q807.454 353.684 809.676 352.319 Q811.898 350.953 814.908 350.953 Q818.958 350.953 821.158 353.8 Q823.357 356.624 823.357 361.856 L823.357 377.504 L819.074 377.504 L819.074 361.995 Q819.074 358.268 817.755 356.462 Q816.435 354.657 813.727 354.657 Q810.417 354.657 808.496 356.856 Q806.574 359.055 806.574 362.851 L806.574 377.504 L802.292 377.504 L802.292 361.995 Q802.292 358.245 800.972 356.462 Q799.653 354.657 796.898 354.657 Q793.635 354.657 791.713 356.879 Q789.792 359.078 789.792 362.851 L789.792 377.504 L785.51 377.504 L785.51 351.578 L789.792 351.578 L789.792 355.606 Q791.25 353.221 793.287 352.087 Q795.324 350.953 798.125 350.953 Q800.949 350.953 802.917 352.388 Q804.908 353.823 805.857 356.555 Z" fill="#000000" fill-rule="nonzero" fill-opacity="1" /><path clip-path="url(#clip780)" d="M843.634 364.471 Q838.472 364.471 836.482 365.652 Q834.491 366.832 834.491 369.68 Q834.491 371.948 835.972 373.291 Q837.477 374.61 840.046 374.61 Q843.588 374.61 845.718 372.11 Q847.87 369.587 847.87 365.42 L847.87 364.471 L843.634 364.471 M852.13 362.712 L852.13 377.504 L847.87 377.504 L847.87 373.569 Q846.412 375.93 844.236 377.064 Q842.06 378.175 838.912 378.175 Q834.931 378.175 832.569 375.953 Q830.232 373.707 830.232 369.957 Q830.232 365.582 833.148 363.36 Q836.088 361.138 841.898 361.138 L847.87 361.138 L847.87 360.721 Q847.87 357.782 845.926 356.184 Q844.005 354.564 840.509 354.564 Q838.287 354.564 836.181 355.096 Q834.074 355.629 832.13 356.694 L832.13 352.758 Q834.468 351.856 836.667 351.416 Q838.866 350.953 840.949 350.953 Q846.574 350.953 849.352 353.87 Q852.13 356.786 852.13 362.712 Z" fill="#000000" fill-rule="nonzero" fill-opacity="1" /><path clip-path="url(#clip780)" d="M882.453 361.856 L882.453 377.504 L878.194 377.504 L878.194 361.995 Q878.194 358.314 876.759 356.485 Q875.324 354.657 872.454 354.657 Q869.004 354.657 867.014 356.856 Q865.023 359.055 865.023 362.851 L865.023 377.504 L860.741 377.504 L860.741 351.578 L865.023 351.578 L865.023 355.606 Q866.551 353.268 868.611 352.11 Q870.694 350.953 873.403 350.953 Q877.87 350.953 880.162 353.731 Q882.453 356.485 882.453 361.856 Z" fill="#000000" fill-rule="nonzero" fill-opacity="1" /><path clip-path="url(#clip780)" d="M908.009 355.513 L908.009 341.485 L912.268 341.485 L912.268 377.504 L908.009 377.504 L908.009 373.615 Q906.666 375.93 904.606 377.064 Q902.569 378.175 899.699 378.175 Q895 378.175 892.037 374.425 Q889.097 370.675 889.097 364.564 Q889.097 358.453 892.037 354.703 Q895 350.953 899.699 350.953 Q902.569 350.953 904.606 352.087 Q906.666 353.198 908.009 355.513 M893.495 364.564 Q893.495 369.263 895.416 371.948 Q897.361 374.61 900.74 374.61 Q904.12 374.61 906.064 371.948 Q908.009 369.263 908.009 364.564 Q908.009 359.865 906.064 357.203 Q904.12 354.518 900.74 354.518 Q897.361 354.518 895.416 357.203 Q893.495 359.865 893.495 364.564 Z" fill="#000000" fill-rule="nonzero" fill-opacity="1" /></svg>
