<?xml version="1.0" encoding="utf-8"?>
<svg xmlns="http://www.w3.org/2000/svg" xmlns:xlink="http://www.w3.org/1999/xlink" width="800" height="400" viewBox="0 0 3200 1600">
<defs>
  <clipPath id="clip680">
    <rect x="0" y="0" width="3200" height="1600"/>
  </clipPath>
</defs>
<path clip-path="url(#clip680)" d="M0 1600 L3200 1600 L3200 0 L0 0  Z" fill="#ffffff" fill-rule="evenodd" fill-opacity="1"/>
<defs>
  <clipPath id="clip681">
    <rect x="640" y="0" width="2241" height="1600"/>
  </clipPath>
</defs>
<path clip-path="url(#clip680)" d="M120.177 1495.09 L3152.76 1495.09 L3152.76 47.2441 L120.177 47.2441  Z" fill="#ffffff" fill-rule="evenodd" fill-opacity="1"/>
<defs>
  <clipPath id="clip682">
    <rect x="120" y="47" width="3034" height="1449"/>
  </clipPath>
</defs>
<polyline clip-path="url(#clip682)" style="stroke:#000000; stroke-linecap:round; stroke-linejoin:round; stroke-width:2; stroke-opacity:0.1; fill:none" points="201.741,1495.09 201.741,47.2441 "/>
<polyline clip-path="url(#clip682)" style="stroke:#000000; stroke-linecap:round; stroke-linejoin:round; stroke-width:2; stroke-opacity:0.1; fill:none" points="628.108,1495.09 628.108,47.2441 "/>
<polyline clip-path="url(#clip682)" style="stroke:#000000; stroke-linecap:round; stroke-linejoin:round; stroke-width:2; stroke-opacity:0.1; fill:none" points="1054.48,1495.09 1054.48,47.2441 "/>
<polyline clip-path="url(#clip682)" style="stroke:#000000; stroke-linecap:round; stroke-linejoin:round; stroke-width:2; stroke-opacity:0.1; fill:none" points="1480.84,1495.09 1480.84,47.2441 "/>
<polyline clip-path="url(#clip682)" style="stroke:#000000; stroke-linecap:round; stroke-linejoin:round; stroke-width:2; stroke-opacity:0.1; fill:none" points="1907.21,1495.09 1907.21,47.2441 "/>
<polyline clip-path="url(#clip682)" style="stroke:#000000; stroke-linecap:round; stroke-linejoin:round; stroke-width:2; stroke-opacity:0.1; fill:none" points="2333.58,1495.09 2333.58,47.2441 "/>
<polyline clip-path="url(#clip682)" style="stroke:#000000; stroke-linecap:round; stroke-linejoin:round; stroke-width:2; stroke-opacity:0.1; fill:none" points="2759.94,1495.09 2759.94,47.2441 "/>
<polyline clip-path="url(#clip682)" style="stroke:#000000; stroke-linecap:round; stroke-linejoin:round; stroke-width:2; stroke-opacity:0.1; fill:none" points="120.177,1454.11 3152.76,1454.11 "/>
<polyline clip-path="url(#clip682)" style="stroke:#000000; stroke-linecap:round; stroke-linejoin:round; stroke-width:2; stroke-opacity:0.1; fill:none" points="120.177,1124.12 3152.76,1124.12 "/>
<polyline clip-path="url(#clip682)" style="stroke:#000000; stroke-linecap:round; stroke-linejoin:round; stroke-width:2; stroke-opacity:0.1; fill:none" points="120.177,794.131 3152.76,794.131 "/>
<polyline clip-path="url(#clip682)" style="stroke:#000000; stroke-linecap:round; stroke-linejoin:round; stroke-width:2; stroke-opacity:0.1; fill:none" points="120.177,464.14 3152.76,464.14 "/>
<polyline clip-path="url(#clip682)" style="stroke:#000000; stroke-linecap:round; stroke-linejoin:round; stroke-width:2; stroke-opacity:0.1; fill:none" points="120.177,134.15 3152.76,134.15 "/>
<polyline clip-path="url(#clip680)" style="stroke:#000000; stroke-linecap:round; stroke-linejoin:round; stroke-width:4; stroke-opacity:1; fill:none" points="120.177,1495.09 3152.76,1495.09 "/>
<polyline clip-path="url(#clip680)" style="stroke:#000000; stroke-linecap:round; stroke-linejoin:round; stroke-width:4; stroke-opacity:1; fill:none" points="201.741,1495.09 201.741,1476.19 "/>
<polyline clip-path="url(#clip680)" style="stroke:#000000; stroke-linecap:round; stroke-linejoin:round; stroke-width:4; stroke-opacity:1; fill:none" points="628.108,1495.09 628.108,1476.19 "/>
<polyline clip-path="url(#clip680)" style="stroke:#000000; stroke-linecap:round; stroke-linejoin:round; stroke-width:4; stroke-opacity:1; fill:none" points="1054.48,1495.09 1054.48,1476.19 "/>
<polyline clip-path="url(#clip680)" style="stroke:#000000; stroke-linecap:round; stroke-linejoin:round; stroke-width:4; stroke-opacity:1; fill:none" points="1480.84,1495.09 1480.84,1476.19 "/>
<polyline clip-path="url(#clip680)" style="stroke:#000000; stroke-linecap:round; stroke-linejoin:round; stroke-width:4; stroke-opacity:1; fill:none" points="1907.21,1495.09 1907.21,1476.19 "/>
<polyline clip-path="url(#clip680)" style="stroke:#000000; stroke-linecap:round; stroke-linejoin:round; stroke-width:4; stroke-opacity:1; fill:none" points="2333.58,1495.09 2333.58,1476.19 "/>
<polyline clip-path="url(#clip680)" style="stroke:#000000; stroke-linecap:round; stroke-linejoin:round; stroke-width:4; stroke-opacity:1; fill:none" points="2759.94,1495.09 2759.94,1476.19 "/>
<path clip-path="url(#clip680)" d="M201.741 1532.41 Q198.13 1532.41 196.301 1535.97 Q194.496 1539.51 194.496 1546.64 Q194.496 1553.75 196.301 1557.31 Q198.13 1560.86 201.741 1560.86 Q205.375 1560.86 207.181 1557.31 Q209.01 1553.75 209.01 1546.64 Q209.01 1539.51 207.181 1535.97 Q205.375 1532.41 201.741 1532.41 M201.741 1528.7 Q207.551 1528.7 210.607 1533.31 Q213.686 1537.89 213.686 1546.64 Q213.686 1555.37 210.607 1559.98 Q207.551 1564.56 201.741 1564.56 Q195.931 1564.56 192.852 1559.98 Q189.797 1555.37 189.797 1546.64 Q189.797 1537.89 192.852 1533.31 Q195.931 1528.7 201.741 1528.7 Z" fill="#000000" fill-rule="nonzero" fill-opacity="1" /><path clip-path="url(#clip680)" d="M587.715 1559.95 L595.354 1559.95 L595.354 1533.59 L587.044 1535.25 L587.044 1530.99 L595.308 1529.33 L599.983 1529.33 L599.983 1559.95 L607.622 1559.95 L607.622 1563.89 L587.715 1563.89 L587.715 1559.95 Z" fill="#000000" fill-rule="nonzero" fill-opacity="1" /><path clip-path="url(#clip680)" d="M627.067 1532.41 Q623.456 1532.41 621.627 1535.97 Q619.821 1539.51 619.821 1546.64 Q619.821 1553.75 621.627 1557.31 Q623.456 1560.86 627.067 1560.86 Q630.701 1560.86 632.506 1557.31 Q634.335 1553.75 634.335 1546.64 Q634.335 1539.51 632.506 1535.97 Q630.701 1532.41 627.067 1532.41 M627.067 1528.7 Q632.877 1528.7 635.932 1533.31 Q639.011 1537.89 639.011 1546.64 Q639.011 1555.37 635.932 1559.98 Q632.877 1564.56 627.067 1564.56 Q621.257 1564.56 618.178 1559.98 Q615.122 1555.37 615.122 1546.64 Q615.122 1537.89 618.178 1533.31 Q621.257 1528.7 627.067 1528.7 Z" fill="#000000" fill-rule="nonzero" fill-opacity="1" /><path clip-path="url(#clip680)" d="M657.229 1532.41 Q653.617 1532.41 651.789 1535.97 Q649.983 1539.51 649.983 1546.64 Q649.983 1553.75 651.789 1557.31 Q653.617 1560.86 657.229 1560.86 Q660.863 1560.86 662.668 1557.31 Q664.497 1553.75 664.497 1546.64 Q664.497 1539.51 662.668 1535.97 Q660.863 1532.41 657.229 1532.41 M657.229 1528.7 Q663.039 1528.7 666.094 1533.31 Q669.173 1537.89 669.173 1546.64 Q669.173 1555.37 666.094 1559.98 Q663.039 1564.56 657.229 1564.56 Q651.418 1564.56 648.34 1559.98 Q645.284 1555.37 645.284 1546.64 Q645.284 1537.89 648.34 1533.31 Q651.418 1528.7 657.229 1528.7 Z" fill="#000000" fill-rule="nonzero" fill-opacity="1" /><path clip-path="url(#clip680)" d="M1018.17 1559.95 L1034.49 1559.95 L1034.49 1563.89 L1012.54 1563.89 L1012.54 1559.95 Q1015.2 1557.2 1019.79 1552.57 Q1024.39 1547.92 1025.58 1546.57 Q1027.82 1544.05 1028.7 1542.31 Q1029.6 1540.55 1029.6 1538.86 Q1029.6 1536.11 1027.66 1534.37 Q1025.74 1532.64 1022.64 1532.64 Q1020.44 1532.64 1017.98 1533.4 Q1015.55 1534.17 1012.77 1535.72 L1012.77 1530.99 Q1015.6 1529.86 1018.05 1529.28 Q1020.51 1528.7 1022.54 1528.7 Q1027.91 1528.7 1031.11 1531.39 Q1034.3 1534.07 1034.3 1538.56 Q1034.3 1540.69 1033.49 1542.61 Q1032.7 1544.51 1030.6 1547.11 Q1030.02 1547.78 1026.92 1550.99 Q1023.82 1554.19 1018.17 1559.95 Z" fill="#000000" fill-rule="nonzero" fill-opacity="1" /><path clip-path="url(#clip680)" d="M1054.3 1532.41 Q1050.69 1532.41 1048.86 1535.97 Q1047.06 1539.51 1047.06 1546.64 Q1047.06 1553.75 1048.86 1557.31 Q1050.69 1560.86 1054.3 1560.86 Q1057.94 1560.86 1059.74 1557.31 Q1061.57 1553.75 1061.57 1546.64 Q1061.57 1539.51 1059.74 1535.97 Q1057.94 1532.41 1054.3 1532.41 M1054.3 1528.7 Q1060.11 1528.7 1063.17 1533.31 Q1066.25 1537.89 1066.25 1546.64 Q1066.25 1555.37 1063.17 1559.98 Q1060.11 1564.56 1054.3 1564.56 Q1048.49 1564.56 1045.41 1559.98 Q1042.36 1555.37 1042.36 1546.64 Q1042.36 1537.89 1045.41 1533.31 Q1048.49 1528.7 1054.3 1528.7 Z" fill="#000000" fill-rule="nonzero" fill-opacity="1" /><path clip-path="url(#clip680)" d="M1084.46 1532.41 Q1080.85 1532.41 1079.02 1535.97 Q1077.22 1539.51 1077.22 1546.64 Q1077.22 1553.75 1079.02 1557.31 Q1080.85 1560.86 1084.46 1560.86 Q1088.1 1560.86 1089.9 1557.31 Q1091.73 1553.75 1091.73 1546.64 Q1091.73 1539.51 1089.9 1535.97 Q1088.1 1532.41 1084.46 1532.41 M1084.46 1528.7 Q1090.27 1528.7 1093.33 1533.31 Q1096.41 1537.89 1096.41 1546.64 Q1096.41 1555.37 1093.33 1559.98 Q1090.27 1564.56 1084.46 1564.56 Q1078.65 1564.56 1075.57 1559.98 Q1072.52 1555.37 1072.52 1546.64 Q1072.52 1537.89 1075.57 1533.31 Q1078.65 1528.7 1084.46 1528.7 Z" fill="#000000" fill-rule="nonzero" fill-opacity="1" /><path clip-path="url(#clip680)" d="M1454.6 1545.25 Q1457.96 1545.97 1459.84 1548.24 Q1461.73 1550.51 1461.73 1553.84 Q1461.73 1558.96 1458.22 1561.76 Q1454.7 1564.56 1448.22 1564.56 Q1446.04 1564.56 1443.72 1564.12 Q1441.43 1563.7 1438.98 1562.85 L1438.98 1558.33 Q1440.92 1559.47 1443.24 1560.05 Q1445.55 1560.62 1448.08 1560.62 Q1452.47 1560.62 1454.77 1558.89 Q1457.08 1557.15 1457.08 1553.84 Q1457.08 1550.79 1454.93 1549.07 Q1452.8 1547.34 1448.98 1547.34 L1444.95 1547.34 L1444.95 1543.49 L1449.16 1543.49 Q1452.61 1543.49 1454.44 1542.13 Q1456.27 1540.74 1456.27 1538.15 Q1456.27 1535.49 1454.37 1534.07 Q1452.5 1532.64 1448.98 1532.64 Q1447.06 1532.64 1444.86 1533.05 Q1442.66 1533.47 1440.02 1534.35 L1440.02 1530.18 Q1442.68 1529.44 1445 1529.07 Q1447.34 1528.7 1449.4 1528.7 Q1454.72 1528.7 1457.82 1531.13 Q1460.92 1533.54 1460.92 1537.66 Q1460.92 1540.53 1459.28 1542.52 Q1457.64 1544.49 1454.6 1545.25 Z" fill="#000000" fill-rule="nonzero" fill-opacity="1" /><path clip-path="url(#clip680)" d="M1480.6 1532.41 Q1476.99 1532.41 1475.16 1535.97 Q1473.35 1539.51 1473.35 1546.64 Q1473.35 1553.75 1475.16 1557.31 Q1476.99 1560.86 1480.6 1560.86 Q1484.23 1560.86 1486.04 1557.31 Q1487.87 1553.75 1487.87 1546.64 Q1487.87 1539.51 1486.04 1535.97 Q1484.23 1532.41 1480.6 1532.41 M1480.6 1528.7 Q1486.41 1528.7 1489.47 1533.31 Q1492.54 1537.89 1492.54 1546.64 Q1492.54 1555.37 1489.47 1559.98 Q1486.41 1564.56 1480.6 1564.56 Q1474.79 1564.56 1471.71 1559.98 Q1468.66 1555.37 1468.66 1546.64 Q1468.66 1537.89 1471.71 1533.31 Q1474.79 1528.7 1480.6 1528.7 Z" fill="#000000" fill-rule="nonzero" fill-opacity="1" /><path clip-path="url(#clip680)" d="M1510.76 1532.41 Q1507.15 1532.41 1505.32 1535.97 Q1503.52 1539.51 1503.52 1546.64 Q1503.52 1553.75 1505.32 1557.31 Q1507.15 1560.86 1510.76 1560.86 Q1514.4 1560.86 1516.2 1557.31 Q1518.03 1553.75 1518.03 1546.64 Q1518.03 1539.51 1516.2 1535.97 Q1514.4 1532.41 1510.76 1532.41 M1510.76 1528.7 Q1516.57 1528.7 1519.63 1533.31 Q1522.71 1537.89 1522.71 1546.64 Q1522.71 1555.37 1519.63 1559.98 Q1516.57 1564.56 1510.76 1564.56 Q1504.95 1564.56 1501.87 1559.98 Q1498.82 1555.37 1498.82 1546.64 Q1498.82 1537.89 1501.87 1533.31 Q1504.95 1528.7 1510.76 1528.7 Z" fill="#000000" fill-rule="nonzero" fill-opacity="1" /><path clip-path="url(#clip680)" d="M1880.3 1533.4 L1868.49 1551.85 L1880.3 1551.85 L1880.3 1533.4 M1879.07 1529.33 L1884.95 1529.33 L1884.95 1551.85 L1889.88 1551.85 L1889.88 1555.74 L1884.95 1555.74 L1884.95 1563.89 L1880.3 1563.89 L1880.3 1555.74 L1864.7 1555.74 L1864.7 1551.23 L1879.07 1529.33 Z" fill="#000000" fill-rule="nonzero" fill-opacity="1" /><path clip-path="url(#clip680)" d="M1907.61 1532.41 Q1904 1532.41 1902.17 1535.97 Q1900.37 1539.51 1900.37 1546.64 Q1900.37 1553.75 1902.17 1557.31 Q1904 1560.86 1907.61 1560.86 Q1911.25 1560.86 1913.05 1557.31 Q1914.88 1553.75 1914.88 1546.64 Q1914.88 1539.51 1913.05 1535.97 Q1911.25 1532.41 1907.61 1532.41 M1907.61 1528.7 Q1913.42 1528.7 1916.48 1533.31 Q1919.56 1537.89 1919.56 1546.64 Q1919.56 1555.37 1916.48 1559.98 Q1913.42 1564.56 1907.61 1564.56 Q1901.8 1564.56 1898.73 1559.98 Q1895.67 1555.37 1895.67 1546.64 Q1895.67 1537.89 1898.73 1533.31 Q1901.8 1528.7 1907.61 1528.7 Z" fill="#000000" fill-rule="nonzero" fill-opacity="1" /><path clip-path="url(#clip680)" d="M1937.78 1532.41 Q1934.17 1532.41 1932.34 1535.97 Q1930.53 1539.51 1930.53 1546.64 Q1930.53 1553.75 1932.34 1557.31 Q1934.17 1560.86 1937.78 1560.86 Q1941.41 1560.86 1943.22 1557.31 Q1945.05 1553.75 1945.05 1546.64 Q1945.05 1539.51 1943.22 1535.97 Q1941.41 1532.41 1937.78 1532.41 M1937.78 1528.7 Q1943.59 1528.7 1946.64 1533.31 Q1949.72 1537.89 1949.72 1546.64 Q1949.72 1555.37 1946.64 1559.98 Q1943.59 1564.56 1937.78 1564.56 Q1931.97 1564.56 1928.89 1559.98 Q1925.83 1555.37 1925.83 1546.64 Q1925.83 1537.89 1928.89 1533.31 Q1931.97 1528.7 1937.78 1528.7 Z" fill="#000000" fill-rule="nonzero" fill-opacity="1" /><path clip-path="url(#clip680)" d="M2293.2 1529.33 L2311.55 1529.33 L2311.55 1533.26 L2297.48 1533.26 L2297.48 1541.74 Q2298.5 1541.39 2299.51 1541.23 Q2300.53 1541.04 2301.55 1541.04 Q2307.34 1541.04 2310.72 1544.21 Q2314.1 1547.38 2314.1 1552.8 Q2314.1 1558.38 2310.63 1561.48 Q2307.15 1564.56 2300.83 1564.56 Q2298.66 1564.56 2296.39 1564.19 Q2294.14 1563.82 2291.74 1563.08 L2291.74 1558.38 Q2293.82 1559.51 2296.04 1560.07 Q2298.26 1560.62 2300.74 1560.62 Q2304.75 1560.62 2307.08 1558.52 Q2309.42 1556.41 2309.42 1552.8 Q2309.42 1549.19 2307.08 1547.08 Q2304.75 1544.98 2300.74 1544.98 Q2298.87 1544.98 2296.99 1545.39 Q2295.14 1545.81 2293.2 1546.69 L2293.2 1529.33 Z" fill="#000000" fill-rule="nonzero" fill-opacity="1" /><path clip-path="url(#clip680)" d="M2333.31 1532.41 Q2329.7 1532.41 2327.87 1535.97 Q2326.07 1539.51 2326.07 1546.64 Q2326.07 1553.75 2327.87 1557.31 Q2329.7 1560.86 2333.31 1560.86 Q2336.94 1560.86 2338.75 1557.31 Q2340.58 1553.75 2340.58 1546.64 Q2340.58 1539.51 2338.75 1535.97 Q2336.94 1532.41 2333.31 1532.41 M2333.31 1528.7 Q2339.12 1528.7 2342.18 1533.31 Q2345.25 1537.89 2345.25 1546.64 Q2345.25 1555.37 2342.18 1559.98 Q2339.12 1564.56 2333.31 1564.56 Q2327.5 1564.56 2324.42 1559.98 Q2321.37 1555.37 2321.37 1546.64 Q2321.37 1537.89 2324.42 1533.31 Q2327.5 1528.7 2333.31 1528.7 Z" fill="#000000" fill-rule="nonzero" fill-opacity="1" /><path clip-path="url(#clip680)" d="M2363.47 1532.41 Q2359.86 1532.41 2358.03 1535.97 Q2356.23 1539.51 2356.23 1546.64 Q2356.23 1553.75 2358.03 1557.31 Q2359.86 1560.86 2363.47 1560.86 Q2367.11 1560.86 2368.91 1557.31 Q2370.74 1553.75 2370.74 1546.64 Q2370.74 1539.51 2368.91 1535.97 Q2367.11 1532.41 2363.47 1532.41 M2363.47 1528.7 Q2369.28 1528.7 2372.34 1533.31 Q2375.42 1537.89 2375.42 1546.64 Q2375.42 1555.37 2372.34 1559.98 Q2369.28 1564.56 2363.47 1564.56 Q2357.66 1564.56 2354.58 1559.98 Q2351.53 1555.37 2351.53 1546.64 Q2351.53 1537.89 2354.58 1533.31 Q2357.66 1528.7 2363.47 1528.7 Z" fill="#000000" fill-rule="nonzero" fill-opacity="1" /><path clip-path="url(#clip680)" d="M2730.27 1544.74 Q2727.12 1544.74 2725.27 1546.9 Q2723.44 1549.05 2723.44 1552.8 Q2723.44 1556.53 2725.27 1558.7 Q2727.12 1560.86 2730.27 1560.86 Q2733.42 1560.86 2735.24 1558.7 Q2737.1 1556.53 2737.1 1552.8 Q2737.1 1549.05 2735.24 1546.9 Q2733.42 1544.74 2730.27 1544.74 M2739.55 1530.09 L2739.55 1534.35 Q2737.79 1533.52 2735.99 1533.08 Q2734.2 1532.64 2732.44 1532.64 Q2727.81 1532.64 2725.36 1535.76 Q2722.93 1538.89 2722.58 1545.21 Q2723.95 1543.19 2726.01 1542.13 Q2728.07 1541.04 2730.55 1541.04 Q2735.75 1541.04 2738.76 1544.21 Q2741.8 1547.36 2741.8 1552.8 Q2741.8 1558.12 2738.65 1561.34 Q2735.5 1564.56 2730.27 1564.56 Q2724.27 1564.56 2721.1 1559.98 Q2717.93 1555.37 2717.93 1546.64 Q2717.93 1538.45 2721.82 1533.59 Q2725.71 1528.7 2732.26 1528.7 Q2734.02 1528.7 2735.8 1529.05 Q2737.61 1529.4 2739.55 1530.09 Z" fill="#000000" fill-rule="nonzero" fill-opacity="1" /><path clip-path="url(#clip680)" d="M2759.85 1532.41 Q2756.24 1532.41 2754.41 1535.97 Q2752.61 1539.51 2752.61 1546.64 Q2752.61 1553.75 2754.41 1557.31 Q2756.24 1560.86 2759.85 1560.86 Q2763.49 1560.86 2765.29 1557.31 Q2767.12 1553.75 2767.12 1546.64 Q2767.12 1539.51 2765.29 1535.97 Q2763.49 1532.41 2759.85 1532.41 M2759.85 1528.7 Q2765.66 1528.7 2768.72 1533.31 Q2771.8 1537.89 2771.8 1546.64 Q2771.8 1555.37 2768.72 1559.98 Q2765.66 1564.56 2759.85 1564.56 Q2754.04 1564.56 2750.96 1559.98 Q2747.91 1555.37 2747.91 1546.64 Q2747.91 1537.89 2750.96 1533.31 Q2754.04 1528.7 2759.85 1528.7 Z" fill="#000000" fill-rule="nonzero" fill-opacity="1" /><path clip-path="url(#clip680)" d="M2790.01 1532.41 Q2786.4 1532.41 2784.57 1535.97 Q2782.77 1539.51 2782.77 1546.64 Q2782.77 1553.75 2784.57 1557.31 Q2786.4 1560.86 2790.01 1560.86 Q2793.65 1560.86 2795.45 1557.31 Q2797.28 1553.75 2797.28 1546.64 Q2797.28 1539.51 2795.45 1535.97 Q2793.65 1532.41 2790.01 1532.41 M2790.01 1528.7 Q2795.82 1528.7 2798.88 1533.31 Q2801.96 1537.89 2801.96 1546.64 Q2801.96 1555.37 2798.88 1559.98 Q2795.82 1564.56 2790.01 1564.56 Q2784.2 1564.56 2781.12 1559.98 Q2778.07 1555.37 2778.07 1546.64 Q2778.07 1537.89 2781.12 1533.31 Q2784.2 1528.7 2790.01 1528.7 Z" fill="#000000" fill-rule="nonzero" fill-opacity="1" /><polyline clip-path="url(#clip680)" style="stroke:#000000; stroke-linecap:round; stroke-linejoin:round; stroke-width:4; stroke-opacity:1; fill:none" points="120.177,1495.09 120.177,47.2441 "/>
<polyline clip-path="url(#clip680)" style="stroke:#000000; stroke-linecap:round; stroke-linejoin:round; stroke-width:4; stroke-opacity:1; fill:none" points="120.177,1454.11 139.075,1454.11 "/>
<polyline clip-path="url(#clip680)" style="stroke:#000000; stroke-linecap:round; stroke-linejoin:round; stroke-width:4; stroke-opacity:1; fill:none" points="120.177,1124.12 139.075,1124.12 "/>
<polyline clip-path="url(#clip680)" style="stroke:#000000; stroke-linecap:round; stroke-linejoin:round; stroke-width:4; stroke-opacity:1; fill:none" points="120.177,794.131 139.075,794.131 "/>
<polyline clip-path="url(#clip680)" style="stroke:#000000; stroke-linecap:round; stroke-linejoin:round; stroke-width:4; stroke-opacity:1; fill:none" points="120.177,464.14 139.075,464.14 "/>
<polyline clip-path="url(#clip680)" style="stroke:#000000; stroke-linecap:round; stroke-linejoin:round; stroke-width:4; stroke-opacity:1; fill:none" points="120.177,134.15 139.075,134.15 "/>
<path clip-path="url(#clip680)" d="M60.2328 1439.91 Q56.6217 1439.91 54.793 1443.47 Q52.9875 1447.02 52.9875 1454.15 Q52.9875 1461.25 54.793 1464.82 Q56.6217 1468.36 60.2328 1468.36 Q63.867 1468.36 65.6726 1464.82 Q67.5013 1461.25 67.5013 1454.15 Q67.5013 1447.02 65.6726 1443.47 Q63.867 1439.91 60.2328 1439.91 M60.2328 1436.21 Q66.0429 1436.21 69.0985 1440.81 Q72.1772 1445.4 72.1772 1454.15 Q72.1772 1462.87 69.0985 1467.48 Q66.0429 1472.06 60.2328 1472.06 Q54.4226 1472.06 51.344 1467.48 Q48.2884 1462.87 48.2884 1454.15 Q48.2884 1445.4 51.344 1440.81 Q54.4226 1436.21 60.2328 1436.21 Z" fill="#000000" fill-rule="nonzero" fill-opacity="1" /><path clip-path="url(#clip680)" d="M55.8578 1137.47 L72.1772 1137.47 L72.1772 1141.4 L50.2328 1141.4 L50.2328 1137.47 Q52.8949 1134.71 57.4782 1130.08 Q62.0846 1125.43 63.2652 1124.09 Q65.5105 1121.56 66.3902 1119.83 Q67.2929 1118.07 67.2929 1116.38 Q67.2929 1113.62 65.3485 1111.89 Q63.4272 1110.15 60.3254 1110.15 Q58.1263 1110.15 55.6726 1110.91 Q53.2421 1111.68 50.4643 1113.23 L50.4643 1108.51 Q53.2884 1107.37 55.7421 1106.79 Q58.1958 1106.22 60.2328 1106.22 Q65.6031 1106.22 68.7976 1108.9 Q71.992 1111.59 71.992 1116.08 Q71.992 1118.21 71.1818 1120.13 Q70.3948 1122.03 68.2883 1124.62 Q67.7096 1125.29 64.6078 1128.51 Q61.5059 1131.7 55.8578 1137.47 Z" fill="#000000" fill-rule="nonzero" fill-opacity="1" /><path clip-path="url(#clip680)" d="M62.5939 780.925 L50.7884 799.374 L62.5939 799.374 L62.5939 780.925 M61.367 776.851 L67.2466 776.851 L67.2466 799.374 L72.1772 799.374 L72.1772 803.262 L67.2466 803.262 L67.2466 811.411 L62.5939 811.411 L62.5939 803.262 L46.9921 803.262 L46.9921 798.749 L61.367 776.851 Z" fill="#000000" fill-rule="nonzero" fill-opacity="1" /><path clip-path="url(#clip680)" d="M60.6495 462.277 Q57.5013 462.277 55.6495 464.43 Q53.8208 466.582 53.8208 470.332 Q53.8208 474.059 55.6495 476.235 Q57.5013 478.388 60.6495 478.388 Q63.7976 478.388 65.6263 476.235 Q67.4781 474.059 67.4781 470.332 Q67.4781 466.582 65.6263 464.43 Q63.7976 462.277 60.6495 462.277 M69.9318 447.624 L69.9318 451.883 Q68.1726 451.05 66.367 450.61 Q64.5846 450.17 62.8254 450.17 Q58.1958 450.17 55.7421 453.295 Q53.3115 456.42 52.9643 462.74 Q54.33 460.726 56.3902 459.661 Q58.4504 458.573 60.9272 458.573 Q66.1355 458.573 69.1448 461.744 Q72.1772 464.893 72.1772 470.332 Q72.1772 475.656 69.029 478.874 Q65.8809 482.092 60.6495 482.092 Q54.6541 482.092 51.4828 477.508 Q48.3116 472.902 48.3116 464.175 Q48.3116 455.981 52.2004 451.119 Q56.0893 446.235 62.6402 446.235 Q64.3994 446.235 66.1818 446.582 Q67.9874 446.93 69.9318 447.624 Z" fill="#000000" fill-rule="nonzero" fill-opacity="1" /><path clip-path="url(#clip680)" d="M60.3254 135.018 Q56.9921 135.018 55.0708 136.8 Q53.1726 138.583 53.1726 141.708 Q53.1726 144.833 55.0708 146.615 Q56.9921 148.398 60.3254 148.398 Q63.6587 148.398 65.58 146.615 Q67.5013 144.81 67.5013 141.708 Q67.5013 138.583 65.58 136.8 Q63.6819 135.018 60.3254 135.018 M55.6495 133.027 Q52.6402 132.287 50.9504 130.226 Q49.2838 128.166 49.2838 125.203 Q49.2838 121.06 52.2236 118.652 Q55.1865 116.245 60.3254 116.245 Q65.4874 116.245 68.4272 118.652 Q71.367 121.06 71.367 125.203 Q71.367 128.166 69.6772 130.226 Q68.0105 132.287 65.0244 133.027 Q68.404 133.814 70.279 136.106 Q72.1772 138.398 72.1772 141.708 Q72.1772 146.731 69.0985 149.416 Q66.0429 152.101 60.3254 152.101 Q54.6078 152.101 51.5291 149.416 Q48.4736 146.731 48.4736 141.708 Q48.4736 138.398 50.3717 136.106 Q52.2699 133.814 55.6495 133.027 M53.9365 125.643 Q53.9365 128.328 55.6032 129.833 Q57.293 131.337 60.3254 131.337 Q63.3346 131.337 65.0244 129.833 Q66.7374 128.328 66.7374 125.643 Q66.7374 122.958 65.0244 121.453 Q63.3346 119.949 60.3254 119.949 Q57.293 119.949 55.6032 121.453 Q53.9365 122.958 53.9365 125.643 Z" fill="#000000" fill-rule="nonzero" fill-opacity="1" /><polyline clip-path="url(#clip682)" style="stroke:#009af9; stroke-linecap:round; stroke-linejoin:round; stroke-width:4; stroke-opacity:1; fill:none" points="206.005,740.421 210.269,762.188 214.532,773.051 218.796,787.091 223.06,819.863 227.323,841.489 231.587,812.767 235.851,818.529 240.114,789.438 244.378,768.917 248.642,736.384 252.905,726.595 257.169,723.639 261.433,741.979 265.696,784.277 269.96,805.28 274.224,813.259 278.487,822.307 282.751,818.677 287.015,813.518 291.278,788.956 295.542,741.069 299.806,725.549 304.069,736.028 308.333,723.398 312.597,768.971 316.86,771.667 321.124,810.996 325.388,805.56 329.651,826.568 333.915,816.177 338.179,804.67 342.442,775.276 346.706,754.188 350.97,725.121 355.233,743.506 359.497,736.392 363.761,753.289 368.024,791.787 372.288,788.974 376.552,833.226 380.815,830.987 385.079,814.957 389.343,793.232 393.606,790.034 397.87,767.465 402.134,735.775 406.397,714.783 410.661,723.743 414.925,737.127 419.188,765.002 423.452,807.304 427.716,806.44 431.979,839.247 436.243,823.459 440.507,801.349 444.77,783.793 449.034,760.996 453.298,721.289 457.561,740.742 461.825,748.656 466.089,762.163 470.352,785.547 474.616,792.903 478.88,811.03 483.143,830.933 487.407,824.001 491.671,811.426 495.935,784.382 500.198,753.734 504.462,718.825 508.726,729.523 512.989,738.718 517.253,750.831 521.517,766.414 525.78,805.567 530.044,815.517 534.308,833.634 538.571,836.407 542.835,802.639 547.099,768.823 551.362,744.84 555.626,719.747 559.89,742.57 564.153,733.345 568.417,760.816 572.681,764.651 576.944,807.855 581.208,807.247 585.472,822.983 589.735,826.281 593.999,801.671 598.263,778.661 602.526,745.471 606.79,748.76 611.054,735.823 615.317,730.401 619.581,765.477 623.845,789.979 628.108,795.726 632.372,815.828 636.636,821.143 640.899,828.524 645.163,815.225 649.427,762.184 653.69,741.578 657.954,719.027 662.218,716.386 666.481,745.404 670.745,751.935 675.009,784.942 679.272,790.059 683.536,809.35 687.8,829.042 692.063,835.239 696.327,811.07 700.591,782.55 704.854,755.543 709.118,718.455 713.382,723.995 717.645,743.491 721.909,754.808 726.173,772.208 730.436,800.525 734.7,808.518 738.964,824.774 743.227,820.112 747.491,814.594 751.755,773.867 756.018,749.102 760.282,724.663 764.546,721.883 768.809,719.036 773.073,763.119 777.337,784.186 781.6,806.814 785.864,825.863 790.128,812.325 794.391,805.52 798.655,796.928 802.919,771.018 807.183,754.486 811.446,749.063 815.71,713.737 819.974,728.602 824.237,763.331 828.501,762.734 832.765,807.497 837.028,812.039 841.292,823.646 845.556,826.416 849.819,817.074 854.083,767.635 858.347,743.411 862.61,733.396 866.874,714.949 871.138,722.45 875.401,740.296 879.665,791.04 883.929,810.371 888.192,813.247 892.456,813.744 896.72,810.555 900.983,809.842 905.247,786.542 909.511,741.154 913.774,740.557 918.038,724.851 922.302,745.071 926.565,766.387 930.829,781.295 935.093,814.847 939.356,819.887 943.62,834.081 947.884,808.497 952.147,793.941 956.411,781.524 960.675,753.72 964.938,719.941 969.202,728.483 973.466,747.378 977.729,761.862 981.993,765.144 986.257,801.477 990.52,836.475 994.784,825.019 999.048,820.862 1003.31,795.702 1007.58,780.498 1011.84,739.661 1016.1,737.512 1020.37,724.519 1024.63,723.837 1028.89,743.785 1033.16,791.742 1037.42,800.65 1041.68,812.658 1045.95,824.768 1050.21,811.238 1054.48,808.003 1058.74,768.486 1063,760.538 1067.27,735.709 1071.53,720.575 1075.79,731.024 1080.06,744.142 1084.32,767.67 1088.58,796.438 1092.85,806.725 1097.11,827.134 1101.38,811.156 1105.64,801.769 1109.9,787.589 1114.17,768.934 1118.43,741.541 1122.69,740.633 1126.96,748.239 1131.22,753.818 1135.49,788.235 1139.75,808.666 1144.01,829.855 1148.28,833.866 1152.54,828.801 1156.8,810.951 1161.07,763.755 1165.33,751.549 1169.59,733.572 1173.86,737.238 1178.12,733.911 1182.39,762.236 1186.65,785.657 1190.91,796.246 1195.18,816.043 1199.44,833.659 1203.7,820.659 1207.97,805.128 1212.23,794.259 1216.49,741.127 1220.76,721.946 1225.02,717.593 1229.29,744.801 1233.55,767.861 1237.81,775.779 1242.08,795.384 1246.34,821.972 1250.6,824.376 1254.87,829.074 1259.13,801.926 1263.4,763.926 1267.66,762.441 1271.92,725.729 1276.19,743.761 1280.45,724.129 1284.71,751.658 1288.98,768.601 1293.24,816.559 1297.5,812.741 1301.77,840.403 1306.03,807.025 1310.3,800.225 1314.56,778.185 1318.82,754.897 1323.09,743.608 1327.35,739.076 1331.61,728.987 1335.88,760.626 1340.14,768.019 1344.41,790.727 1348.67,816.743 1352.93,836.688 1357.2,820.602 1361.46,815.857 1365.72,783.526 1369.99,769.469 1374.25,728.952 1378.51,730.43 1382.78,727.873 1387.04,768.337 1391.31,786.13 1395.57,788.473 1399.83,817.01 1404.1,813.053 1408.36,805.674 1412.62,793.051 1416.89,768.017 1421.15,747.065 1425.41,737.84 1429.68,721.3 1433.94,735.054 1438.21,750.25 1442.47,779.266 1446.73,805.424 1451,814.7 1455.26,821.693 1459.52,825.1 1463.79,808.698 1468.05,768.818 1472.32,762.513 1476.58,739.632 1480.84,744.578 1485.11,727.09 1489.37,743.305 1493.63,783.76 1497.9,786.315 1502.16,820.763 1506.42,841.642 1510.69,807.839 1514.95,817.415 1519.22,784.128 1523.48,749.453 1527.74,720.478 1532.01,729.996 1536.27,720.152 1540.53,739.57 1544.8,787.409 1549.06,809.873 1553.32,835.889 1557.59,812.662 1561.85,815.409 1566.12,800.111 1570.38,771.407 1574.64,738.197 1578.91,739.73 1583.17,744.162 1587.43,732.269 1591.7,750.175 1595.96,777.083 1600.23,786.601 1604.49,832.798 1608.75,813.661 1613.02,811.678 1617.28,809.463 1621.54,787.873 1625.81,748.394 1630.07,722.922 1634.33,728.769 1638.6,730.472 1642.86,758.545 1647.13,780.792 1651.39,791.478 1655.65,824.089 1659.92,841.931 1664.18,828.897 1668.44,790.768 1672.71,791.024 1676.97,753.553 1681.24,741.95 1685.5,722.275 1689.76,725.615 1694.03,765.487 1698.29,793.636 1702.55,818.252 1706.82,816.425 1711.08,837.413 1715.34,823.511 1719.61,817.829 1723.87,769.418 1728.14,762.491 1732.4,732.612 1736.66,711.838 1740.93,735.023 1745.19,745.247 1749.45,781.375 1753.72,803.711 1757.98,816.296 1762.24,841.071 1766.51,804.339 1770.77,792.477 1775.04,777.482 1779.3,749.011 1783.56,734.21 1787.83,730.965 1792.09,748.902 1796.35,751.657 1800.62,787.293 1804.88,792.145 1809.15,831.697 1813.41,833.661 1817.67,821.868 1821.94,797.733 1826.2,769.227 1830.46,742.575 1834.73,719.249 1838.99,721.666 1843.25,737.26 1847.52,768.272 1851.78,778.624 1856.05,800.577 1860.31,808.333 1864.57,824.142 1868.84,810.207 1873.1,790.79 1877.36,770.945 1881.63,761.555 1885.89,740.251 1890.15,726.79 1894.42,747.415 1898.68,749.376 1902.95,787.343 1907.21,808.785 1911.47,810.188 1915.74,833.78 1920,821.013 1924.26,808.912 1928.53,762.897 1932.79,754.33 1937.06,729.192 1941.32,725.939 1945.58,730.161 1949.85,757.864 1954.11,765.532 1958.37,805.388 1962.64,819.959 1966.9,836.068 1971.16,805.165 1975.43,811.991 1979.69,768.669 1983.96,740.954 1988.22,736.369 1992.48,728.744 1996.75,733.843 2001.01,758.364 2005.27,768.765 2009.54,792.795 2013.8,812.302 2018.07,822.786 2022.33,811.366 2026.59,816.889 2030.86,781.881 2035.12,739.16 2039.38,733.645 2043.65,724.974 2047.91,749.112 2052.17,747.711 2056.44,764.591 2060.7,809.38 2064.97,808.787 2069.23,820.095 2073.49,820.377 2077.76,818.875 2082.02,772.356 2086.28,752.536 2090.55,730.264 2094.81,721.488 2099.07,727.687 2103.34,753.436 2107.6,784.63 2111.87,815.792 2116.13,807.901 2120.39,832.676 2124.66,827.74 2128.92,812.524 2133.18,768.525 2137.45,739 2141.71,747.175 2145.98,741.988 2150.24,724.041 2154.5,750.674 2158.77,784.231 2163.03,807.348 2167.29,810.558 2171.56,841.277 2175.82,812.986 2180.08,790.826 2184.35,789.944 2188.61,739.04 2192.88,720.581 2197.14,719.421 2201.4,742.193 2205.67,739.96 2209.93,773.027 2214.19,796.646 2218.46,833.634 2222.72,836.863 2226.98,815.743 2231.25,794.332 2235.51,768.059 2239.78,751.226 2244.04,750.53 2248.3,738.027 2252.57,743.542 2256.83,741.59 2261.09,764.136 2265.36,810.092 2269.62,818.202 2273.89,824.36 2278.15,834.083 2282.41,791.17 2286.68,764.799 2290.94,755.301 2295.2,746.931 2299.47,720.942 2303.73,735.88 2307.99,743.049 2312.26,765.353 2316.52,816.039 2320.79,812.264 2325.05,827.443 2329.31,835.354 2333.58,816.006 2337.84,788.497 2342.1,762.503 2346.37,741.26 2350.63,732.95 2354.9,728.879 2359.16,745.159 2363.42,767.386 2367.69,788.783 2371.95,804.857 2376.21,837.813 2380.48,805.892 2384.74,794.908 2389,783.553 2393.27,747.556 2397.53,746.884 2401.8,733.487 2406.06,719.626 2410.32,756.066 2414.59,785.368 2418.85,787.548 2423.11,836.693 2427.38,813.475 2431.64,820.765 2435.9,795.898 2440.17,768.302 2444.43,758.179 2448.7,744.309 2452.96,728.899 2457.22,749.607 2461.49,759.939 2465.75,764.505 2470.01,799.107 2474.28,835.758 2478.54,825.185 2482.81,827.322 2487.07,792.513 2491.33,786.224 2495.6,753.255 2499.86,731.533 2504.12,726.364 2508.39,719.697 2512.65,757.456 2516.91,775.282 2521.18,792.986 2525.44,804.586 2529.71,826.831 2533.97,827.855 2538.23,792.999 2542.5,773.452 2546.76,758.454 2551.02,749.568 2555.29,741.676 2559.55,736.803 2563.82,745.472 2568.08,766.754 2572.34,806.786 2576.61,808.743 2580.87,815.314 2585.13,831.743 2589.4,786.625 2593.66,761.265 2597.92,754.654 2602.19,743.816 2606.45,737.984 2610.72,732.381 2614.98,753.968 2619.24,793.143 2623.51,798.696 2627.77,823.616 2632.03,842.643 2636.3,825.83 2640.56,804.963 2644.82,792.011 2649.09,741.817 2653.35,725.082 2657.62,714.845 2661.88,721.352 2666.14,747.456 2670.41,771.623 2674.67,808.268 2678.93,811.182 2683.2,813.672 2687.46,808.16 2691.73,791.721 2695.99,792.42 2700.25,754.552 2704.52,739.627 2708.78,731.678 2713.04,724.124 2717.31,762.778 2721.57,761.334 2725.83,792.469 2730.1,812.709 2734.36,814.39 2738.63,829.981 2742.89,791.179 2747.15,765.645 2751.42,749.588 2755.68,749.755 2759.94,740.918 2764.21,719.212 2768.47,747.654 2772.73,766.927 2777,818.504 2781.26,821.087 2785.53,833.45 2789.79,833.779 2794.05,797.372 2798.32,788.129 2802.58,743.038 2806.84,721.024 2811.11,728.614 2815.37,738.167 2819.64,757.968 2823.9,778.268 2828.16,806.841 2832.43,808.032 2836.69,813.937 2840.95,804.772 2845.22,790.754 2849.48,777.258 2853.74,769.244 2858.01,732.301 2862.27,729.748 2866.54,741.491 2870.8,761.033 2875.06,780.82 2879.33,794.029 2883.59,807.947 2887.85,841.009 2892.12,821.407 2896.38,805.262 2900.65,789.387 2904.91,739.901 2909.17,744.828 2913.44,724 2917.7,749.989 2921.96,742.196 2926.23,770.016 2930.49,789.609 2934.75,822.2 2939.02,812.81 2943.28,828.69 2947.55,788.71 2951.81,785.486 2956.07,741.642 2960.34,726.962 2964.6,722.46 2968.86,741.508 2973.13,767.381 2977.39,772.776 2981.65,792.599 2985.92,833.328 2990.18,820.659 2994.45,808.331 2998.71,800.255 3002.97,793.537 3007.24,742.77 3011.5,743.694 3015.76,713.962 3020.03,743.074 3024.29,768.137 3028.56,775.244 3032.82,808.211 3037.08,808.216 3041.35,824.398 3045.61,817.284 3049.87,799.881 3054.14,775.069 3058.4,747.044 3062.66,738.469 3066.93,717.344 "/>
<polyline clip-path="url(#clip682)" style="stroke:#e26f46; stroke-linecap:round; stroke-linejoin:round; stroke-width:4; stroke-opacity:1; fill:none" points="206.005,1454.11 210.269,1454.11 214.532,1454.11 218.796,1454.11 223.06,1454.11 227.323,1454.11 231.587,1364.07 235.851,1191.9 240.114,1008.46 244.378,900.25 248.642,758.211 252.905,724.965 257.169,813.094 261.433,803.399 265.696,925.275 269.96,999.855 274.224,1162.49 278.487,1363.28 282.751,1454.11 287.015,1454.11 291.278,1454.11 295.542,1454.11 299.806,1454.11 304.069,1454.11 308.333,1454.11 312.597,1454.11 316.86,1454.11 321.124,1454.11 325.388,1454.11 329.651,1454.11 333.915,1392.67 338.179,1290.17 342.442,1214.26 346.706,1128.78 350.97,1086.08 355.233,1051.5 359.497,1052.04 363.761,1072 368.024,1112.18 372.288,1181.67 376.552,1285.05 380.815,1395.8 385.079,1454.11 389.343,1454.11 393.606,1454.11 397.87,1454.11 402.134,1454.11 406.397,1454.11 410.661,1454.11 414.925,1454.11 419.188,1454.11 423.452,1454.11 427.716,1454.11 431.979,1454.11 436.243,1345.29 440.507,1146.33 444.77,989.013 449.034,874.64 453.298,694.938 457.561,751.737 461.825,666.782 466.089,771.27 470.352,794.302 474.616,1011.07 478.88,1134.01 483.143,1344.82 487.407,1454.11 491.671,1454.11 495.935,1454.11 500.198,1454.11 504.462,1454.11 508.726,1454.11 512.989,1454.11 517.253,1454.11 521.517,1454.11 525.78,1454.11 530.044,1454.11 534.308,1454.11 538.571,1326.29 542.835,1106.43 547.099,853.344 551.362,684.731 555.626,566.338 559.89,612.007 564.153,488.365 568.417,580.775 572.681,729.287 576.944,861.272 581.208,1109.97 585.472,1344.43 589.735,1454.11 593.999,1454.11 598.263,1454.11 602.526,1454.11 606.79,1454.11 611.054,1454.11 615.317,1454.11 619.581,1454.11 623.845,1454.11 628.108,1454.11 632.372,1454.11 636.636,1454.11 640.899,1372.53 645.163,1196.49 649.427,1069.81 653.69,972.944 657.954,863.727 662.218,830.325 666.481,820.961 670.745,826.253 675.009,974.525 679.272,1034.51 683.536,1221.42 687.8,1366.55 692.063,1454.11 696.327,1454.11 700.591,1454.11 704.854,1454.11 709.118,1454.11 713.382,1454.11 717.645,1454.11 721.909,1454.11 726.173,1454.11 730.436,1454.11 734.7,1454.11 738.964,1454.11 743.227,1365.09 747.491,1206.79 751.755,993.43 756.018,860.825 760.282,760.539 764.546,733.819 768.809,826.797 773.073,802.82 777.337,901.287 781.6,1013.43 785.864,1205.18 790.128,1367.63 794.391,1454.11 798.655,1454.11 802.919,1454.11 807.183,1454.11 811.446,1454.11 815.71,1454.11 819.974,1454.11 824.237,1454.11 828.501,1454.11 832.765,1454.11 837.028,1454.11 841.292,1454.11 845.556,1425.21 849.819,1363.81 854.083,1308.35 858.347,1254 862.61,1254.94 866.874,1234.86 871.138,1241.54 875.401,1238.48 879.665,1283.28 883.929,1302.26 888.192,1363.6 892.456,1422.46 896.72,1454.11 900.983,1454.11 905.247,1454.11 909.511,1454.11 913.774,1454.11 918.038,1454.11 922.302,1454.11 926.565,1454.11 930.829,1454.11 935.093,1454.11 939.356,1454.11 943.62,1454.11 947.884,1423.2 952.147,1348.57 956.411,1297.06 960.675,1237.52 964.938,1219.22 969.202,1214.47 973.466,1206.45 977.729,1236.82 981.993,1250.01 986.257,1305.05 990.52,1348.14 994.784,1420.1 999.048,1454.11 1003.31,1454.11 1007.58,1454.11 1011.84,1454.11 1016.1,1454.11 1020.37,1454.11 1024.63,1454.11 1028.89,1454.11 1033.16,1454.11 1037.42,1454.11 1041.68,1454.11 1045.95,1454.11 1050.21,1371.64 1054.48,1246.42 1058.74,1080.44 1063,986.974 1067.27,952.7 1071.53,851.259 1075.79,850.223 1080.06,930.788 1084.32,991.635 1088.58,1116.33 1092.85,1226.43 1097.11,1374.32 1101.38,1454.11 1105.64,1454.11 1109.9,1454.11 1114.17,1454.11 1118.43,1454.11 1122.69,1454.11 1126.96,1454.11 1131.22,1454.11 1135.49,1454.11 1139.75,1454.11 1144.01,1454.11 1148.28,1454.11 1152.54,1447.31 1156.8,1431.47 1161.07,1422.15 1165.33,1409.88 1169.59,1405.09 1173.86,1401.62 1178.12,1399.03 1182.39,1399.92 1186.65,1408.58 1190.91,1417.63 1195.18,1433.31 1199.44,1446.95 1203.7,1454.11 1207.97,1454.11 1212.23,1454.11 1216.49,1454.11 1220.76,1454.11 1225.02,1454.11 1229.29,1454.11 1233.55,1454.11 1237.81,1454.11 1242.08,1454.11 1246.34,1454.11 1250.6,1454.11 1254.87,1451.49 1259.13,1446.69 1263.4,1440.8 1267.66,1438.86 1271.92,1436.68 1276.19,1433.5 1280.45,1434.15 1284.71,1434.59 1288.98,1437.73 1293.24,1442.5 1297.5,1445.59 1301.77,1451.61 1306.03,1454.11 1310.3,1454.11 1314.56,1454.11 1318.82,1454.11 1323.09,1454.11 1327.35,1454.11 1331.61,1454.11 1335.88,1454.11 1340.14,1454.11 1344.41,1454.11 1348.67,1454.11 1352.93,1454.11 1357.2,1399.63 1361.46,1287.91 1365.72,1193.91 1369.99,1104.65 1374.25,1071.75 1378.51,1002.59 1382.78,1027.79 1387.04,1028.01 1391.31,1104.45 1395.57,1183.94 1399.83,1287.74 1404.1,1393.47 1408.36,1454.11 1412.62,1454.11 1416.89,1454.11 1421.15,1454.11 1425.41,1454.11 1429.68,1454.11 1433.94,1454.11 1438.21,1454.11 1442.47,1454.11 1446.73,1454.11 1451,1454.11 1455.26,1454.11 1459.52,1449.31 1463.79,1438.11 1468.05,1429.51 1472.32,1425.51 1476.58,1419.4 1480.84,1412.81 1485.11,1418.63 1489.37,1419.42 1493.63,1422.37 1497.9,1432.54 1502.16,1440.09 1506.42,1449.24 1510.69,1454.11 1514.95,1454.11 1519.22,1454.11 1523.48,1454.11 1527.74,1454.11 1532.01,1454.11 1536.27,1454.11 1540.53,1454.11 1544.8,1454.11 1549.06,1454.11 1553.32,1454.11 1557.59,1454.11 1561.85,1426.97 1566.12,1366.48 1570.38,1320.97 1574.64,1267.33 1578.91,1230.67 1583.17,1221.99 1587.43,1211.25 1591.7,1236.16 1595.96,1268.93 1600.23,1308.62 1604.49,1369.73 1608.75,1422.34 1613.02,1454.11 1617.28,1454.11 1621.54,1454.11 1625.81,1454.11 1630.07,1454.11 1634.33,1454.11 1638.6,1454.11 1642.86,1454.11 1647.13,1454.11 1651.39,1454.11 1655.65,1454.11 1659.92,1454.11 1664.18,1432.45 1668.44,1387.69 1672.71,1363.11 1676.97,1312.52 1681.24,1310.2 1685.5,1278.86 1689.76,1302.56 1694.03,1312.94 1698.29,1313.99 1702.55,1349.83 1706.82,1396.41 1711.08,1432.38 1715.34,1454.11 1719.61,1454.11 1723.87,1454.11 1728.14,1454.11 1732.4,1454.11 1736.66,1454.11 1740.93,1454.11 1745.19,1454.11 1749.45,1454.11 1753.72,1454.11 1757.98,1454.11 1762.24,1454.11 1766.51,1390.99 1770.77,1258.44 1775.04,1166.18 1779.3,1050.72 1783.56,1039.02 1787.83,951.272 1792.09,926.912 1796.35,1004.86 1800.62,1075.03 1804.88,1133.78 1809.15,1261.25 1813.41,1395.05 1817.67,1454.11 1821.94,1454.11 1826.2,1454.11 1830.46,1454.11 1834.73,1454.11 1838.99,1454.11 1843.25,1454.11 1847.52,1454.11 1851.78,1454.11 1856.05,1454.11 1860.31,1454.11 1864.57,1454.11 1868.84,1453.44 1873.1,1452.25 1877.36,1451.09 1881.63,1450.27 1885.89,1449.64 1890.15,1449.12 1894.42,1449.76 1898.68,1449.93 1902.95,1450.26 1907.21,1450.98 1911.47,1452.44 1915.74,1453.49 1920,1454.11 1924.26,1454.11 1928.53,1454.11 1932.79,1454.11 1937.06,1454.11 1941.32,1454.11 1945.58,1454.11 1949.85,1454.11 1954.11,1454.11 1958.37,1454.11 1962.64,1454.11 1966.9,1454.11 1971.16,1391.22 1975.43,1282.97 1979.69,1157.22 1983.96,1072.79 1988.22,1001.48 1992.48,969.845 1996.75,981.625 2001.01,1011.92 2005.27,1080.15 2009.54,1176.68 2013.8,1288.91 2018.07,1389.14 2022.33,1454.11 2026.59,1454.11 2030.86,1454.11 2035.12,1454.11 2039.38,1454.11 2043.65,1454.11 2047.91,1454.11 2052.17,1454.11 2056.44,1454.11 2060.7,1454.11 2064.97,1454.11 2069.23,1454.11 2073.49,1355.44 2077.76,1197.57 2082.02,1057.92 2086.28,939.862 2090.55,873.884 2094.81,775.712 2099.07,806.069 2103.34,773.074 2107.6,928.902 2111.87,1068.97 2116.13,1183.1 2120.39,1359.18 2124.66,1454.11 2128.92,1454.11 2133.18,1454.11 2137.45,1454.11 2141.71,1454.11 2145.98,1454.11 2150.24,1454.11 2154.5,1454.11 2158.77,1454.11 2163.03,1454.11 2167.29,1454.11 2171.56,1454.11 2175.82,1423.04 2180.08,1372.89 2184.35,1316.79 2188.61,1282.66 2192.88,1232.9 2197.14,1229.29 2201.4,1254.29 2205.67,1234.37 2209.93,1266.76 2214.19,1328.46 2218.46,1371.71 2222.72,1427.39 2226.98,1454.11 2231.25,1454.11 2235.51,1454.11 2239.78,1454.11 2244.04,1454.11 2248.3,1454.11 2252.57,1454.11 2256.83,1454.11 2261.09,1454.11 2265.36,1454.11 2269.62,1454.11 2273.89,1454.11 2278.15,1370.2 2282.41,1211.73 2286.68,1076.38 2290.94,948.841 2295.2,780.047 2299.47,739.495 2303.73,818.248 2307.99,843.723 2312.26,885.048 2316.52,1033.98 2320.79,1169.74 2325.05,1356.93 2329.31,1454.11 2333.58,1454.11 2337.84,1454.11 2342.1,1454.11 2346.37,1454.11 2350.63,1454.11 2354.9,1454.11 2359.16,1454.11 2363.42,1454.11 2367.69,1454.11 2371.95,1454.11 2376.21,1454.11 2380.48,1442.63 2384.74,1419.34 2389,1406.38 2393.27,1392.36 2397.53,1368.63 2401.8,1368.81 2406.06,1369.44 2410.32,1380.89 2414.59,1391.53 2418.85,1404.87 2423.11,1423.89 2427.38,1442.17 2431.64,1454.11 2435.9,1454.11 2440.17,1454.11 2444.43,1454.11 2448.7,1454.11 2452.96,1454.11 2457.22,1454.11 2461.49,1454.11 2465.75,1454.11 2470.01,1454.11 2474.28,1454.11 2478.54,1454.11 2482.81,1435.21 2487.07,1396.11 2491.33,1354.53 2495.6,1333.1 2499.86,1326.91 2504.12,1315.86 2508.39,1300.35 2512.65,1316.8 2516.91,1339.43 2521.18,1356.39 2525.44,1393.16 2529.71,1434.35 2533.97,1454.11 2538.23,1454.11 2542.5,1454.11 2546.76,1454.11 2551.02,1454.11 2555.29,1454.11 2559.55,1454.11 2563.82,1454.11 2568.08,1454.11 2572.34,1454.11 2576.61,1454.11 2580.87,1454.11 2585.13,1409.91 2589.4,1328.75 2593.66,1216.2 2597.92,1165.53 2602.19,1147.36 2606.45,1080.46 2610.72,1080.19 2614.98,1114.54 2619.24,1171.98 2623.51,1219.98 2627.77,1314.78 2632.03,1409.57 2636.3,1454.11 2640.56,1454.11 2644.82,1454.11 2649.09,1454.11 2653.35,1454.11 2657.62,1454.11 2661.88,1454.11 2666.14,1454.11 2670.41,1454.11 2674.67,1454.11 2678.93,1454.11 2683.2,1454.11 2687.46,1426.56 2691.73,1372.49 2695.99,1326.31 2700.25,1292.43 2704.52,1266.7 2708.78,1224.55 2713.04,1237.51 2717.31,1265.89 2721.57,1292.93 2725.83,1324.37 2730.1,1373.39 2734.36,1425.78 2738.63,1454.11 2742.89,1454.11 2747.15,1454.11 2751.42,1454.11 2755.68,1454.11 2759.94,1454.11 2764.21,1454.11 2768.47,1454.11 2772.73,1454.11 2777,1454.11 2781.26,1454.11 2785.53,1454.11 2789.79,1415.92 2794.05,1321.65 2798.32,1244.28 2802.58,1178.32 2806.84,1179.94 2811.11,1165.63 2815.37,1163.83 2819.64,1162.58 2823.9,1180.01 2828.16,1243.91 2832.43,1326 2836.69,1408.81 2840.95,1454.11 2845.22,1454.11 2849.48,1454.11 2853.74,1454.11 2858.01,1454.11 2862.27,1454.11 2866.54,1454.11 2870.8,1454.11 2875.06,1454.11 2879.33,1454.11 2883.59,1454.11 2887.85,1454.11 2892.12,1363.47 2896.38,1202.07 2900.65,1024.66 2904.91,956.373 2909.17,822.138 2913.44,733.954 2917.7,827.588 2921.96,778.138 2926.23,960.682 2930.49,1059.77 2934.75,1185.59 2939.02,1366.41 2943.28,1454.11 2947.55,1454.11 2951.81,1454.11 2956.07,1454.11 2960.34,1454.11 2964.6,1454.11 2968.86,1454.11 2973.13,1454.11 2977.39,1454.11 2981.65,1454.11 2985.92,1454.11 2990.18,1454.11 2994.45,1428.75 2998.71,1387.55 3002.97,1332.08 3007.24,1292.91 3011.5,1265.99 3015.76,1271.93 3020.03,1256.81 3024.29,1280.6 3028.56,1304.54 3032.82,1333.66 3037.08,1381.91 3041.35,1431.56 3045.61,1454.11 3049.87,1454.11 3054.14,1454.11 3058.4,1454.11 3062.66,1454.11 3066.93,1454.11 "/>
<polyline clip-path="url(#clip682)" style="stroke:#3da44d; stroke-linecap:round; stroke-linejoin:round; stroke-width:4; stroke-opacity:1; fill:none" points="206.005,848.818 210.269,808.92 214.532,761.631 218.796,683.971 223.06,577.021 227.323,544.81 231.587,434.211 235.851,359.665 240.114,236.15 244.378,227.584 248.642,261.439 252.905,214.47 257.169,138.104 261.433,203.759 265.696,342.006 269.96,289.814 274.224,472.328 278.487,532.813 282.751,633.098 287.015,699.327 291.278,767.604 295.542,816.151 299.806,846.726 304.069,860.127 308.333,849.683 312.597,819.19 316.86,773.088 321.124,705.893 325.388,587.115 329.651,539.75 333.915,469.361 338.179,401.922 342.442,331.277 346.706,234.3 350.97,240.133 355.233,215.24 359.497,188.572 363.761,219.177 368.024,314.588 372.288,328.727 376.552,375.004 380.815,488.089 385.079,638.096 389.343,705.226 393.606,755.419 397.87,810.694 402.134,848.221 406.397,860.127 410.661,848.296 414.925,815.708 419.188,770.531 423.452,690.595 427.716,628.166 431.979,515.058 436.243,414.539 440.507,406.984 444.77,291.769 449.034,186.455 453.298,178.338 457.561,127.424 461.825,192.775 466.089,206.571 470.352,331.183 474.616,293.295 478.88,386.673 483.143,561.28 487.407,615.061 491.671,689.955 495.935,768.034 500.198,818.596 504.462,848.697 508.726,860.127 512.989,850.007 517.253,815.023 521.517,752.001 525.78,701.57 530.044,601.017 534.308,484.9 538.571,400.405 542.835,285.619 547.099,286.398 551.362,248.652 555.626,243.67 559.89,94.7707 564.153,194.026 568.417,239.131 572.681,264.135 576.944,306.66 581.208,420.6 585.472,487.927 589.735,585.059 593.999,686.261 598.263,764.211 602.526,815.374 606.79,846.906 611.054,860.127 615.317,847.271 619.581,813.357 623.845,759.758 628.108,673.876 632.372,605.867 636.636,502.536 640.899,420.835 645.163,393.946 649.427,268.098 653.69,280.909 657.954,155.032 662.218,109.084 666.481,227.797 670.745,240.972 675.009,257.931 679.272,399.112 683.536,406.814 687.8,477.195 692.063,613.44 696.327,702.551 700.591,747.297 704.854,811.643 709.118,846.719 713.382,860.127 717.645,849.661 721.909,819.983 726.173,773.197 730.436,684.367 734.7,627.289 738.964,479.417 743.227,463.895 747.491,321.989 751.755,298.312 756.018,180.605 760.282,105.395 764.546,201.905 768.809,197.576 773.073,270.172 777.337,342.941 781.6,382.866 785.864,443.354 790.128,478.495 794.391,624.797 798.655,692.055 802.919,752.93 807.183,812.374 811.446,848.696 815.71,860.127 819.974,849.64 824.237,810.824 828.501,760.587 832.765,689.109 837.028,622.695 841.292,477.227 845.556,416.786 849.819,288.592 854.083,318.415 858.347,298.818 862.61,106.146 866.874,199.176 871.138,264.586 875.401,296.567 879.665,209.114 883.929,392.268 888.192,483.697 892.456,495.785 896.72,610.815 900.983,668.447 905.247,755.58 909.511,812.1 913.774,848.788 918.038,860.127 922.302,849.708 926.565,819.192 930.829,754.478 935.093,669.585 939.356,606.374 943.62,483.199 947.884,449.684 952.147,374.541 956.411,324.254 960.675,301.935 964.938,264.695 969.202,100.926 973.466,261.682 977.729,277.387 981.993,209.783 986.257,366.548 990.52,442.005 994.784,548.658 999.048,583.544 1003.31,692.78 1007.58,755.257 1011.84,812.414 1016.1,848.875 1020.37,860.127 1024.63,849.544 1028.89,816.493 1033.16,760.269 1037.42,667.371 1041.68,590.103 1045.95,533.862 1050.21,457.737 1054.48,341.493 1058.74,219.826 1063,141.474 1067.27,130.44 1071.53,134.08 1075.79,170.362 1080.06,170.638 1084.32,302.896 1088.58,384.695 1092.85,482.492 1097.11,527.144 1101.38,598.179 1105.64,677.864 1109.9,750.115 1114.17,810.773 1118.43,849.209 1122.69,860.127 1126.96,850.005 1131.22,811.752 1135.49,765.431 1139.75,667.457 1144.01,617.823 1148.28,488.217 1152.54,396.648 1156.8,361.57 1161.07,286.762 1165.33,295.996 1169.59,164.175 1173.86,218.31 1178.12,121.823 1182.39,297.167 1186.65,284.76 1190.91,340.169 1195.18,403.05 1199.44,497.756 1203.7,587.184 1207.97,684.584 1212.23,759.073 1216.49,815.24 1220.76,848.478 1225.02,860.127 1229.29,847.95 1233.55,811.639 1237.81,773.14 1242.08,688.373 1246.34,633.7 1250.6,527.87 1254.87,482.506 1259.13,295.516 1263.4,291.821 1267.66,142.523 1271.92,194.443 1276.19,124.278 1280.45,191.004 1284.71,268.293 1288.98,343.643 1293.24,313.041 1297.5,383.702 1301.77,474.819 1306.03,626.676 1310.3,699.62 1314.56,758.66 1318.82,811.208 1323.09,847.527 1327.35,860.127 1331.61,847.625 1335.88,819.635 1340.14,767.62 1344.41,678.882 1348.67,602.28 1352.93,490.649 1357.2,412.615 1361.46,348.885 1365.72,233.565 1369.99,163.141 1374.25,102.263 1378.51,172.954 1382.78,160.731 1387.04,191.054 1391.31,207.661 1395.57,341.412 1399.83,443.878 1404.1,491.926 1408.36,573.662 1412.62,689.717 1416.89,764.475 1421.15,812.267 1425.41,847.444 1429.68,860.127 1433.94,847.153 1438.21,815.545 1442.47,752.97 1446.73,673.647 1451,585.347 1455.26,497.712 1459.52,386.513 1463.79,325.096 1468.05,264.132 1472.32,181.047 1476.58,146.395 1480.84,241.462 1485.11,199.994 1489.37,280.749 1493.63,225.841 1497.9,366.206 1502.16,425.808 1506.42,529.746 1510.69,587.086 1514.95,690.744 1519.22,759.815 1523.48,814.717 1527.74,847.672 1532.01,860.127 1536.27,849.301 1540.53,814.989 1544.8,753.078 1549.06,681.035 1553.32,627.664 1557.59,551.615 1561.85,422.189 1566.12,347.891 1570.38,292.848 1574.64,235.706 1578.91,185.526 1583.17,192.968 1587.43,196.378 1591.7,191.217 1595.96,236.616 1600.23,382.17 1604.49,393.99 1608.75,542.625 1613.02,606.737 1617.28,700.201 1621.54,771.25 1625.81,816.712 1630.07,849.448 1634.33,860.127 1638.6,847.885 1642.86,817.59 1647.13,754.558 1651.39,701.113 1655.65,605.635 1659.92,525.876 1664.18,437.124 1668.44,392.252 1672.71,330.025 1676.97,182.701 1681.24,261.077 1685.5,199.452 1689.76,230.289 1694.03,165.404 1698.29,287.197 1702.55,399.515 1706.82,404.696 1711.08,561.503 1715.34,592.034 1719.61,679.511 1723.87,769.471 1728.14,819.77 1732.4,847.127 1736.66,860.127 1740.93,848.257 1745.19,812.855 1749.45,766.867 1753.72,690.251 1757.98,608.441 1762.24,563.04 1766.51,375.594 1770.77,317.65 1775.04,206.718 1779.3,239.178 1783.56,181.609 1787.83,131.601 1792.09,141.921 1796.35,144.856 1800.62,200.815 1804.88,299.622 1809.15,469.134 1813.41,483.583 1817.67,633.197 1821.94,692.44 1826.2,761.055 1830.46,813.279 1834.73,849.278 1838.99,860.127 1843.25,849.474 1847.52,819.976 1851.78,760.519 1856.05,703.572 1860.31,589.444 1864.57,514.529 1868.84,440.258 1873.1,381.708 1877.36,260.145 1881.63,286.365 1885.89,200.322 1890.15,180.897 1894.42,163.041 1898.68,156.174 1902.95,235.132 1907.21,315.992 1911.47,458.915 1915.74,537.186 1920,597.825 1924.26,672.322 1928.53,762.385 1932.79,808.258 1937.06,849.534 1941.32,860.127 1945.58,847.484 1949.85,819.93 1954.11,768.659 1958.37,699.924 1962.64,632.813 1966.9,537.129 1971.16,418.888 1975.43,291.037 1979.69,226.049 1983.96,213.689 1988.22,208.878 1992.48,153.417 1996.75,184.539 2001.01,208.341 2005.27,318.535 2009.54,288.01 2013.8,476.691 2018.07,548.122 2022.33,616.558 2026.59,703.044 2030.86,746.841 2035.12,815.79 2039.38,847.32 2043.65,860.127 2047.91,847.152 2052.17,818.867 2056.44,769.392 2060.7,697.503 2064.97,580.71 2069.23,559.162 2073.49,450.683 2077.76,323.716 2082.02,312.837 2086.28,216.738 2090.55,135.082 2094.81,146.941 2099.07,199.936 2103.34,263.535 2107.6,278.024 2111.87,372.678 2116.13,484.813 2120.39,509.861 2124.66,619.296 2128.92,671.328 2133.18,747.997 2137.45,816.19 2141.71,849.241 2145.98,860.127 2150.24,848.33 2154.5,809.732 2158.77,760.812 2163.03,688.241 2167.29,593.332 2171.56,477.027 2175.82,469.448 2180.08,380.75 2184.35,203.047 2188.61,201.898 2192.88,243.744 2197.14,96.6516 2201.4,127.001 2205.67,237.83 2209.93,231.354 2214.19,359.359 2218.46,445.757 2222.72,537.87 2226.98,573.471 2231.25,685.948 2235.51,763.443 2239.78,808.067 2244.04,847.571 2248.3,860.127 2252.57,849.082 2256.83,815.174 2261.09,771.442 2265.36,671.39 2269.62,577.443 2273.89,533.391 2278.15,377.062 2282.41,299.213 2286.68,268.779 2290.94,228.973 2295.2,101.765 2299.47,223.894 2303.73,118.108 2307.99,210.482 2312.26,327.227 2316.52,370.451 2320.79,456.176 2325.05,551.319 2329.31,616.653 2333.58,672.097 2337.84,762.131 2342.1,810.833 2346.37,848.566 2350.63,860.127 2354.9,849.974 2359.16,808.764 2363.42,749.694 2367.69,698.658 2371.95,611.205 2376.21,535.919 2380.48,478.208 2384.74,305.844 2389,285.431 2393.27,176.247 2397.53,122.218 2401.8,210.014 2406.06,203.529 2410.32,250.536 2414.59,318.784 2418.85,327.046 2423.11,432.401 2427.38,527.931 2431.64,589.061 2435.9,707.858 2440.17,770.7 2444.43,818.727 2448.7,847.735 2452.96,860.127 2457.22,847.984 2461.49,816.477 2465.75,754.071 2470.01,699.072 2474.28,628.112 2478.54,531.2 2482.81,395.107 2487.07,358.726 2491.33,335.956 2495.6,163.479 2499.86,131.527 2504.12,259.515 2508.39,126.822 2512.65,281.948 2516.91,334.115 2521.18,399.124 2525.44,445.507 2529.71,489.498 2533.97,623.816 2538.23,706.302 2542.5,768.517 2546.76,818.472 2551.02,847.035 2555.29,860.127 2559.55,849.851 2563.82,817.717 2568.08,759.501 2572.34,704.971 2576.61,631.725 2580.87,556.51 2585.13,437.574 2589.4,299.063 2593.66,332.918 2597.92,256.104 2602.19,195.046 2606.45,245.657 2610.72,125.86 2614.98,217.065 2619.24,347.591 2623.51,387.109 2627.77,469.448 2632.03,487.587 2636.3,634.284 2640.56,671.106 2644.82,752.964 2649.09,815.629 2653.35,847.599 2657.62,860.127 2661.88,848.267 2666.14,820.342 2670.41,769.842 2674.67,702.168 2678.93,605.148 2683.2,528.113 2687.46,382.644 2691.73,378.73 2695.99,296.502 2700.25,168.576 2704.52,245.908 2708.78,88.2208 2713.04,241.834 2717.31,177.784 2721.57,279.291 2725.83,330.558 2730.1,406.388 2734.36,557.727 2738.63,625.538 2742.89,691.718 2747.15,757.754 2751.42,817.646 2755.68,847.482 2759.94,860.127 2764.21,848.657 2768.47,810.797 2772.73,770.272 2777,675.08 2781.26,632.809 2785.53,522.122 2789.79,374.761 2794.05,315.627 2798.32,319.109 2802.58,226.718 2806.84,118.262 2811.11,217.128 2815.37,230.359 2819.64,259.083 2823.9,273.882 2828.16,294.313 2832.43,398.831 2836.69,543.777 2840.95,577.542 2845.22,679.891 2849.48,766.52 2853.74,807.916 2858.01,849.134 2862.27,860.127 2866.54,849.128 2870.8,815.168 2875.06,771.222 2879.33,698.667 2883.59,595.881 2887.85,480.759 2892.12,475.91 2896.38,380.622 2900.65,344.986 2904.91,259.816 2909.17,121.784 2913.44,163.344 2917.7,137.806 2921.96,215.621 2926.23,220.252 2930.49,289.434 2934.75,377.376 2939.02,553.345 2943.28,600.348 2947.55,684.75 2951.81,759.864 2956.07,814.037 2960.34,848.654 2964.6,860.127 2968.86,848.043 2973.13,809.331 2977.39,756.102 2981.65,668.479 2985.92,600.6 2990.18,496.199 2994.45,392.331 2998.71,284.14 3002.97,268.161 3007.24,193.308 3011.5,158.046 3015.76,256.246 3020.03,234.853 3024.29,255.21 3028.56,332.708 3032.82,285.738 3037.08,443.726 3041.35,558.046 3045.61,618.183 3049.87,683.071 3054.14,747.231 3058.4,819.515 3062.66,849.761 3066.93,860.127 "/>
<path clip-path="url(#clip680)" d="M221.263 302.866 L712.228 302.866 L712.228 95.5056 L221.263 95.5056  Z" fill="#ffffff" fill-rule="evenodd" fill-opacity="1"/>
<polyline clip-path="url(#clip680)" style="stroke:#000000; stroke-linecap:round; stroke-linejoin:round; stroke-width:4; stroke-opacity:1; fill:none" points="221.263,302.866 712.228,302.866 712.228,95.5056 221.263,95.5056 221.263,302.866 "/>
<polyline clip-path="url(#clip680)" style="stroke:#009af9; stroke-linecap:round; stroke-linejoin:round; stroke-width:4; stroke-opacity:1; fill:none" points="254.958,147.346 457.13,147.346 "/>
<path clip-path="url(#clip680)" d="M504.228 151.593 Q499.066 151.593 497.076 152.774 Q495.085 153.954 495.085 156.802 Q495.085 159.07 496.566 160.413 Q498.071 161.732 500.64 161.732 Q504.182 161.732 506.312 159.232 Q508.464 156.709 508.464 152.542 L508.464 151.593 L504.228 151.593 M512.724 149.834 L512.724 164.626 L508.464 164.626 L508.464 160.69 Q507.006 163.051 504.83 164.186 Q502.654 165.297 499.506 165.297 Q495.525 165.297 493.164 163.075 Q490.826 160.829 490.826 157.079 Q490.826 152.704 493.742 150.482 Q496.682 148.26 502.492 148.26 L508.464 148.26 L508.464 147.843 Q508.464 144.903 506.52 143.306 Q504.599 141.686 501.103 141.686 Q498.881 141.686 496.775 142.218 Q494.668 142.751 492.724 143.815 L492.724 139.88 Q495.062 138.978 497.261 138.538 Q499.46 138.075 501.543 138.075 Q507.168 138.075 509.946 140.991 Q512.724 143.908 512.724 149.834 Z" fill="#000000" fill-rule="nonzero" fill-opacity="1" /><path clip-path="url(#clip680)" d="M518.441 138.7 L522.955 138.7 L531.057 160.459 L539.159 138.7 L543.673 138.7 L533.95 164.626 L528.163 164.626 L518.441 138.7 Z" fill="#000000" fill-rule="nonzero" fill-opacity="1" /><path clip-path="url(#clip680)" d="M561.335 151.593 Q556.173 151.593 554.182 152.774 Q552.191 153.954 552.191 156.802 Q552.191 159.07 553.673 160.413 Q555.177 161.732 557.747 161.732 Q561.288 161.732 563.418 159.232 Q565.571 156.709 565.571 152.542 L565.571 151.593 L561.335 151.593 M569.83 149.834 L569.83 164.626 L565.571 164.626 L565.571 160.69 Q564.112 163.051 561.936 164.186 Q559.761 165.297 556.612 165.297 Q552.631 165.297 550.27 163.075 Q547.932 160.829 547.932 157.079 Q547.932 152.704 550.849 150.482 Q553.788 148.26 559.598 148.26 L565.571 148.26 L565.571 147.843 Q565.571 144.903 563.626 143.306 Q561.705 141.686 558.21 141.686 Q555.987 141.686 553.881 142.218 Q551.774 142.751 549.83 143.815 L549.83 139.88 Q552.168 138.978 554.367 138.538 Q556.566 138.075 558.649 138.075 Q564.274 138.075 567.052 140.991 Q569.83 143.908 569.83 149.834 Z" fill="#000000" fill-rule="nonzero" fill-opacity="1" /><path clip-path="url(#clip680)" d="M578.603 138.7 L582.862 138.7 L582.862 164.626 L578.603 164.626 L578.603 138.7 M578.603 128.607 L582.862 128.607 L582.862 134.001 L578.603 134.001 L578.603 128.607 Z" fill="#000000" fill-rule="nonzero" fill-opacity="1" /><path clip-path="url(#clip680)" d="M591.774 128.607 L596.033 128.607 L596.033 164.626 L591.774 164.626 L591.774 128.607 Z" fill="#000000" fill-rule="nonzero" fill-opacity="1" /><polyline clip-path="url(#clip680)" style="stroke:#e26f46; stroke-linecap:round; stroke-linejoin:round; stroke-width:4; stroke-opacity:1; fill:none" points="254.958,199.186 457.13,199.186 "/>
<path clip-path="url(#clip680)" d="M509.252 191.304 L509.252 195.331 Q507.446 194.405 505.502 193.943 Q503.557 193.48 501.474 193.48 Q498.302 193.48 496.705 194.452 Q495.131 195.424 495.131 197.368 Q495.131 198.85 496.265 199.706 Q497.4 200.54 500.826 201.304 L502.284 201.628 Q506.821 202.6 508.719 204.382 Q510.64 206.142 510.64 209.313 Q510.64 212.924 507.77 215.03 Q504.923 217.137 499.923 217.137 Q497.84 217.137 495.571 216.72 Q493.326 216.327 490.826 215.516 L490.826 211.118 Q493.187 212.345 495.478 212.97 Q497.77 213.572 500.015 213.572 Q503.025 213.572 504.645 212.554 Q506.265 211.512 506.265 209.637 Q506.265 207.901 505.085 206.975 Q503.927 206.049 499.969 205.192 L498.488 204.845 Q494.529 204.012 492.77 202.299 Q491.011 200.563 491.011 197.554 Q491.011 193.896 493.603 191.906 Q496.196 189.915 500.965 189.915 Q503.326 189.915 505.409 190.262 Q507.492 190.609 509.252 191.304 Z" fill="#000000" fill-rule="nonzero" fill-opacity="1" /><path clip-path="url(#clip680)" d="M527.469 193.526 Q524.043 193.526 522.052 196.211 Q520.062 198.873 520.062 203.526 Q520.062 208.179 522.029 210.864 Q524.02 213.526 527.469 213.526 Q530.872 213.526 532.862 210.841 Q534.853 208.155 534.853 203.526 Q534.853 198.919 532.862 196.234 Q530.872 193.526 527.469 193.526 M527.469 189.915 Q533.025 189.915 536.196 193.526 Q539.367 197.137 539.367 203.526 Q539.367 209.892 536.196 213.526 Q533.025 217.137 527.469 217.137 Q521.89 217.137 518.719 213.526 Q515.571 209.892 515.571 203.526 Q515.571 197.137 518.719 193.526 Q521.89 189.915 527.469 189.915 Z" fill="#000000" fill-rule="nonzero" fill-opacity="1" /><path clip-path="url(#clip680)" d="M546.427 180.447 L550.686 180.447 L550.686 216.466 L546.427 216.466 L546.427 180.447 Z" fill="#000000" fill-rule="nonzero" fill-opacity="1" /><path clip-path="url(#clip680)" d="M571.381 203.433 Q566.219 203.433 564.228 204.614 Q562.237 205.794 562.237 208.642 Q562.237 210.91 563.719 212.253 Q565.223 213.572 567.793 213.572 Q571.335 213.572 573.464 211.072 Q575.617 208.549 575.617 204.382 L575.617 203.433 L571.381 203.433 M579.876 201.674 L579.876 216.466 L575.617 216.466 L575.617 212.53 Q574.159 214.891 571.983 216.026 Q569.807 217.137 566.659 217.137 Q562.677 217.137 560.316 214.915 Q557.978 212.669 557.978 208.919 Q557.978 204.544 560.895 202.322 Q563.835 200.1 569.645 200.1 L575.617 200.1 L575.617 199.683 Q575.617 196.743 573.672 195.146 Q571.751 193.526 568.256 193.526 Q566.034 193.526 563.927 194.058 Q561.821 194.591 559.876 195.655 L559.876 191.72 Q562.214 190.818 564.413 190.378 Q566.612 189.915 568.696 189.915 Q574.321 189.915 577.098 192.831 Q579.876 195.748 579.876 201.674 Z" fill="#000000" fill-rule="nonzero" fill-opacity="1" /><path clip-path="url(#clip680)" d="M603.672 194.521 Q602.955 194.105 602.098 193.919 Q601.265 193.711 600.246 193.711 Q596.635 193.711 594.691 196.072 Q592.77 198.41 592.77 202.808 L592.77 216.466 L588.487 216.466 L588.487 190.54 L592.77 190.54 L592.77 194.568 Q594.112 192.206 596.265 191.072 Q598.418 189.915 601.496 189.915 Q601.936 189.915 602.469 189.984 Q603.001 190.031 603.649 190.146 L603.672 194.521 Z" fill="#000000" fill-rule="nonzero" fill-opacity="1" /><polyline clip-path="url(#clip680)" style="stroke:#3da44d; stroke-linecap:round; stroke-linejoin:round; stroke-width:4; stroke-opacity:1; fill:none" points="254.958,251.026 457.13,251.026 "/>
<path clip-path="url(#clip680)" d="M509.738 246.315 L509.738 232.287 L513.997 232.287 L513.997 268.306 L509.738 268.306 L509.738 264.417 Q508.395 266.731 506.335 267.866 Q504.298 268.977 501.427 268.977 Q496.728 268.977 493.765 265.227 Q490.826 261.477 490.826 255.366 Q490.826 249.255 493.765 245.505 Q496.728 241.755 501.427 241.755 Q504.298 241.755 506.335 242.889 Q508.395 244 509.738 246.315 M495.224 255.366 Q495.224 260.065 497.145 262.75 Q499.09 265.412 502.469 265.412 Q505.849 265.412 507.793 262.75 Q509.738 260.065 509.738 255.366 Q509.738 250.667 507.793 248.005 Q505.849 245.32 502.469 245.32 Q499.09 245.32 497.145 248.005 Q495.224 250.667 495.224 255.366 Z" fill="#000000" fill-rule="nonzero" fill-opacity="1" /><path clip-path="url(#clip680)" d="M544.946 254.278 L544.946 256.361 L525.363 256.361 Q525.64 260.759 528.001 263.074 Q530.386 265.366 534.622 265.366 Q537.075 265.366 539.367 264.764 Q541.682 264.162 543.95 262.958 L543.95 266.986 Q541.659 267.958 539.251 268.468 Q536.844 268.977 534.367 268.977 Q528.163 268.977 524.529 265.366 Q520.918 261.755 520.918 255.597 Q520.918 249.232 524.344 245.505 Q527.793 241.755 533.626 241.755 Q538.858 241.755 541.89 245.134 Q544.946 248.491 544.946 254.278 M540.687 253.028 Q540.64 249.533 538.719 247.449 Q536.821 245.366 533.673 245.366 Q530.108 245.366 527.955 247.38 Q525.826 249.394 525.501 253.051 L540.687 253.028 Z" fill="#000000" fill-rule="nonzero" fill-opacity="1" /><path clip-path="url(#clip680)" d="M572.122 247.357 Q573.719 244.486 575.941 243.121 Q578.163 241.755 581.172 241.755 Q585.223 241.755 587.422 244.602 Q589.621 247.426 589.621 252.657 L589.621 268.306 L585.339 268.306 L585.339 252.796 Q585.339 249.07 584.02 247.264 Q582.7 245.458 579.992 245.458 Q576.682 245.458 574.76 247.658 Q572.839 249.857 572.839 253.653 L572.839 268.306 L568.557 268.306 L568.557 252.796 Q568.557 249.046 567.237 247.264 Q565.918 245.458 563.163 245.458 Q559.899 245.458 557.978 247.681 Q556.057 249.88 556.057 253.653 L556.057 268.306 L551.774 268.306 L551.774 242.38 L556.057 242.38 L556.057 246.408 Q557.515 244.023 559.552 242.889 Q561.589 241.755 564.39 241.755 Q567.214 241.755 569.182 243.19 Q571.172 244.625 572.122 247.357 Z" fill="#000000" fill-rule="nonzero" fill-opacity="1" /><path clip-path="url(#clip680)" d="M609.899 255.273 Q604.737 255.273 602.746 256.454 Q600.756 257.634 600.756 260.482 Q600.756 262.75 602.237 264.093 Q603.742 265.412 606.311 265.412 Q609.853 265.412 611.982 262.912 Q614.135 260.389 614.135 256.222 L614.135 255.273 L609.899 255.273 M618.394 253.514 L618.394 268.306 L614.135 268.306 L614.135 264.37 Q612.677 266.731 610.501 267.866 Q608.325 268.977 605.177 268.977 Q601.195 268.977 598.834 266.755 Q596.496 264.509 596.496 260.759 Q596.496 256.384 599.413 254.162 Q602.353 251.94 608.163 251.94 L614.135 251.94 L614.135 251.523 Q614.135 248.583 612.191 246.986 Q610.269 245.366 606.774 245.366 Q604.552 245.366 602.445 245.898 Q600.339 246.431 598.395 247.495 L598.395 243.56 Q600.733 242.658 602.932 242.218 Q605.131 241.755 607.214 241.755 Q612.839 241.755 615.617 244.671 Q618.394 247.588 618.394 253.514 Z" fill="#000000" fill-rule="nonzero" fill-opacity="1" /><path clip-path="url(#clip680)" d="M648.718 252.657 L648.718 268.306 L644.459 268.306 L644.459 252.796 Q644.459 249.116 643.024 247.287 Q641.589 245.458 638.718 245.458 Q635.269 245.458 633.279 247.658 Q631.288 249.857 631.288 253.653 L631.288 268.306 L627.006 268.306 L627.006 242.38 L631.288 242.38 L631.288 246.408 Q632.816 244.07 634.876 242.912 Q636.959 241.755 639.667 241.755 Q644.135 241.755 646.427 244.533 Q648.718 247.287 648.718 252.657 Z" fill="#000000" fill-rule="nonzero" fill-opacity="1" /><path clip-path="url(#clip680)" d="M674.274 246.315 L674.274 232.287 L678.533 232.287 L678.533 268.306 L674.274 268.306 L674.274 264.417 Q672.931 266.731 670.871 267.866 Q668.834 268.977 665.964 268.977 Q661.265 268.977 658.302 265.227 Q655.362 261.477 655.362 255.366 Q655.362 249.255 658.302 245.505 Q661.265 241.755 665.964 241.755 Q668.834 241.755 670.871 242.889 Q672.931 244 674.274 246.315 M659.76 255.366 Q659.76 260.065 661.681 262.75 Q663.626 265.412 667.005 265.412 Q670.385 265.412 672.329 262.75 Q674.274 260.065 674.274 255.366 Q674.274 250.667 672.329 248.005 Q670.385 245.32 667.005 245.32 Q663.626 245.32 661.681 248.005 Q659.76 250.667 659.76 255.366 Z" fill="#000000" fill-rule="nonzero" fill-opacity="1" /></svg>
