<?xml version="1.0" encoding="utf-8"?>
<svg xmlns="http://www.w3.org/2000/svg" xmlns:xlink="http://www.w3.org/1999/xlink" width="800" height="400" viewBox="0 0 3200 1600">
<defs>
  <clipPath id="clip440">
    <rect x="0" y="0" width="3200" height="1600"/>
  </clipPath>
</defs>
<path clip-path="url(#clip440)" d="M0 1600 L3200 1600 L3200 0 L0 0  Z" fill="#ffffff" fill-rule="evenodd" fill-opacity="1"/>
<defs>
  <clipPath id="clip441">
    <rect x="640" y="0" width="2241" height="1600"/>
  </clipPath>
</defs>
<path clip-path="url(#clip440)" d="M120.177 1495.09 L3152.76 1495.09 L3152.76 47.2441 L120.177 47.2441  Z" fill="#ffffff" fill-rule="evenodd" fill-opacity="1"/>
<defs>
  <clipPath id="clip442">
    <rect x="120" y="47" width="3034" height="1449"/>
  </clipPath>
</defs>
<polyline clip-path="url(#clip442)" style="stroke:#000000; stroke-linecap:round; stroke-linejoin:round; stroke-width:2; stroke-opacity:0.1; fill:none" points="201.741,1495.09 201.741,47.2441 "/>
<polyline clip-path="url(#clip442)" style="stroke:#000000; stroke-linecap:round; stroke-linejoin:round; stroke-width:2; stroke-opacity:0.1; fill:none" points="628.108,1495.09 628.108,47.2441 "/>
<polyline clip-path="url(#clip442)" style="stroke:#000000; stroke-linecap:round; stroke-linejoin:round; stroke-width:2; stroke-opacity:0.1; fill:none" points="1054.48,1495.09 1054.48,47.2441 "/>
<polyline clip-path="url(#clip442)" style="stroke:#000000; stroke-linecap:round; stroke-linejoin:round; stroke-width:2; stroke-opacity:0.1; fill:none" points="1480.84,1495.09 1480.84,47.2441 "/>
<polyline clip-path="url(#clip442)" style="stroke:#000000; stroke-linecap:round; stroke-linejoin:round; stroke-width:2; stroke-opacity:0.1; fill:none" points="1907.21,1495.09 1907.21,47.2441 "/>
<polyline clip-path="url(#clip442)" style="stroke:#000000; stroke-linecap:round; stroke-linejoin:round; stroke-width:2; stroke-opacity:0.1; fill:none" points="2333.58,1495.09 2333.58,47.2441 "/>
<polyline clip-path="url(#clip442)" style="stroke:#000000; stroke-linecap:round; stroke-linejoin:round; stroke-width:2; stroke-opacity:0.1; fill:none" points="2759.94,1495.09 2759.94,47.2441 "/>
<polyline clip-path="url(#clip442)" style="stroke:#000000; stroke-linecap:round; stroke-linejoin:round; stroke-width:2; stroke-opacity:0.1; fill:none" points="120.177,1454.11 3152.76,1454.11 "/>
<polyline clip-path="url(#clip442)" style="stroke:#000000; stroke-linecap:round; stroke-linejoin:round; stroke-width:2; stroke-opacity:0.1; fill:none" points="120.177,1122.7 3152.76,1122.7 "/>
<polyline clip-path="url(#clip442)" style="stroke:#000000; stroke-linecap:round; stroke-linejoin:round; stroke-width:2; stroke-opacity:0.1; fill:none" points="120.177,791.298 3152.76,791.298 "/>
<polyline clip-path="url(#clip442)" style="stroke:#000000; stroke-linecap:round; stroke-linejoin:round; stroke-width:2; stroke-opacity:0.1; fill:none" points="120.177,459.891 3152.76,459.891 "/>
<polyline clip-path="url(#clip442)" style="stroke:#000000; stroke-linecap:round; stroke-linejoin:round; stroke-width:2; stroke-opacity:0.1; fill:none" points="120.177,128.485 3152.76,128.485 "/>
<polyline clip-path="url(#clip440)" style="stroke:#000000; stroke-linecap:round; stroke-linejoin:round; stroke-width:4; stroke-opacity:1; fill:none" points="120.177,1495.09 3152.76,1495.09 "/>
<polyline clip-path="url(#clip440)" style="stroke:#000000; stroke-linecap:round; stroke-linejoin:round; stroke-width:4; stroke-opacity:1; fill:none" points="201.741,1495.09 201.741,1476.19 "/>
<polyline clip-path="url(#clip440)" style="stroke:#000000; stroke-linecap:round; stroke-linejoin:round; stroke-width:4; stroke-opacity:1; fill:none" points="628.108,1495.09 628.108,1476.19 "/>
<polyline clip-path="url(#clip440)" style="stroke:#000000; stroke-linecap:round; stroke-linejoin:round; stroke-width:4; stroke-opacity:1; fill:none" points="1054.48,1495.09 1054.48,1476.19 "/>
<polyline clip-path="url(#clip440)" style="stroke:#000000; stroke-linecap:round; stroke-linejoin:round; stroke-width:4; stroke-opacity:1; fill:none" points="1480.84,1495.09 1480.84,1476.19 "/>
<polyline clip-path="url(#clip440)" style="stroke:#000000; stroke-linecap:round; stroke-linejoin:round; stroke-width:4; stroke-opacity:1; fill:none" points="1907.21,1495.09 1907.21,1476.19 "/>
<polyline clip-path="url(#clip440)" style="stroke:#000000; stroke-linecap:round; stroke-linejoin:round; stroke-width:4; stroke-opacity:1; fill:none" points="2333.58,1495.09 2333.58,1476.19 "/>
<polyline clip-path="url(#clip440)" style="stroke:#000000; stroke-linecap:round; stroke-linejoin:round; stroke-width:4; stroke-opacity:1; fill:none" points="2759.94,1495.09 2759.94,1476.19 "/>
<path clip-path="url(#clip440)" d="M201.741 1532.41 Q198.13 1532.41 196.301 1535.97 Q194.496 1539.51 194.496 1546.64 Q194.496 1553.75 196.301 1557.31 Q198.13 1560.86 201.741 1560.86 Q205.375 1560.86 207.181 1557.31 Q209.01 1553.75 209.01 1546.64 Q209.01 1539.51 207.181 1535.97 Q205.375 1532.41 201.741 1532.41 M201.741 1528.7 Q207.551 1528.7 210.607 1533.31 Q213.686 1537.89 213.686 1546.64 Q213.686 1555.37 210.607 1559.98 Q207.551 1564.56 201.741 1564.56 Q195.931 1564.56 192.852 1559.98 Q189.797 1555.37 189.797 1546.64 Q189.797 1537.89 192.852 1533.31 Q195.931 1528.7 201.741 1528.7 Z" fill="#000000" fill-rule="nonzero" fill-opacity="1" /><path clip-path="url(#clip440)" d="M587.715 1559.95 L595.354 1559.95 L595.354 1533.59 L587.044 1535.25 L587.044 1530.99 L595.308 1529.33 L599.983 1529.33 L599.983 1559.95 L607.622 1559.95 L607.622 1563.89 L587.715 1563.89 L587.715 1559.95 Z" fill="#000000" fill-rule="nonzero" fill-opacity="1" /><path clip-path="url(#clip440)" d="M627.067 1532.41 Q623.456 1532.41 621.627 1535.97 Q619.821 1539.51 619.821 1546.64 Q619.821 1553.75 621.627 1557.31 Q623.456 1560.86 627.067 1560.86 Q630.701 1560.86 632.506 1557.31 Q634.335 1553.75 634.335 1546.64 Q634.335 1539.51 632.506 1535.97 Q630.701 1532.41 627.067 1532.41 M627.067 1528.7 Q632.877 1528.7 635.932 1533.31 Q639.011 1537.89 639.011 1546.64 Q639.011 1555.37 635.932 1559.98 Q632.877 1564.56 627.067 1564.56 Q621.257 1564.56 618.178 1559.98 Q615.122 1555.37 615.122 1546.64 Q615.122 1537.89 618.178 1533.31 Q621.257 1528.7 627.067 1528.7 Z" fill="#000000" fill-rule="nonzero" fill-opacity="1" /><path clip-path="url(#clip440)" d="M657.229 1532.41 Q653.617 1532.41 651.789 1535.97 Q649.983 1539.51 649.983 1546.64 Q649.983 1553.75 651.789 1557.31 Q653.617 1560.86 657.229 1560.86 Q660.863 1560.86 662.668 1557.31 Q664.497 1553.75 664.497 1546.64 Q664.497 1539.51 662.668 1535.97 Q660.863 1532.41 657.229 1532.41 M657.229 1528.7 Q663.039 1528.7 666.094 1533.31 Q669.173 1537.89 669.173 1546.64 Q669.173 1555.37 666.094 1559.98 Q663.039 1564.56 657.229 1564.56 Q651.418 1564.56 648.34 1559.98 Q645.284 1555.37 645.284 1546.64 Q645.284 1537.89 648.34 1533.31 Q651.418 1528.7 657.229 1528.7 Z" fill="#000000" fill-rule="nonzero" fill-opacity="1" /><path clip-path="url(#clip440)" d="M1018.17 1559.95 L1034.49 1559.95 L1034.49 1563.89 L1012.54 1563.89 L1012.54 1559.95 Q1015.2 1557.2 1019.79 1552.57 Q1024.39 1547.92 1025.58 1546.57 Q1027.82 1544.05 1028.7 1542.31 Q1029.6 1540.55 1029.6 1538.86 Q1029.6 1536.11 1027.66 1534.37 Q1025.74 1532.64 1022.64 1532.64 Q1020.44 1532.64 1017.98 1533.4 Q1015.55 1534.17 1012.77 1535.72 L1012.77 1530.99 Q1015.6 1529.86 1018.05 1529.28 Q1020.51 1528.7 1022.54 1528.7 Q1027.91 1528.7 1031.11 1531.39 Q1034.3 1534.07 1034.3 1538.56 Q1034.3 1540.69 1033.49 1542.61 Q1032.7 1544.51 1030.6 1547.11 Q1030.02 1547.78 1026.92 1550.99 Q1023.82 1554.19 1018.17 1559.95 Z" fill="#000000" fill-rule="nonzero" fill-opacity="1" /><path clip-path="url(#clip440)" d="M1054.3 1532.41 Q1050.69 1532.41 1048.86 1535.97 Q1047.06 1539.51 1047.06 1546.64 Q1047.06 1553.75 1048.86 1557.31 Q1050.69 1560.86 1054.3 1560.86 Q1057.94 1560.86 1059.74 1557.31 Q1061.57 1553.75 1061.57 1546.64 Q1061.57 1539.51 1059.74 1535.97 Q1057.94 1532.41 1054.3 1532.41 M1054.3 1528.7 Q1060.11 1528.7 1063.17 1533.31 Q1066.25 1537.89 1066.25 1546.64 Q1066.25 1555.37 1063.17 1559.98 Q1060.11 1564.56 1054.3 1564.56 Q1048.49 1564.56 1045.41 1559.98 Q1042.36 1555.37 1042.36 1546.64 Q1042.36 1537.89 1045.41 1533.31 Q1048.49 1528.7 1054.3 1528.7 Z" fill="#000000" fill-rule="nonzero" fill-opacity="1" /><path clip-path="url(#clip440)" d="M1084.46 1532.41 Q1080.85 1532.41 1079.02 1535.97 Q1077.22 1539.51 1077.22 1546.64 Q1077.22 1553.75 1079.02 1557.31 Q1080.85 1560.86 1084.46 1560.86 Q1088.1 1560.86 1089.9 1557.31 Q1091.73 1553.75 1091.73 1546.64 Q1091.73 1539.51 1089.9 1535.97 Q1088.1 1532.41 1084.46 1532.41 M1084.46 1528.7 Q1090.27 1528.7 1093.33 1533.31 Q1096.41 1537.89 1096.41 1546.64 Q1096.41 1555.37 1093.33 1559.98 Q1090.27 1564.56 1084.46 1564.56 Q1078.65 1564.56 1075.57 1559.98 Q1072.52 1555.37 1072.52 1546.64 Q1072.52 1537.89 1075.57 1533.31 Q1078.65 1528.7 1084.46 1528.7 Z" fill="#000000" fill-rule="nonzero" fill-opacity="1" /><path clip-path="url(#clip440)" d="M1454.6 1545.25 Q1457.96 1545.97 1459.84 1548.24 Q1461.73 1550.51 1461.73 1553.84 Q1461.73 1558.96 1458.22 1561.76 Q1454.7 1564.56 1448.22 1564.56 Q1446.04 1564.56 1443.72 1564.12 Q1441.43 1563.7 1438.98 1562.85 L1438.98 1558.33 Q1440.92 1559.47 1443.24 1560.05 Q1445.55 1560.62 1448.08 1560.62 Q1452.47 1560.62 1454.77 1558.89 Q1457.08 1557.15 1457.08 1553.84 Q1457.08 1550.79 1454.93 1549.07 Q1452.8 1547.34 1448.98 1547.34 L1444.95 1547.34 L1444.95 1543.49 L1449.16 1543.49 Q1452.61 1543.49 1454.44 1542.13 Q1456.27 1540.74 1456.27 1538.15 Q1456.27 1535.49 1454.37 1534.07 Q1452.5 1532.64 1448.98 1532.64 Q1447.06 1532.64 1444.86 1533.05 Q1442.66 1533.47 1440.02 1534.35 L1440.02 1530.18 Q1442.68 1529.44 1445 1529.07 Q1447.34 1528.7 1449.4 1528.7 Q1454.72 1528.7 1457.82 1531.13 Q1460.92 1533.54 1460.92 1537.66 Q1460.92 1540.53 1459.28 1542.52 Q1457.64 1544.49 1454.6 1545.25 Z" fill="#000000" fill-rule="nonzero" fill-opacity="1" /><path clip-path="url(#clip440)" d="M1480.6 1532.41 Q1476.99 1532.41 1475.16 1535.97 Q1473.35 1539.51 1473.35 1546.64 Q1473.35 1553.75 1475.16 1557.31 Q1476.99 1560.86 1480.6 1560.86 Q1484.23 1560.86 1486.04 1557.31 Q1487.87 1553.75 1487.87 1546.64 Q1487.87 1539.51 1486.04 1535.97 Q1484.23 1532.41 1480.6 1532.41 M1480.6 1528.7 Q1486.41 1528.7 1489.47 1533.31 Q1492.54 1537.89 1492.54 1546.64 Q1492.54 1555.37 1489.47 1559.98 Q1486.41 1564.56 1480.6 1564.56 Q1474.79 1564.56 1471.71 1559.98 Q1468.66 1555.37 1468.66 1546.64 Q1468.66 1537.89 1471.71 1533.31 Q1474.79 1528.7 1480.6 1528.7 Z" fill="#000000" fill-rule="nonzero" fill-opacity="1" /><path clip-path="url(#clip440)" d="M1510.76 1532.41 Q1507.15 1532.41 1505.32 1535.97 Q1503.52 1539.51 1503.52 1546.64 Q1503.52 1553.75 1505.32 1557.31 Q1507.15 1560.86 1510.76 1560.86 Q1514.4 1560.86 1516.2 1557.31 Q1518.03 1553.75 1518.03 1546.64 Q1518.03 1539.51 1516.2 1535.97 Q1514.4 1532.41 1510.76 1532.41 M1510.76 1528.7 Q1516.57 1528.7 1519.63 1533.31 Q1522.71 1537.89 1522.71 1546.64 Q1522.71 1555.37 1519.63 1559.98 Q1516.57 1564.56 1510.76 1564.56 Q1504.95 1564.56 1501.87 1559.98 Q1498.82 1555.37 1498.82 1546.64 Q1498.82 1537.89 1501.87 1533.31 Q1504.95 1528.7 1510.76 1528.7 Z" fill="#000000" fill-rule="nonzero" fill-opacity="1" /><path clip-path="url(#clip440)" d="M1880.3 1533.4 L1868.49 1551.85 L1880.3 1551.85 L1880.3 1533.4 M1879.07 1529.33 L1884.95 1529.33 L1884.95 1551.85 L1889.88 1551.85 L1889.88 1555.74 L1884.95 1555.74 L1884.95 1563.89 L1880.3 1563.89 L1880.3 1555.74 L1864.7 1555.74 L1864.7 1551.23 L1879.07 1529.33 Z" fill="#000000" fill-rule="nonzero" fill-opacity="1" /><path clip-path="url(#clip440)" d="M1907.61 1532.41 Q1904 1532.41 1902.17 1535.97 Q1900.37 1539.51 1900.37 1546.64 Q1900.37 1553.75 1902.17 1557.31 Q1904 1560.86 1907.61 1560.86 Q1911.25 1560.86 1913.05 1557.31 Q1914.88 1553.75 1914.88 1546.64 Q1914.88 1539.51 1913.05 1535.97 Q1911.25 1532.41 1907.61 1532.41 M1907.61 1528.7 Q1913.42 1528.7 1916.48 1533.31 Q1919.56 1537.89 1919.56 1546.64 Q1919.56 1555.37 1916.48 1559.98 Q1913.42 1564.56 1907.61 1564.56 Q1901.8 1564.56 1898.73 1559.98 Q1895.67 1555.37 1895.67 1546.64 Q1895.67 1537.89 1898.73 1533.31 Q1901.8 1528.7 1907.61 1528.7 Z" fill="#000000" fill-rule="nonzero" fill-opacity="1" /><path clip-path="url(#clip440)" d="M1937.78 1532.41 Q1934.17 1532.41 1932.34 1535.97 Q1930.53 1539.51 1930.53 1546.64 Q1930.53 1553.75 1932.34 1557.31 Q1934.17 1560.86 1937.78 1560.86 Q1941.41 1560.86 1943.22 1557.31 Q1945.05 1553.75 1945.05 1546.64 Q1945.05 1539.51 1943.22 1535.97 Q1941.41 1532.41 1937.78 1532.41 M1937.78 1528.7 Q1943.59 1528.7 1946.64 1533.31 Q1949.72 1537.89 1949.72 1546.64 Q1949.72 1555.37 1946.64 1559.98 Q1943.59 1564.56 1937.78 1564.56 Q1931.97 1564.56 1928.89 1559.98 Q1925.83 1555.37 1925.83 1546.64 Q1925.83 1537.89 1928.89 1533.31 Q1931.97 1528.7 1937.78 1528.7 Z" fill="#000000" fill-rule="nonzero" fill-opacity="1" /><path clip-path="url(#clip440)" d="M2293.2 1529.33 L2311.55 1529.33 L2311.55 1533.26 L2297.48 1533.26 L2297.48 1541.74 Q2298.5 1541.39 2299.51 1541.23 Q2300.53 1541.04 2301.55 1541.04 Q2307.34 1541.04 2310.72 1544.21 Q2314.1 1547.38 2314.1 1552.8 Q2314.1 1558.38 2310.63 1561.48 Q2307.15 1564.56 2300.83 1564.56 Q2298.66 1564.56 2296.39 1564.19 Q2294.14 1563.82 2291.74 1563.08 L2291.74 1558.38 Q2293.82 1559.51 2296.04 1560.07 Q2298.26 1560.62 2300.74 1560.62 Q2304.75 1560.62 2307.08 1558.52 Q2309.42 1556.41 2309.42 1552.8 Q2309.42 1549.19 2307.08 1547.08 Q2304.75 1544.98 2300.74 1544.98 Q2298.87 1544.98 2296.99 1545.39 Q2295.14 1545.81 2293.2 1546.69 L2293.2 1529.33 Z" fill="#000000" fill-rule="nonzero" fill-opacity="1" /><path clip-path="url(#clip440)" d="M2333.31 1532.41 Q2329.7 1532.41 2327.87 1535.97 Q2326.07 1539.51 2326.07 1546.64 Q2326.07 1553.75 2327.87 1557.31 Q2329.7 1560.86 2333.31 1560.86 Q2336.94 1560.86 2338.75 1557.31 Q2340.58 1553.75 2340.58 1546.64 Q2340.58 1539.51 2338.75 1535.97 Q2336.94 1532.41 2333.31 1532.41 M2333.31 1528.7 Q2339.12 1528.7 2342.18 1533.31 Q2345.25 1537.89 2345.25 1546.64 Q2345.25 1555.37 2342.18 1559.98 Q2339.12 1564.56 2333.31 1564.56 Q2327.5 1564.56 2324.42 1559.98 Q2321.37 1555.37 2321.37 1546.64 Q2321.37 1537.89 2324.42 1533.31 Q2327.5 1528.7 2333.31 1528.7 Z" fill="#000000" fill-rule="nonzero" fill-opacity="1" /><path clip-path="url(#clip440)" d="M2363.47 1532.41 Q2359.86 1532.41 2358.03 1535.97 Q2356.23 1539.51 2356.23 1546.64 Q2356.23 1553.75 2358.03 1557.31 Q2359.86 1560.86 2363.47 1560.86 Q2367.11 1560.86 2368.91 1557.31 Q2370.74 1553.75 2370.74 1546.64 Q2370.74 1539.51 2368.91 1535.97 Q2367.11 1532.41 2363.47 1532.41 M2363.47 1528.7 Q2369.28 1528.7 2372.34 1533.31 Q2375.42 1537.89 2375.42 1546.64 Q2375.42 1555.37 2372.34 1559.98 Q2369.28 1564.56 2363.47 1564.56 Q2357.66 1564.56 2354.58 1559.98 Q2351.53 1555.37 2351.53 1546.64 Q2351.53 1537.89 2354.58 1533.31 Q2357.66 1528.7 2363.47 1528.7 Z" fill="#000000" fill-rule="nonzero" fill-opacity="1" /><path clip-path="url(#clip440)" d="M2730.27 1544.74 Q2727.12 1544.74 2725.27 1546.9 Q2723.44 1549.05 2723.44 1552.8 Q2723.44 1556.53 2725.27 1558.7 Q2727.12 1560.86 2730.27 1560.86 Q2733.42 1560.86 2735.24 1558.7 Q2737.1 1556.53 2737.1 1552.8 Q2737.1 1549.05 2735.24 1546.9 Q2733.42 1544.74 2730.27 1544.74 M2739.55 1530.09 L2739.55 1534.35 Q2737.79 1533.52 2735.99 1533.08 Q2734.2 1532.64 2732.44 1532.64 Q2727.81 1532.64 2725.36 1535.76 Q2722.93 1538.89 2722.58 1545.21 Q2723.95 1543.19 2726.01 1542.13 Q2728.07 1541.04 2730.55 1541.04 Q2735.75 1541.04 2738.76 1544.21 Q2741.8 1547.36 2741.8 1552.8 Q2741.8 1558.12 2738.65 1561.34 Q2735.5 1564.56 2730.27 1564.56 Q2724.27 1564.56 2721.1 1559.98 Q2717.93 1555.37 2717.93 1546.64 Q2717.93 1538.45 2721.82 1533.59 Q2725.71 1528.7 2732.26 1528.7 Q2734.02 1528.7 2735.8 1529.05 Q2737.61 1529.4 2739.55 1530.09 Z" fill="#000000" fill-rule="nonzero" fill-opacity="1" /><path clip-path="url(#clip440)" d="M2759.85 1532.41 Q2756.24 1532.41 2754.41 1535.97 Q2752.61 1539.51 2752.61 1546.64 Q2752.61 1553.75 2754.41 1557.31 Q2756.24 1560.86 2759.85 1560.86 Q2763.49 1560.86 2765.29 1557.31 Q2767.12 1553.75 2767.12 1546.64 Q2767.12 1539.51 2765.29 1535.97 Q2763.49 1532.41 2759.85 1532.41 M2759.85 1528.7 Q2765.66 1528.7 2768.72 1533.31 Q2771.8 1537.89 2771.8 1546.64 Q2771.8 1555.37 2768.72 1559.98 Q2765.66 1564.56 2759.85 1564.56 Q2754.04 1564.56 2750.96 1559.98 Q2747.91 1555.37 2747.91 1546.64 Q2747.91 1537.89 2750.96 1533.31 Q2754.04 1528.7 2759.85 1528.7 Z" fill="#000000" fill-rule="nonzero" fill-opacity="1" /><path clip-path="url(#clip440)" d="M2790.01 1532.41 Q2786.4 1532.41 2784.57 1535.97 Q2782.77 1539.51 2782.77 1546.64 Q2782.77 1553.75 2784.57 1557.31 Q2786.4 1560.86 2790.01 1560.86 Q2793.65 1560.86 2795.45 1557.31 Q2797.28 1553.75 2797.28 1546.64 Q2797.28 1539.51 2795.45 1535.97 Q2793.65 1532.41 2790.01 1532.41 M2790.01 1528.7 Q2795.82 1528.7 2798.88 1533.31 Q2801.96 1537.89 2801.96 1546.64 Q2801.96 1555.37 2798.88 1559.98 Q2795.82 1564.56 2790.01 1564.56 Q2784.2 1564.56 2781.12 1559.98 Q2778.07 1555.37 2778.07 1546.64 Q2778.07 1537.89 2781.12 1533.31 Q2784.2 1528.7 2790.01 1528.7 Z" fill="#000000" fill-rule="nonzero" fill-opacity="1" /><polyline clip-path="url(#clip440)" style="stroke:#000000; stroke-linecap:round; stroke-linejoin:round; stroke-width:4; stroke-opacity:1; fill:none" points="120.177,1495.09 120.177,47.2441 "/>
<polyline clip-path="url(#clip440)" style="stroke:#000000; stroke-linecap:round; stroke-linejoin:round; stroke-width:4; stroke-opacity:1; fill:none" points="120.177,1454.11 139.075,1454.11 "/>
<polyline clip-path="url(#clip440)" style="stroke:#000000; stroke-linecap:round; stroke-linejoin:round; stroke-width:4; stroke-opacity:1; fill:none" points="120.177,1122.7 139.075,1122.7 "/>
<polyline clip-path="url(#clip440)" style="stroke:#000000; stroke-linecap:round; stroke-linejoin:round; stroke-width:4; stroke-opacity:1; fill:none" points="120.177,791.298 139.075,791.298 "/>
<polyline clip-path="url(#clip440)" style="stroke:#000000; stroke-linecap:round; stroke-linejoin:round; stroke-width:4; stroke-opacity:1; fill:none" points="120.177,459.891 139.075,459.891 "/>
<polyline clip-path="url(#clip440)" style="stroke:#000000; stroke-linecap:round; stroke-linejoin:round; stroke-width:4; stroke-opacity:1; fill:none" points="120.177,128.485 139.075,128.485 "/>
<path clip-path="url(#clip440)" d="M60.2328 1439.91 Q56.6217 1439.91 54.793 1443.47 Q52.9875 1447.02 52.9875 1454.15 Q52.9875 1461.25 54.793 1464.82 Q56.6217 1468.36 60.2328 1468.36 Q63.867 1468.36 65.6726 1464.82 Q67.5013 1461.25 67.5013 1454.15 Q67.5013 1447.02 65.6726 1443.47 Q63.867 1439.91 60.2328 1439.91 M60.2328 1436.21 Q66.0429 1436.21 69.0985 1440.81 Q72.1772 1445.4 72.1772 1454.15 Q72.1772 1462.87 69.0985 1467.48 Q66.0429 1472.06 60.2328 1472.06 Q54.4226 1472.06 51.344 1467.48 Q48.2884 1462.87 48.2884 1454.15 Q48.2884 1445.4 51.344 1440.81 Q54.4226 1436.21 60.2328 1436.21 Z" fill="#000000" fill-rule="nonzero" fill-opacity="1" /><path clip-path="url(#clip440)" d="M55.8578 1136.05 L72.1772 1136.05 L72.1772 1139.98 L50.2328 1139.98 L50.2328 1136.05 Q52.8949 1133.29 57.4782 1128.67 Q62.0846 1124.01 63.2652 1122.67 Q65.5105 1120.15 66.3902 1118.41 Q67.2929 1116.65 67.2929 1114.96 Q67.2929 1112.21 65.3485 1110.47 Q63.4272 1108.73 60.3254 1108.73 Q58.1263 1108.73 55.6726 1109.5 Q53.2421 1110.26 50.4643 1111.81 L50.4643 1107.09 Q53.2884 1105.96 55.7421 1105.38 Q58.1958 1104.8 60.2328 1104.8 Q65.6031 1104.8 68.7976 1107.48 Q71.992 1110.17 71.992 1114.66 Q71.992 1116.79 71.1818 1118.71 Q70.3948 1120.61 68.2883 1123.2 Q67.7096 1123.87 64.6078 1127.09 Q61.5059 1130.29 55.8578 1136.05 Z" fill="#000000" fill-rule="nonzero" fill-opacity="1" /><path clip-path="url(#clip440)" d="M62.5939 778.092 L50.7884 796.541 L62.5939 796.541 L62.5939 778.092 M61.367 774.018 L67.2466 774.018 L67.2466 796.541 L72.1772 796.541 L72.1772 800.43 L67.2466 800.43 L67.2466 808.578 L62.5939 808.578 L62.5939 800.43 L46.9921 800.43 L46.9921 795.916 L61.367 774.018 Z" fill="#000000" fill-rule="nonzero" fill-opacity="1" /><path clip-path="url(#clip440)" d="M60.6495 458.028 Q57.5013 458.028 55.6495 460.181 Q53.8208 462.334 53.8208 466.083 Q53.8208 469.81 55.6495 471.986 Q57.5013 474.139 60.6495 474.139 Q63.7976 474.139 65.6263 471.986 Q67.4781 469.81 67.4781 466.083 Q67.4781 462.334 65.6263 460.181 Q63.7976 458.028 60.6495 458.028 M69.9318 443.375 L69.9318 447.635 Q68.1726 446.801 66.367 446.361 Q64.5846 445.922 62.8254 445.922 Q58.1958 445.922 55.7421 449.047 Q53.3115 452.172 52.9643 458.491 Q54.33 456.477 56.3902 455.412 Q58.4504 454.324 60.9272 454.324 Q66.1355 454.324 69.1448 457.496 Q72.1772 460.644 72.1772 466.083 Q72.1772 471.408 69.029 474.625 Q65.8809 477.843 60.6495 477.843 Q54.6541 477.843 51.4828 473.259 Q48.3116 468.653 48.3116 459.926 Q48.3116 451.732 52.2004 446.871 Q56.0893 441.986 62.6402 441.986 Q64.3994 441.986 66.1818 442.334 Q67.9874 442.681 69.9318 443.375 Z" fill="#000000" fill-rule="nonzero" fill-opacity="1" /><path clip-path="url(#clip440)" d="M60.3254 129.353 Q56.9921 129.353 55.0708 131.135 Q53.1726 132.918 53.1726 136.043 Q53.1726 139.168 55.0708 140.95 Q56.9921 142.732 60.3254 142.732 Q63.6587 142.732 65.58 140.95 Q67.5013 139.144 67.5013 136.043 Q67.5013 132.918 65.58 131.135 Q63.6819 129.353 60.3254 129.353 M55.6495 127.362 Q52.6402 126.621 50.9504 124.561 Q49.2838 122.501 49.2838 119.538 Q49.2838 115.395 52.2236 112.987 Q55.1865 110.58 60.3254 110.58 Q65.4874 110.58 68.4272 112.987 Q71.367 115.395 71.367 119.538 Q71.367 122.501 69.6772 124.561 Q68.0105 126.621 65.0244 127.362 Q68.404 128.149 70.279 130.441 Q72.1772 132.732 72.1772 136.043 Q72.1772 141.066 69.0985 143.751 Q66.0429 146.436 60.3254 146.436 Q54.6078 146.436 51.5291 143.751 Q48.4736 141.066 48.4736 136.043 Q48.4736 132.732 50.3717 130.441 Q52.2699 128.149 55.6495 127.362 M53.9365 119.978 Q53.9365 122.663 55.6032 124.168 Q57.293 125.672 60.3254 125.672 Q63.3346 125.672 65.0244 124.168 Q66.7374 122.663 66.7374 119.978 Q66.7374 117.293 65.0244 115.788 Q63.3346 114.284 60.3254 114.284 Q57.293 114.284 55.6032 115.788 Q53.9365 117.293 53.9365 119.978 Z" fill="#000000" fill-rule="nonzero" fill-opacity="1" /><polyline clip-path="url(#clip442)" style="stroke:#009af9; stroke-linecap:round; stroke-linejoin:round; stroke-width:4; stroke-opacity:1; fill:none" points="206.005,721.6 210.269,751.99 214.532,787.61 218.796,810.012 223.06,823.815 227.323,837.201 231.587,831.709 235.851,787.225 240.114,772.365 244.378,752.574 248.642,740.827 252.905,731.969 257.169,732.39 261.433,737.201 265.696,786.249 269.96,806.568 274.224,829.085 278.487,820.716 282.751,818.932 287.015,805.094 291.278,780.774 295.542,751.962 299.806,741.471 304.069,709.517 308.333,739.565 312.597,743.165 316.86,783.872 321.124,803.411 325.388,804.19 329.651,823.218 333.915,807.494 338.179,790.433 342.442,786.653 346.706,758.851 350.97,722.314 355.233,741.411 359.497,744.862 363.761,761.931 368.024,764.221 372.288,793.806 376.552,828.376 380.815,837.307 385.079,820.701 389.343,798.772 393.606,763.967 397.87,761.462 402.134,739.924 406.397,714.642 410.661,721.892 414.925,746.034 419.188,772.701 423.452,793.919 427.716,801.997 431.979,827.081 436.243,821.603 440.507,805.671 444.77,768.127 449.034,746.38 453.298,715.457 457.561,738.8 461.825,731.508 466.089,741.641 470.352,782.788 474.616,813.374 478.88,833.217 483.143,834.868 487.407,819.181 491.671,791.428 495.935,763.273 500.198,740.704 504.462,724.274 508.726,716.969 512.989,741.413 517.253,754.085 521.517,768.054 525.78,812.67 530.044,832.042 534.308,827.924 538.571,818.542 542.835,794.659 547.099,789.926 551.362,734.475 555.626,717.224 559.89,726.067 564.153,723.369 568.417,743.797 572.681,777.767 576.944,800.228 581.208,810.142 585.472,826.31 589.735,818.885 593.999,792.113 598.263,786.635 602.526,753.215 606.79,734.071 611.054,732.694 615.317,722.044 619.581,746.195 623.845,780.688 628.108,800.221 632.372,822.856 636.636,821.124 640.899,802.875 645.163,786.57 649.427,778.205 653.69,742.847 657.954,725.366 662.218,740.226 666.481,727.653 670.745,735.002 675.009,760.433 679.272,799.406 683.536,827.429 687.8,809.882 692.063,820.239 696.327,787.719 700.591,772.709 704.854,756.428 709.118,740.152 713.382,737.048 717.645,746.81 721.909,733.479 726.173,759.418 730.436,790.589 734.7,803.92 738.964,811.359 743.227,831.749 747.491,809.99 751.755,765.535 756.018,757.802 760.282,747.541 764.546,717.548 768.809,715.985 773.073,759.445 777.337,783.323 781.6,802.373 785.864,819.903 790.128,828.514 794.391,819.494 798.655,807.44 802.919,770.656 807.183,758.483 811.446,718.416 815.71,710.548 819.974,730.517 824.237,757.064 828.501,788.661 832.765,787.602 837.028,833.607 841.292,839.648 845.556,829.647 849.819,807.117 854.083,785.249 858.347,749.082 862.61,738.066 866.874,713.115 871.138,737.626 875.401,750.229 879.665,779.286 883.929,789.818 888.192,833.738 892.456,823.169 896.72,820.481 900.983,805.756 905.247,771.374 909.511,739.221 913.774,732.351 918.038,724.456 922.302,719.494 926.565,757.989 930.829,790.465 935.093,791.405 939.356,802.957 943.62,813.686 947.884,812.61 952.147,813.979 956.411,788.763 960.675,752.472 964.938,739.932 969.202,717.171 973.466,725.898 977.729,756.834 981.993,788.428 986.257,790.432 990.52,831.554 994.784,812.449 999.048,817.199 1003.31,801.731 1007.58,773.885 1011.84,763.514 1016.1,723.994 1020.37,715.323 1024.63,720.779 1028.89,764.917 1033.16,789.212 1037.42,798.024 1041.68,813.782 1045.95,817.706 1050.21,804.674 1054.48,800.208 1058.74,768.633 1063,750.761 1067.27,739.325 1071.53,734.716 1075.79,739.404 1080.06,744.351 1084.32,768.688 1088.58,792.059 1092.85,813.336 1097.11,810.387 1101.38,831.407 1105.64,793.564 1109.9,783.006 1114.17,754.187 1118.43,722.286 1122.69,731.536 1126.96,733.668 1131.22,753.134 1135.49,767.583 1139.75,810.512 1144.01,827.304 1148.28,808.778 1152.54,827.011 1156.8,793.226 1161.07,762.41 1165.33,746.982 1169.59,722.019 1173.86,735.888 1178.12,726.065 1182.39,760.157 1186.65,772.092 1190.91,811.769 1195.18,810.506 1199.44,813.178 1203.7,810.699 1207.97,788.904 1212.23,774.369 1216.49,764.04 1220.76,717.578 1225.02,724.947 1229.29,746.579 1233.55,759.531 1237.81,791.169 1242.08,785.008 1246.34,815.404 1250.6,812.671 1254.87,813.437 1259.13,810.936 1263.4,775.081 1267.66,738.82 1271.92,717.422 1276.19,712.865 1280.45,740.61 1284.71,755.042 1288.98,772.495 1293.24,809.432 1297.5,811.993 1301.77,812.106 1306.03,833.881 1310.3,802.578 1314.56,767.499 1318.82,760.252 1323.09,726.307 1327.35,717.134 1331.61,741.65 1335.88,746.8 1340.14,773.403 1344.41,803.088 1348.67,826.725 1352.93,834.057 1357.2,803.711 1361.46,804.648 1365.72,761.554 1369.99,765.667 1374.25,743.779 1378.51,716.704 1382.78,725.03 1387.04,743.015 1391.31,779.562 1395.57,808.844 1399.83,827.575 1404.1,811.145 1408.36,801.96 1412.62,809.985 1416.89,773.576 1421.15,755.826 1425.41,745.966 1429.68,733.338 1433.94,743 1438.21,764.213 1442.47,790.354 1446.73,815.634 1451,801.775 1455.26,813.916 1459.52,816.716 1463.79,816.215 1468.05,761.952 1472.32,752.826 1476.58,745.389 1480.84,725.802 1485.11,715.865 1489.37,757.753 1493.63,788.621 1497.9,802.882 1502.16,831.822 1506.42,809.41 1510.69,831.806 1514.95,813.903 1519.22,787.551 1523.48,760.457 1527.74,734.732 1532.01,737.139 1536.27,727.823 1540.53,734.994 1544.8,762.486 1549.06,786.632 1553.32,827.63 1557.59,836.628 1561.85,832.725 1566.12,813.374 1570.38,764.333 1574.64,736.287 1578.91,726.288 1583.17,740.405 1587.43,743.042 1591.7,758.545 1595.96,765.642 1600.23,813.525 1604.49,830.081 1608.75,821.884 1613.02,821.324 1617.28,805.918 1621.54,787.364 1625.81,757.464 1630.07,726.3 1634.33,737.987 1638.6,733.113 1642.86,738.177 1647.13,783.841 1651.39,814.124 1655.65,824.448 1659.92,810.072 1664.18,828.686 1668.44,788.5 1672.71,791.071 1676.97,734.115 1681.24,737.894 1685.5,716.164 1689.76,740.626 1694.03,745.11 1698.29,775.898 1702.55,790.757 1706.82,819.055 1711.08,830.439 1715.34,804.521 1719.61,803.659 1723.87,786.722 1728.14,758.977 1732.4,747.582 1736.66,722.329 1740.93,732.43 1745.19,745.62 1749.45,775.473 1753.72,798.003 1757.98,820.344 1762.24,838.527 1766.51,808.932 1770.77,803.341 1775.04,771.313 1779.3,758.223 1783.56,734.44 1787.83,716.02 1792.09,736.788 1796.35,754.171 1800.62,771.88 1804.88,788.858 1809.15,819.932 1813.41,840.832 1817.67,822.897 1821.94,806.397 1826.2,779.546 1830.46,759.048 1834.73,724.41 1838.99,719.334 1843.25,732.027 1847.52,749.88 1851.78,773.538 1856.05,805.479 1860.31,803.852 1864.57,835.017 1868.84,812.508 1873.1,797.143 1877.36,786.481 1881.63,733.881 1885.89,717.693 1890.15,708.503 1894.42,736.458 1898.68,742.19 1902.95,769.262 1907.21,815.446 1911.47,832.931 1915.74,834.211 1920,808.529 1924.26,785.448 1928.53,782.771 1932.79,742.415 1937.06,742.177 1941.32,719.8 1945.58,742.555 1949.85,748.618 1954.11,764.202 1958.37,815.575 1962.64,831.566 1966.9,839.583 1971.16,833.953 1975.43,815.056 1979.69,779.617 1983.96,740.075 1988.22,741.434 1992.48,723.346 1996.75,729.285 2001.01,737.258 2005.27,774.603 2009.54,790.567 2013.8,822.96 2018.07,815.236 2022.33,805.685 2026.59,815.996 2030.86,783.695 2035.12,761.073 2039.38,738.254 2043.65,734.395 2047.91,728.49 2052.17,754.866 2056.44,767.998 2060.7,814.911 2064.97,823.924 2069.23,835.047 2073.49,820.551 2077.76,794.125 2082.02,760.273 2086.28,760.75 2090.55,716.17 2094.81,738.861 2099.07,735.609 2103.34,748.954 2107.6,772.579 2111.87,783.083 2116.13,830.725 2120.39,819.459 2124.66,811.116 2128.92,810.94 2133.18,777.859 2137.45,752.251 2141.71,720.935 2145.98,717.69 2150.24,733.399 2154.5,736.257 2158.77,783.901 2163.03,813.342 2167.29,806.769 2171.56,809.085 2175.82,813.168 2180.08,805.227 2184.35,783.782 2188.61,760.481 2192.88,722.569 2197.14,715.982 2201.4,719.785 2205.67,760.361 2209.93,782.022 2214.19,803.909 2218.46,824.672 2222.72,813.003 2226.98,832.116 2231.25,785.362 2235.51,764.902 2239.78,739.383 2244.04,722.776 2248.3,737.844 2252.57,719.185 2256.83,750.838 2261.09,781.06 2265.36,784.244 2269.62,833.774 2273.89,832.721 2278.15,810.688 2282.41,807.827 2286.68,783.451 2290.94,743.897 2295.2,732.117 2299.47,719.086 2303.73,732.369 2307.99,758.708 2312.26,769.465 2316.52,797.835 2320.79,832.941 2325.05,816.812 2329.31,821.964 2333.58,803.204 2337.84,762.246 2342.1,761.301 2346.37,745.154 2350.63,737.703 2354.9,746.207 2359.16,752.18 2363.42,780.405 2367.69,793.908 2371.95,819.745 2376.21,811.627 2380.48,827.875 2384.74,796.883 2389,788.509 2393.27,735.106 2397.53,729.626 2401.8,717.911 2406.06,731.567 2410.32,735.394 2414.59,764.766 2418.85,800.345 2423.11,828.747 2427.38,825.057 2431.64,802.685 2435.9,814.509 2440.17,764.265 2444.43,761.074 2448.7,718.328 2452.96,732.829 2457.22,737.765 2461.49,763.573 2465.75,763.178 2470.01,799.818 2474.28,806.088 2478.54,828.489 2482.81,801.647 2487.07,802.457 2491.33,758.334 2495.6,758.931 2499.86,724.344 2504.12,716.869 2508.39,730.645 2512.65,764.071 2516.91,770.71 2521.18,802.88 2525.44,823.767 2529.71,840.555 2533.97,814.419 2538.23,784.922 2542.5,786.796 2546.76,750.619 2551.02,720.472 2555.29,737.207 2559.55,727.294 2563.82,761.297 2568.08,788.435 2572.34,787.8 2576.61,821.913 2580.87,835.933 2585.13,823.938 2589.4,811.157 2593.66,775.181 2597.92,756.63 2602.19,731.887 2606.45,736.335 2610.72,717.639 2614.98,739.262 2619.24,781.857 2623.51,798.718 2627.77,830.711 2632.03,810.616 2636.3,815.158 2640.56,804.967 2644.82,764.09 2649.09,743.657 2653.35,723.394 2657.62,739.575 2661.88,731.62 2666.14,748.726 2670.41,787.213 2674.67,806.432 2678.93,824.307 2683.2,813.233 2687.46,819.261 2691.73,791.693 2695.99,761.238 2700.25,738.57 2704.52,740.171 2708.78,718.58 2713.04,743.077 2717.31,751.497 2721.57,772.314 2725.83,790.693 2730.1,814.524 2734.36,832.837 2738.63,817.419 2742.89,803.572 2747.15,758.811 2751.42,743.622 2755.68,729.846 2759.94,722.183 2764.21,732.368 2768.47,735.226 2772.73,790.517 2777,785.412 2781.26,832.853 2785.53,838.186 2789.79,828.556 2794.05,791.579 2798.32,768.373 2802.58,738.305 2806.84,738.876 2811.11,740.473 2815.37,721.785 2819.64,762.8 2823.9,758.958 2828.16,795.683 2832.43,819.273 2836.69,818.375 2840.95,804.963 2845.22,809.777 2849.48,776.693 2853.74,740.32 2858.01,747.363 2862.27,740.064 2866.54,730.345 2870.8,746.549 2875.06,772.412 2879.33,811.729 2883.59,804.462 2887.85,817.65 2892.12,824.848 2896.38,788.837 2900.65,765.22 2904.91,751.252 2909.17,734.01 2913.44,718.285 2917.7,731.744 2921.96,745.789 2926.23,784.425 2930.49,800.471 2934.75,808.571 2939.02,834.389 2943.28,804.968 2947.55,813.348 2951.81,761.005 2956.07,747.468 2960.34,725.982 2964.6,719.434 2968.86,739.297 2973.13,748.398 2977.39,782.865 2981.65,806.013 2985.92,823.282 2990.18,840.569 2994.45,817.86 2998.71,797.378 3002.97,788.06 3007.24,756.233 3011.5,729.943 3015.76,721.42 3020.03,715.742 3024.29,749.14 3028.56,759.81 3032.82,788.02 3037.08,822.408 3041.35,820.493 3045.61,810.58 3049.87,808.97 3054.14,761.072 3058.4,749.796 3062.66,731.427 3066.93,720.027 "/>
<polyline clip-path="url(#clip442)" style="stroke:#e26f46; stroke-linecap:round; stroke-linejoin:round; stroke-width:4; stroke-opacity:1; fill:none" points="206.005,1454.11 210.269,1454.11 214.532,1454.11 218.796,1454.11 223.06,1454.11 227.323,1454.11 231.587,1349.27 235.851,1144.57 240.114,987.269 244.378,867.241 248.642,719.877 252.905,691.65 257.169,719.195 261.433,696.687 265.696,799.169 269.96,1007.61 274.224,1182.86 278.487,1358.93 282.751,1454.11 287.015,1454.11 291.278,1454.11 295.542,1454.11 299.806,1454.11 304.069,1454.11 308.333,1454.11 312.597,1454.11 316.86,1454.11 321.124,1454.11 325.388,1454.11 329.651,1454.11 333.915,1439.87 338.179,1411.25 342.442,1385.86 346.706,1355.24 350.97,1348.8 355.233,1326.86 359.497,1346.16 363.761,1350.01 368.024,1365.74 372.288,1384.69 376.552,1408.21 380.815,1439.39 385.079,1454.11 389.343,1454.11 393.606,1454.11 397.87,1454.11 402.134,1454.11 406.397,1454.11 410.661,1454.11 414.925,1454.11 419.188,1454.11 423.452,1454.11 427.716,1454.11 431.979,1454.11 436.243,1404.64 440.507,1298.34 444.77,1212.45 449.034,1164.1 453.298,1090.4 457.561,1079.84 461.825,1087.23 466.089,1133.88 470.352,1132.33 474.616,1236.79 478.88,1301.39 483.143,1403.86 487.407,1454.11 491.671,1454.11 495.935,1454.11 500.198,1454.11 504.462,1454.11 508.726,1454.11 512.989,1454.11 517.253,1454.11 521.517,1454.11 525.78,1454.11 530.044,1454.11 534.308,1454.11 538.571,1434.92 542.835,1398.05 547.099,1373.36 551.362,1350.03 555.626,1325.74 559.89,1311.48 564.153,1306.52 568.417,1317.33 572.681,1353.03 576.944,1366.78 581.208,1405.97 585.472,1436.55 589.735,1454.11 593.999,1454.11 598.263,1454.11 602.526,1454.11 606.79,1454.11 611.054,1454.11 615.317,1454.11 619.581,1454.11 623.845,1454.11 628.108,1454.11 632.372,1454.11 636.636,1454.11 640.899,1407.01 645.163,1313.67 649.427,1232.34 653.69,1193.45 657.954,1157.08 662.218,1093.4 666.481,1130.25 670.745,1138.05 675.009,1198.95 679.272,1248.15 683.536,1334.54 687.8,1406.45 692.063,1454.11 696.327,1454.11 700.591,1454.11 704.854,1454.11 709.118,1454.11 713.382,1454.11 717.645,1454.11 721.909,1454.11 726.173,1454.11 730.436,1454.11 734.7,1454.11 738.964,1454.11 743.227,1428.12 747.491,1371.79 751.755,1327.59 756.018,1295.92 760.282,1248.53 764.546,1231.67 768.809,1260.06 773.073,1263.81 777.337,1291 781.6,1316.86 785.864,1367.16 790.128,1427.29 794.391,1454.11 798.655,1454.11 802.919,1454.11 807.183,1454.11 811.446,1454.11 815.71,1454.11 819.974,1454.11 824.237,1454.11 828.501,1454.11 832.765,1454.11 837.028,1454.11 841.292,1454.11 845.556,1392.75 849.819,1281.91 854.083,1180.63 858.347,1052.46 862.61,987.884 866.874,980.554 871.138,1013.84 875.401,1001.18 879.665,1073.37 883.929,1142.01 888.192,1286.62 892.456,1389.04 896.72,1454.11 900.983,1454.11 905.247,1454.11 909.511,1454.11 913.774,1454.11 918.038,1454.11 922.302,1454.11 926.565,1454.11 930.829,1454.11 935.093,1454.11 939.356,1454.11 943.62,1454.11 947.884,1420.43 952.147,1370.38 956.411,1305.53 960.675,1277.31 964.938,1244 969.202,1218.81 973.466,1211.97 977.729,1234.98 981.993,1268.85 986.257,1305.35 990.52,1357.97 994.784,1420.36 999.048,1454.11 1003.31,1454.11 1007.58,1454.11 1011.84,1454.11 1016.1,1454.11 1020.37,1454.11 1024.63,1454.11 1028.89,1454.11 1033.16,1454.11 1037.42,1454.11 1041.68,1454.11 1045.95,1454.11 1050.21,1421.05 1054.48,1360.9 1058.74,1305.72 1063,1278.38 1067.27,1255.1 1071.53,1230.49 1075.79,1206.98 1080.06,1224.99 1084.32,1264.73 1088.58,1305.87 1092.85,1362.69 1097.11,1426.08 1101.38,1454.11 1105.64,1454.11 1109.9,1454.11 1114.17,1454.11 1118.43,1454.11 1122.69,1454.11 1126.96,1454.11 1131.22,1454.11 1135.49,1454.11 1139.75,1454.11 1144.01,1454.11 1148.28,1454.11 1152.54,1385.54 1156.8,1249.79 1161.07,1150.42 1165.33,1058.01 1169.59,963.092 1173.86,910.522 1178.12,986.488 1182.39,961.506 1186.65,1071.64 1190.91,1152.49 1195.18,1260.7 1199.44,1389.71 1203.7,1454.11 1207.97,1454.11 1212.23,1454.11 1216.49,1454.11 1220.76,1454.11 1225.02,1454.11 1229.29,1454.11 1233.55,1454.11 1237.81,1454.11 1242.08,1454.11 1246.34,1454.11 1250.6,1454.11 1254.87,1393.1 1259.13,1294.44 1263.4,1151.77 1267.66,1067.95 1271.92,1038.43 1276.19,991.663 1280.45,968.567 1284.71,1051.4 1288.98,1121.09 1293.24,1168.99 1297.5,1271.44 1301.77,1392.04 1306.03,1454.11 1310.3,1454.11 1314.56,1454.11 1318.82,1454.11 1323.09,1454.11 1327.35,1454.11 1331.61,1454.11 1335.88,1454.11 1340.14,1454.11 1344.41,1454.11 1348.67,1454.11 1352.93,1454.11 1357.2,1419.6 1361.46,1341.67 1365.72,1278.64 1369.99,1230.73 1374.25,1201.72 1378.51,1200.22 1382.78,1169.76 1387.04,1203.35 1391.31,1243.66 1395.57,1279.61 1399.83,1342.47 1404.1,1419.98 1408.36,1454.11 1412.62,1454.11 1416.89,1454.11 1421.15,1454.11 1425.41,1454.11 1429.68,1454.11 1433.94,1454.11 1438.21,1454.11 1442.47,1454.11 1446.73,1454.11 1451,1454.11 1455.26,1454.11 1459.52,1434.2 1463.79,1403.04 1468.05,1373.38 1472.32,1344.29 1476.58,1311.86 1480.84,1315.92 1485.11,1316.82 1489.37,1328.64 1493.63,1346.84 1497.9,1368.75 1502.16,1400.19 1506.42,1434.17 1510.69,1454.11 1514.95,1454.11 1519.22,1454.11 1523.48,1454.11 1527.74,1454.11 1532.01,1454.11 1536.27,1454.11 1540.53,1454.11 1544.8,1454.11 1549.06,1454.11 1553.32,1454.11 1557.59,1454.11 1561.85,1411.05 1566.12,1321.26 1570.38,1243.51 1574.64,1198.86 1578.91,1126.67 1583.17,1084.34 1587.43,1139.99 1591.7,1144.59 1595.96,1196 1600.23,1261.94 1604.49,1325.92 1608.75,1408.29 1613.02,1454.11 1617.28,1454.11 1621.54,1454.11 1625.81,1454.11 1630.07,1454.11 1634.33,1454.11 1638.6,1454.11 1642.86,1454.11 1647.13,1454.11 1651.39,1454.11 1655.65,1454.11 1659.92,1454.11 1664.18,1414.96 1668.44,1340.78 1672.71,1273.67 1676.97,1243.09 1681.24,1167.84 1685.5,1184.39 1689.76,1157.18 1694.03,1182.45 1698.29,1234.3 1702.55,1261.16 1706.82,1337.52 1711.08,1418.85 1715.34,1454.11 1719.61,1454.11 1723.87,1454.11 1728.14,1454.11 1732.4,1454.11 1736.66,1454.11 1740.93,1454.11 1745.19,1454.11 1749.45,1454.11 1753.72,1454.11 1757.98,1454.11 1762.24,1454.11 1766.51,1420.62 1770.77,1358.54 1775.04,1320.85 1779.3,1262.08 1783.56,1242.49 1787.83,1215 1792.09,1219.69 1796.35,1248.92 1800.62,1248.35 1804.88,1301.62 1809.15,1369.24 1813.41,1422.82 1817.67,1454.11 1821.94,1454.11 1826.2,1454.11 1830.46,1454.11 1834.73,1454.11 1838.99,1454.11 1843.25,1454.11 1847.52,1454.11 1851.78,1454.11 1856.05,1454.11 1860.31,1454.11 1864.57,1454.11 1868.84,1428.7 1873.1,1383.45 1877.36,1326.92 1881.63,1310.73 1885.89,1273.42 1890.15,1272.58 1894.42,1270.91 1898.68,1263.09 1902.95,1300.94 1907.21,1333.81 1911.47,1376.34 1915.74,1428.74 1920,1454.11 1924.26,1454.11 1928.53,1454.11 1932.79,1454.11 1937.06,1454.11 1941.32,1454.11 1945.58,1454.11 1949.85,1454.11 1954.11,1454.11 1958.37,1454.11 1962.64,1454.11 1966.9,1454.11 1971.16,1325.65 1975.43,1080.6 1979.69,924.723 1983.96,770.522 1988.22,613.022 1992.48,600.489 1996.75,485.393 2001.01,585.795 2005.27,723.603 2009.54,868.812 2013.8,1089.61 2018.07,1339.09 2022.33,1454.11 2026.59,1454.11 2030.86,1454.11 2035.12,1454.11 2039.38,1454.11 2043.65,1454.11 2047.91,1454.11 2052.17,1454.11 2056.44,1454.11 2060.7,1454.11 2064.97,1454.11 2069.23,1454.11 2073.49,1388.05 2077.76,1270.22 2082.02,1160.32 2086.28,1084.14 2090.55,980.621 2094.81,988.472 2099.07,956.551 2103.34,942.762 2107.6,1047.11 2111.87,1145.11 2116.13,1259.11 2120.39,1384.55 2124.66,1454.11 2128.92,1454.11 2133.18,1454.11 2137.45,1454.11 2141.71,1454.11 2145.98,1454.11 2150.24,1454.11 2154.5,1454.11 2158.77,1454.11 2163.03,1454.11 2167.29,1454.11 2171.56,1454.11 2175.82,1385.16 2180.08,1228.97 2184.35,1085.36 2188.61,1048.91 2192.88,914.341 2197.14,897.4 2201.4,945.156 2205.67,906.803 2209.93,1023.04 2214.19,1093.62 2218.46,1230.89 2222.72,1379.09 2226.98,1454.11 2231.25,1454.11 2235.51,1454.11 2239.78,1454.11 2244.04,1454.11 2248.3,1454.11 2252.57,1454.11 2256.83,1454.11 2261.09,1454.11 2265.36,1454.11 2269.62,1454.11 2273.89,1454.11 2278.15,1376.25 2282.41,1225.48 2286.68,1106.13 2290.94,958.674 2295.2,949.939 2299.47,899.604 2303.73,920.636 2307.99,928.044 2312.26,1024 2316.52,1123.82 2320.79,1232.2 2325.05,1380.31 2329.31,1454.11 2333.58,1454.11 2337.84,1454.11 2342.1,1454.11 2346.37,1454.11 2350.63,1454.11 2354.9,1454.11 2359.16,1454.11 2363.42,1454.11 2367.69,1454.11 2371.95,1454.11 2376.21,1454.11 2380.48,1358.88 2384.74,1164.91 2389,1008.46 2393.27,938.026 2397.53,765.487 2401.8,722.183 2406.06,772.299 2410.32,767.087 2414.59,868.516 2418.85,1013.91 2423.11,1174.86 2427.38,1370.53 2431.64,1454.11 2435.9,1454.11 2440.17,1454.11 2444.43,1454.11 2448.7,1454.11 2452.96,1454.11 2457.22,1454.11 2461.49,1454.11 2465.75,1454.11 2470.01,1454.11 2474.28,1454.11 2478.54,1454.11 2482.81,1444.07 2487.07,1424.16 2491.33,1404.19 2495.6,1393.6 2499.86,1378.41 2504.12,1367.5 2508.39,1375.42 2512.65,1376.14 2516.91,1386.82 2521.18,1404.94 2525.44,1424.23 2529.71,1442.85 2533.97,1454.11 2538.23,1454.11 2542.5,1454.11 2546.76,1454.11 2551.02,1454.11 2555.29,1454.11 2559.55,1454.11 2563.82,1454.11 2568.08,1454.11 2572.34,1454.11 2576.61,1454.11 2580.87,1454.11 2585.13,1413.52 2589.4,1346.82 2593.66,1284.02 2597.92,1234 2602.19,1177.96 2606.45,1155.86 2610.72,1192.06 2614.98,1168.05 2619.24,1206.68 2623.51,1269.95 2627.77,1334.33 2632.03,1418.46 2636.3,1454.11 2640.56,1454.11 2644.82,1454.11 2649.09,1454.11 2653.35,1454.11 2657.62,1454.11 2661.88,1454.11 2666.14,1454.11 2670.41,1454.11 2674.67,1454.11 2678.93,1454.11 2683.2,1454.11 2687.46,1447.87 2691.73,1435.5 2695.99,1420.77 2700.25,1410.74 2704.52,1405.97 2708.78,1400.9 2713.04,1403.52 2717.31,1404.48 2721.57,1410.13 2725.83,1422.36 2730.1,1432.86 2734.36,1447.7 2738.63,1454.11 2742.89,1454.11 2747.15,1454.11 2751.42,1454.11 2755.68,1454.11 2759.94,1454.11 2764.21,1454.11 2768.47,1454.11 2772.73,1454.11 2777,1454.11 2781.26,1454.11 2785.53,1454.11 2789.79,1370.02 2794.05,1212.93 2798.32,1054.7 2802.58,957.102 2806.84,891.065 2811.11,809.699 2815.37,764.427 2819.64,852.341 2823.9,908.959 2828.16,1060.7 2832.43,1213.72 2836.69,1365.7 2840.95,1454.11 2845.22,1454.11 2849.48,1454.11 2853.74,1454.11 2858.01,1454.11 2862.27,1454.11 2866.54,1454.11 2870.8,1454.11 2875.06,1454.11 2879.33,1454.11 2883.59,1454.11 2887.85,1454.11 2892.12,1447.79 2896.38,1432.54 2900.65,1422.57 2904.91,1414.76 2909.17,1406.52 2913.44,1397.33 2917.7,1404.6 2921.96,1401.66 2926.23,1412.55 2930.49,1420.9 2934.75,1435.42 2939.02,1447.46 2943.28,1454.11 2947.55,1454.11 2951.81,1454.11 2956.07,1454.11 2960.34,1454.11 2964.6,1454.11 2968.86,1454.11 2973.13,1454.11 2977.39,1454.11 2981.65,1454.11 2985.92,1454.11 2990.18,1454.11 2994.45,1348.81 2998.71,1145.73 3002.97,925.69 3007.24,831.22 3011.5,624.494 3015.76,595.986 3020.03,662.758 3024.29,600.806 3028.56,743.854 3032.82,949.862 3037.08,1108.61 3041.35,1350.74 3045.61,1454.11 3049.87,1454.11 3054.14,1454.11 3058.4,1454.11 3062.66,1454.11 3066.93,1454.11 "/>
<polyline clip-path="url(#clip442)" style="stroke:#3da44d; stroke-linecap:round; stroke-linejoin:round; stroke-width:4; stroke-opacity:1; fill:none" points="206.005,844.704 210.269,813.074 214.532,750.73 218.796,697.355 223.06,630.915 227.323,470.496 231.587,378.769 235.851,340.907 240.114,246.298 244.378,274.584 248.642,139.331 252.905,218.859 257.169,167.683 261.433,215.704 265.696,205.52 269.96,309.553 274.224,465.225 278.487,545.934 282.751,588.56 287.015,695.846 291.278,745.706 295.542,805.696 299.806,844.852 304.069,857.577 308.333,845.743 312.597,817.466 316.86,748.436 321.124,664.739 325.388,588.003 329.651,500.021 333.915,385.244 338.179,381.271 342.442,335.955 346.706,140.957 350.97,148.325 355.233,212.352 359.497,123.863 363.761,259.499 368.024,254.552 372.288,309.986 376.552,393.828 380.815,541.385 385.079,599.548 389.343,676.653 393.606,768.432 397.87,810.305 402.134,844.075 406.397,857.578 410.661,846.535 414.925,816.734 419.188,756.641 423.452,682.343 427.716,588.921 431.979,535.158 436.243,432.973 440.507,376.642 444.77,222.49 449.034,195.315 453.298,99.3199 457.561,124.112 461.825,215.412 466.089,153.39 470.352,261.033 474.616,365.557 478.88,462.873 483.143,484.92 487.407,578.51 491.671,691.723 495.935,768.197 500.198,813.794 504.462,846.254 508.726,857.578 512.989,846.363 517.253,808.582 521.517,752.506 525.78,688.695 530.044,629.048 534.308,496.262 538.571,429.383 542.835,356.835 547.099,200.279 551.362,242.246 555.626,125.247 559.89,250.341 564.153,168.298 568.417,169.843 572.681,304.211 576.944,338.251 581.208,447.228 585.472,496.062 589.735,611.642 593.999,689.177 598.263,751.152 602.526,814.611 606.79,845.818 611.054,857.577 615.317,845.513 619.581,809.108 623.845,749.122 628.108,691.055 632.372,614.145 636.636,556.223 640.899,381.097 645.163,359.856 649.427,211.027 653.69,167.403 657.954,160.623 662.218,128.93 666.481,249.548 670.745,204.967 675.009,286.012 679.272,317.378 683.536,462.588 687.8,541.163 692.063,597.251 696.327,676.928 700.591,753.231 704.854,805.511 709.118,844.474 713.382,857.578 717.645,847.328 721.909,814.589 726.173,759.295 730.436,704.23 734.7,582.098 738.964,552.996 743.227,395.249 747.491,401.542 751.755,305.074 756.018,279.578 760.282,181.738 764.546,100.238 768.809,189.417 773.073,202.879 777.337,324.451 781.6,306.385 785.864,425.363 790.128,526.005 794.391,605.98 798.655,672.457 802.919,751.812 807.183,812.017 811.446,846.509 815.71,857.577 819.974,847.2 824.237,807.473 828.501,747.495 832.765,672.499 837.028,605.675 841.292,548.569 845.556,432.266 849.819,330.109 854.083,268.726 858.347,299.577 862.61,212.327 866.874,123.676 871.138,195.124 875.401,152.929 879.665,216.383 883.929,289.856 888.192,390.956 892.456,522.664 896.72,588.363 900.983,696.549 905.247,755.171 909.511,816.401 913.774,845.355 918.038,857.578 922.302,844.649 926.565,808.356 930.829,744.516 935.093,683.573 939.356,628.566 943.62,517.768 947.884,464.494 952.147,338.574 956.411,222.013 960.675,233.648 964.938,152.325 969.202,175.01 973.466,163.029 977.729,145.312 981.993,243.339 986.257,395.162 990.52,381.971 994.784,524.31 999.048,595.992 1003.31,707.288 1007.58,751.82 1011.84,807.673 1016.1,844.79 1020.37,857.578 1024.63,847.074 1028.89,816.47 1033.16,769.185 1037.42,695.063 1041.68,631.985 1045.95,482.217 1050.21,431.097 1054.48,373.136 1058.74,253.574 1063,201.12 1067.27,129.156 1071.53,198.519 1075.79,154.391 1080.06,287.388 1084.32,255.681 1088.58,362.193 1092.85,477.09 1097.11,484.694 1101.38,575.744 1105.64,666.721 1109.9,747.041 1114.17,816.712 1118.43,845.259 1122.69,857.578 1126.96,845.263 1131.22,812.106 1135.49,750.362 1139.75,693.244 1144.01,617.592 1148.28,518.893 1152.54,478.822 1156.8,299.201 1161.07,206.759 1165.33,256.069 1169.59,211.603 1173.86,132.892 1178.12,253.569 1182.39,198.303 1186.65,317.272 1190.91,316.303 1195.18,370.076 1199.44,545.158 1203.7,623.603 1207.97,688.578 1212.23,744.94 1216.49,814.469 1220.76,844.096 1225.02,857.577 1229.29,845.011 1233.55,808.897 1237.81,755.43 1242.08,667.169 1246.34,602.209 1250.6,478.847 1254.87,469.268 1259.13,320.67 1263.4,250.746 1267.66,294.563 1271.92,157.173 1276.19,245.546 1280.45,178.307 1284.71,182.549 1288.98,303.264 1293.24,318.46 1297.5,392.704 1301.77,539.541 1306.03,605.494 1310.3,700.405 1314.56,752.93 1318.82,810.267 1323.09,846.496 1327.35,857.577 1331.61,846.715 1335.88,814.901 1340.14,765.754 1344.41,669.686 1348.67,591.383 1352.93,557.717 1357.2,415.073 1361.46,386.277 1365.72,337.181 1369.99,195.392 1374.25,191.357 1378.51,167.553 1382.78,162.953 1387.04,197.677 1391.31,209.256 1395.57,400.265 1399.83,459.596 1404.1,513.465 1408.36,580.105 1412.62,684.116 1416.89,745.832 1421.15,811.87 1425.41,846.706 1429.68,857.577 1433.94,844.62 1438.21,817.179 1442.47,759.484 1446.73,678.247 1451,636.699 1455.26,479.69 1459.52,436.99 1463.79,365.297 1468.05,304.982 1472.32,167.097 1476.58,214.954 1480.84,254.976 1485.11,154.065 1489.37,142.377 1493.63,318.911 1497.9,404.809 1502.16,428.273 1506.42,494.062 1510.69,629.034 1514.95,682.107 1519.22,748.412 1523.48,806.605 1527.74,845.507 1532.01,857.578 1536.27,845.172 1540.53,808.29 1544.8,762.219 1549.06,687.411 1553.32,616.209 1557.59,507.99 1561.85,475.929 1566.12,298.66 1570.38,316.851 1574.64,152.347 1578.91,140.288 1583.17,196.953 1587.43,237.053 1591.7,299.928 1595.96,268.315 1600.23,279.452 1604.49,393.716 1608.75,558.416 1613.02,579.896 1617.28,678.603 1621.54,755.778 1625.81,814.526 1630.07,845.736 1634.33,857.578 1638.6,845.978 1642.86,812.825 1647.13,764.145 1651.39,693.42 1655.65,620.253 1659.92,505.07 1664.18,420.085 1668.44,368.97 1672.71,347.153 1676.97,269.037 1681.24,154.119 1685.5,254.142 1689.76,112.339 1694.03,147.375 1698.29,254.957 1702.55,368.373 1706.82,477.339 1711.08,493.062 1715.34,598.877 1719.61,676.456 1723.87,757.284 1728.14,809.268 1732.4,844.698 1736.66,857.578 1740.93,844.975 1745.19,810.092 1749.45,745.761 1753.72,688.884 1757.98,618.317 1762.24,547.496 1766.51,448.166 1770.77,364.885 1775.04,263.324 1779.3,219.366 1783.56,144.952 1787.83,95.5748 1792.09,192.552 1796.35,215.951 1800.62,323.883 1804.88,348.485 1809.15,441.478 1813.41,498.953 1817.67,598.309 1821.94,686.985 1826.2,754.941 1830.46,815.367 1834.73,844.557 1838.99,857.577 1843.25,846.078 1847.52,815.944 1851.78,756.431 1856.05,684.563 1860.31,622.494 1864.57,508.223 1868.84,412.344 1873.1,346.668 1877.36,233.792 1881.63,166.358 1885.89,105.435 1890.15,207.588 1894.42,216.646 1898.68,272.89 1902.95,259.111 1907.21,348.745 1911.47,463.211 1915.74,522.892 1920,632.386 1924.26,685.041 1928.53,769.483 1932.79,814.688 1937.06,845.267 1941.32,857.577 1945.58,845.527 1949.85,811.467 1954.11,744.192 1958.37,705.53 1962.64,594.263 1966.9,480.341 1971.16,389.95 1975.43,392.062 1979.69,287.178 1983.96,237.663 1988.22,203.563 1992.48,185.971 1996.75,149.631 2001.01,156.502 2005.27,264.316 2009.54,359.753 2013.8,476.68 2018.07,522.514 2022.33,573.25 2026.59,705.618 2030.86,764.187 2035.12,808.38 2039.38,845.107 2043.65,857.578 2047.91,844.836 2052.17,807.893 2056.44,749.616 2060.7,707.139 2064.97,603.855 2069.23,486.021 2073.49,371.31 2077.76,355.79 2082.02,298.086 2086.28,236.237 2090.55,163.634 2094.81,233.685 2099.07,118.306 2103.34,161.058 2107.6,335.306 2111.87,383.395 2116.13,390.254 2120.39,524.705 2124.66,593.414 2128.92,692.662 2133.18,751.363 2137.45,810.403 2141.71,846.767 2145.98,857.577 2150.24,845.554 2154.5,808.171 2158.77,764.734 2163.03,688.346 2167.29,588.429 2171.56,542.16 2175.82,397.01 2180.08,303.824 2184.35,315.349 2188.61,159.467 2192.88,256.419 2197.14,107.931 2201.4,102.169 2205.67,258.381 2209.93,236.464 2214.19,406.563 2218.46,450.54 2222.72,515.403 2226.98,576.352 2231.25,706.681 2235.51,764.951 2239.78,807.95 2244.04,847.089 2248.3,857.578 2252.57,846.108 2256.83,808.255 2261.09,757.075 2265.36,701.678 2269.62,589.507 2273.89,530.914 2278.15,472.398 2282.41,353.642 2286.68,207.034 2290.94,300.66 2295.2,198.004 2299.47,90.9806 2303.73,104.829 2307.99,151.412 2312.26,249.984 2316.52,354.271 2320.79,396.588 2325.05,490.557 2329.31,571.049 2333.58,685.943 2337.84,747.469 2342.1,814.874 2346.37,845.009 2350.63,857.578 2354.9,847.101 2359.16,810.783 2363.42,748.749 2367.69,684.467 2371.95,615.986 2376.21,526.133 2380.48,477.204 2384.74,307.432 2389,256.113 2393.27,217.119 2397.53,106.145 2401.8,115.559 2406.06,110.354 2410.32,175.227 2414.59,287.81 2418.85,299.269 2423.11,452.169 2427.38,512.911 2431.64,621.877 2435.9,682.232 2440.17,766.465 2444.43,813.859 2448.7,846.499 2452.96,857.578 2457.22,846.316 2461.49,806.701 2465.75,756.804 2470.01,707.24 2474.28,580.76 2478.54,553.873 2482.81,444.254 2487.07,372.363 2491.33,265.271 2495.6,284.618 2499.86,227.256 2504.12,88.2208 2508.39,129.576 2512.65,279.865 2516.91,240.703 2521.18,299.624 2525.44,446.119 2529.71,521.894 2533.97,596.64 2538.23,671.789 2542.5,755.609 2546.76,812.954 2551.02,846.743 2555.29,857.577 2559.55,846.43 2563.82,812.427 2568.08,745.096 2572.34,664.413 2576.61,608.053 2580.87,508.837 2585.13,475.621 2589.4,394.445 2593.66,279.282 2597.92,262.211 2602.19,231.621 2606.45,124.845 2610.72,138.931 2614.98,270.642 2619.24,212.401 2623.51,298.846 2627.77,398.678 2632.03,506.978 2636.3,574.917 2640.56,693.276 2644.82,759.302 2649.09,812.902 2653.35,846.634 2657.62,857.578 2661.88,845.836 2666.14,811.247 2670.41,747.238 2674.67,691.442 2678.93,599.042 2683.2,483.268 2687.46,479.417 2691.73,400.409 2695.99,242.075 2700.25,252.336 2704.52,123.473 2708.78,240.945 2713.04,180.272 2717.31,239.69 2721.57,311.503 2725.83,370.106 2730.1,423.849 2734.36,552.833 2738.63,610.72 2742.89,693.004 2747.15,743.252 2751.42,808.175 2755.68,845.537 2759.94,857.577 2764.21,845.22 2768.47,809.35 2772.73,770.064 2777,684.319 2781.26,572.187 2785.53,491.798 2789.79,455.074 2794.05,375.966 2798.32,308.659 2802.58,282.003 2806.84,112.622 2811.11,212.077 2815.37,121.82 2819.64,221.909 2823.9,258.358 2828.16,280.298 2832.43,457.998 2836.69,554.174 2840.95,588.792 2845.22,693.388 2849.48,758.766 2853.74,809.299 2858.01,845.854 2862.27,857.578 2866.54,845.463 2870.8,814.267 2875.06,758.372 2879.33,687.642 2883.59,596.513 2887.85,550.167 2892.12,416.325 2896.38,403.239 2900.65,230.16 2904.91,250.966 2909.17,173.835 2913.44,159.513 2917.7,120.64 2921.96,148.877 2926.23,272.877 2930.49,399.786 2934.75,445.214 2939.02,478.81 2943.28,590.496 2947.55,674.746 2951.81,750.397 2956.07,805.951 2960.34,844.468 2964.6,857.578 2968.86,845.197 2973.13,817.658 2977.39,763.314 2981.65,699.476 2985.92,608.398 2990.18,559.335 2994.45,476.742 2998.71,312.83 3002.97,265.448 3007.24,150.16 3011.5,188.964 3015.76,194.639 3020.03,263.65 3024.29,282.34 3028.56,307.214 3032.82,294.129 3037.08,450.736 3041.35,505.869 3045.61,633.376 3049.87,671.603 3054.14,746.386 3058.4,809.533 3062.66,846.542 3066.93,857.578 "/>
<path clip-path="url(#clip440)" d="M2560.7 302.866 L3051.67 302.866 L3051.67 95.5056 L2560.7 95.5056  Z" fill="#ffffff" fill-rule="evenodd" fill-opacity="1"/>
<polyline clip-path="url(#clip440)" style="stroke:#000000; stroke-linecap:round; stroke-linejoin:round; stroke-width:4; stroke-opacity:1; fill:none" points="2560.7,302.866 3051.67,302.866 3051.67,95.5056 2560.7,95.5056 2560.7,302.866 "/>
<polyline clip-path="url(#clip440)" style="stroke:#009af9; stroke-linecap:round; stroke-linejoin:round; stroke-width:4; stroke-opacity:1; fill:none" points="2594.4,147.346 2796.57,147.346 "/>
<path clip-path="url(#clip440)" d="M2843.67 151.593 Q2838.51 151.593 2836.52 152.774 Q2834.53 153.954 2834.53 156.802 Q2834.53 159.07 2836.01 160.413 Q2837.51 161.732 2840.08 161.732 Q2843.62 161.732 2845.75 159.232 Q2847.91 156.709 2847.91 152.542 L2847.91 151.593 L2843.67 151.593 M2852.17 149.834 L2852.17 164.626 L2847.91 164.626 L2847.91 160.69 Q2846.45 163.051 2844.27 164.186 Q2842.1 165.297 2838.95 165.297 Q2834.97 165.297 2832.61 163.075 Q2830.27 160.829 2830.27 157.079 Q2830.27 152.704 2833.18 150.482 Q2836.12 148.26 2841.93 148.26 L2847.91 148.26 L2847.91 147.843 Q2847.91 144.903 2845.96 143.306 Q2844.04 141.686 2840.55 141.686 Q2838.32 141.686 2836.22 142.218 Q2834.11 142.751 2832.17 143.815 L2832.17 139.88 Q2834.5 138.978 2836.7 138.538 Q2838.9 138.075 2840.98 138.075 Q2846.61 138.075 2849.39 140.991 Q2852.17 143.908 2852.17 149.834 Z" fill="#000000" fill-rule="nonzero" fill-opacity="1" /><path clip-path="url(#clip440)" d="M2857.88 138.7 L2862.4 138.7 L2870.5 160.459 L2878.6 138.7 L2883.11 138.7 L2873.39 164.626 L2867.61 164.626 L2857.88 138.7 Z" fill="#000000" fill-rule="nonzero" fill-opacity="1" /><path clip-path="url(#clip440)" d="M2900.78 151.593 Q2895.61 151.593 2893.62 152.774 Q2891.63 153.954 2891.63 156.802 Q2891.63 159.07 2893.11 160.413 Q2894.62 161.732 2897.19 161.732 Q2900.73 161.732 2902.86 159.232 Q2905.01 156.709 2905.01 152.542 L2905.01 151.593 L2900.78 151.593 M2909.27 149.834 L2909.27 164.626 L2905.01 164.626 L2905.01 160.69 Q2903.55 163.051 2901.38 164.186 Q2899.2 165.297 2896.05 165.297 Q2892.07 165.297 2889.71 163.075 Q2887.37 160.829 2887.37 157.079 Q2887.37 152.704 2890.29 150.482 Q2893.23 148.26 2899.04 148.26 L2905.01 148.26 L2905.01 147.843 Q2905.01 144.903 2903.07 143.306 Q2901.15 141.686 2897.65 141.686 Q2895.43 141.686 2893.32 142.218 Q2891.22 142.751 2889.27 143.815 L2889.27 139.88 Q2891.61 138.978 2893.81 138.538 Q2896.01 138.075 2898.09 138.075 Q2903.72 138.075 2906.49 140.991 Q2909.27 143.908 2909.27 149.834 Z" fill="#000000" fill-rule="nonzero" fill-opacity="1" /><path clip-path="url(#clip440)" d="M2918.04 138.7 L2922.3 138.7 L2922.3 164.626 L2918.04 164.626 L2918.04 138.7 M2918.04 128.607 L2922.3 128.607 L2922.3 134.001 L2918.04 134.001 L2918.04 128.607 Z" fill="#000000" fill-rule="nonzero" fill-opacity="1" /><path clip-path="url(#clip440)" d="M2931.22 128.607 L2935.48 128.607 L2935.48 164.626 L2931.22 164.626 L2931.22 128.607 Z" fill="#000000" fill-rule="nonzero" fill-opacity="1" /><polyline clip-path="url(#clip440)" style="stroke:#e26f46; stroke-linecap:round; stroke-linejoin:round; stroke-width:4; stroke-opacity:1; fill:none" points="2594.4,199.186 2796.57,199.186 "/>
<path clip-path="url(#clip440)" d="M2848.69 191.304 L2848.69 195.331 Q2846.89 194.405 2844.94 193.943 Q2843 193.48 2840.92 193.48 Q2837.74 193.48 2836.15 194.452 Q2834.57 195.424 2834.57 197.368 Q2834.57 198.85 2835.71 199.706 Q2836.84 200.54 2840.27 201.304 L2841.73 201.628 Q2846.26 202.6 2848.16 204.382 Q2850.08 206.142 2850.08 209.313 Q2850.08 212.924 2847.21 215.03 Q2844.36 217.137 2839.36 217.137 Q2837.28 217.137 2835.01 216.72 Q2832.77 216.327 2830.27 215.516 L2830.27 211.118 Q2832.63 212.345 2834.92 212.97 Q2837.21 213.572 2839.46 213.572 Q2842.47 213.572 2844.09 212.554 Q2845.71 211.512 2845.71 209.637 Q2845.71 207.901 2844.53 206.975 Q2843.37 206.049 2839.41 205.192 L2837.93 204.845 Q2833.97 204.012 2832.21 202.299 Q2830.45 200.563 2830.45 197.554 Q2830.45 193.896 2833.05 191.906 Q2835.64 189.915 2840.41 189.915 Q2842.77 189.915 2844.85 190.262 Q2846.93 190.609 2848.69 191.304 Z" fill="#000000" fill-rule="nonzero" fill-opacity="1" /><path clip-path="url(#clip440)" d="M2866.91 193.526 Q2863.48 193.526 2861.49 196.211 Q2859.5 198.873 2859.5 203.526 Q2859.5 208.179 2861.47 210.864 Q2863.46 213.526 2866.91 213.526 Q2870.31 213.526 2872.3 210.841 Q2874.29 208.155 2874.29 203.526 Q2874.29 198.919 2872.3 196.234 Q2870.31 193.526 2866.91 193.526 M2866.91 189.915 Q2872.47 189.915 2875.64 193.526 Q2878.81 197.137 2878.81 203.526 Q2878.81 209.892 2875.64 213.526 Q2872.47 217.137 2866.91 217.137 Q2861.33 217.137 2858.16 213.526 Q2855.01 209.892 2855.01 203.526 Q2855.01 197.137 2858.16 193.526 Q2861.33 189.915 2866.91 189.915 Z" fill="#000000" fill-rule="nonzero" fill-opacity="1" /><path clip-path="url(#clip440)" d="M2885.87 180.447 L2890.13 180.447 L2890.13 216.466 L2885.87 216.466 L2885.87 180.447 Z" fill="#000000" fill-rule="nonzero" fill-opacity="1" /><path clip-path="url(#clip440)" d="M2910.82 203.433 Q2905.66 203.433 2903.67 204.614 Q2901.68 205.794 2901.68 208.642 Q2901.68 210.91 2903.16 212.253 Q2904.67 213.572 2907.23 213.572 Q2910.78 213.572 2912.91 211.072 Q2915.06 208.549 2915.06 204.382 L2915.06 203.433 L2910.82 203.433 M2919.32 201.674 L2919.32 216.466 L2915.06 216.466 L2915.06 212.53 Q2913.6 214.891 2911.42 216.026 Q2909.25 217.137 2906.1 217.137 Q2902.12 217.137 2899.76 214.915 Q2897.42 212.669 2897.42 208.919 Q2897.42 204.544 2900.34 202.322 Q2903.28 200.1 2909.09 200.1 L2915.06 200.1 L2915.06 199.683 Q2915.06 196.743 2913.11 195.146 Q2911.19 193.526 2907.7 193.526 Q2905.48 193.526 2903.37 194.058 Q2901.26 194.591 2899.32 195.655 L2899.32 191.72 Q2901.66 190.818 2903.85 190.378 Q2906.05 189.915 2908.14 189.915 Q2913.76 189.915 2916.54 192.831 Q2919.32 195.748 2919.32 201.674 Z" fill="#000000" fill-rule="nonzero" fill-opacity="1" /><path clip-path="url(#clip440)" d="M2943.11 194.521 Q2942.4 194.105 2941.54 193.919 Q2940.71 193.711 2939.69 193.711 Q2936.08 193.711 2934.13 196.072 Q2932.21 198.41 2932.21 202.808 L2932.21 216.466 L2927.93 216.466 L2927.93 190.54 L2932.21 190.54 L2932.21 194.568 Q2933.55 192.206 2935.71 191.072 Q2937.86 189.915 2940.94 189.915 Q2941.38 189.915 2941.91 189.984 Q2942.44 190.031 2943.09 190.146 L2943.11 194.521 Z" fill="#000000" fill-rule="nonzero" fill-opacity="1" /><polyline clip-path="url(#clip440)" style="stroke:#3da44d; stroke-linecap:round; stroke-linejoin:round; stroke-width:4; stroke-opacity:1; fill:none" points="2594.4,251.026 2796.57,251.026 "/>
<path clip-path="url(#clip440)" d="M2849.18 246.315 L2849.18 232.287 L2853.44 232.287 L2853.44 268.306 L2849.18 268.306 L2849.18 264.417 Q2847.84 266.731 2845.78 267.866 Q2843.74 268.977 2840.87 268.977 Q2836.17 268.977 2833.21 265.227 Q2830.27 261.477 2830.27 255.366 Q2830.27 249.255 2833.21 245.505 Q2836.17 241.755 2840.87 241.755 Q2843.74 241.755 2845.78 242.889 Q2847.84 244 2849.18 246.315 M2834.67 255.366 Q2834.67 260.065 2836.59 262.75 Q2838.53 265.412 2841.91 265.412 Q2845.29 265.412 2847.23 262.75 Q2849.18 260.065 2849.18 255.366 Q2849.18 250.667 2847.23 248.005 Q2845.29 245.32 2841.91 245.32 Q2838.53 245.32 2836.59 248.005 Q2834.67 250.667 2834.67 255.366 Z" fill="#000000" fill-rule="nonzero" fill-opacity="1" /><path clip-path="url(#clip440)" d="M2884.39 254.278 L2884.39 256.361 L2864.8 256.361 Q2865.08 260.759 2867.44 263.074 Q2869.83 265.366 2874.06 265.366 Q2876.52 265.366 2878.81 264.764 Q2881.12 264.162 2883.39 262.958 L2883.39 266.986 Q2881.1 267.958 2878.69 268.468 Q2876.29 268.977 2873.81 268.977 Q2867.61 268.977 2863.97 265.366 Q2860.36 261.755 2860.36 255.597 Q2860.36 249.232 2863.79 245.505 Q2867.23 241.755 2873.07 241.755 Q2878.3 241.755 2881.33 245.134 Q2884.39 248.491 2884.39 254.278 M2880.13 253.028 Q2880.08 249.533 2878.16 247.449 Q2876.26 245.366 2873.11 245.366 Q2869.55 245.366 2867.4 247.38 Q2865.27 249.394 2864.94 253.051 L2880.13 253.028 Z" fill="#000000" fill-rule="nonzero" fill-opacity="1" /><path clip-path="url(#clip440)" d="M2911.56 247.357 Q2913.16 244.486 2915.38 243.121 Q2917.6 241.755 2920.61 241.755 Q2924.66 241.755 2926.86 244.602 Q2929.06 247.426 2929.06 252.657 L2929.06 268.306 L2924.78 268.306 L2924.78 252.796 Q2924.78 249.07 2923.46 247.264 Q2922.14 245.458 2919.43 245.458 Q2916.12 245.458 2914.2 247.658 Q2912.28 249.857 2912.28 253.653 L2912.28 268.306 L2908 268.306 L2908 252.796 Q2908 249.046 2906.68 247.264 Q2905.36 245.458 2902.6 245.458 Q2899.34 245.458 2897.42 247.681 Q2895.5 249.88 2895.5 253.653 L2895.5 268.306 L2891.22 268.306 L2891.22 242.38 L2895.5 242.38 L2895.5 246.408 Q2896.96 244.023 2898.99 242.889 Q2901.03 241.755 2903.83 241.755 Q2906.66 241.755 2908.62 243.19 Q2910.61 244.625 2911.56 247.357 Z" fill="#000000" fill-rule="nonzero" fill-opacity="1" /><path clip-path="url(#clip440)" d="M2949.34 255.273 Q2944.18 255.273 2942.19 256.454 Q2940.2 257.634 2940.2 260.482 Q2940.2 262.75 2941.68 264.093 Q2943.18 265.412 2945.75 265.412 Q2949.29 265.412 2951.42 262.912 Q2953.58 260.389 2953.58 256.222 L2953.58 255.273 L2949.34 255.273 M2957.84 253.514 L2957.84 268.306 L2953.58 268.306 L2953.58 264.37 Q2952.12 266.731 2949.94 267.866 Q2947.77 268.977 2944.62 268.977 Q2940.64 268.977 2938.28 266.755 Q2935.94 264.509 2935.94 260.759 Q2935.94 256.384 2938.85 254.162 Q2941.79 251.94 2947.6 251.94 L2953.58 251.94 L2953.58 251.523 Q2953.58 248.583 2951.63 246.986 Q2949.71 245.366 2946.22 245.366 Q2943.99 245.366 2941.89 245.898 Q2939.78 246.431 2937.84 247.495 L2937.84 243.56 Q2940.17 242.658 2942.37 242.218 Q2944.57 241.755 2946.66 241.755 Q2952.28 241.755 2955.06 244.671 Q2957.84 247.588 2957.84 253.514 Z" fill="#000000" fill-rule="nonzero" fill-opacity="1" /><path clip-path="url(#clip440)" d="M2988.16 252.657 L2988.16 268.306 L2983.9 268.306 L2983.9 252.796 Q2983.9 249.116 2982.47 247.287 Q2981.03 245.458 2978.16 245.458 Q2974.71 245.458 2972.72 247.658 Q2970.73 249.857 2970.73 253.653 L2970.73 268.306 L2966.45 268.306 L2966.45 242.38 L2970.73 242.38 L2970.73 246.408 Q2972.26 244.07 2974.32 242.912 Q2976.4 241.755 2979.11 241.755 Q2983.58 241.755 2985.87 244.533 Q2988.16 247.287 2988.16 252.657 Z" fill="#000000" fill-rule="nonzero" fill-opacity="1" /><path clip-path="url(#clip440)" d="M3013.72 246.315 L3013.72 232.287 L3017.97 232.287 L3017.97 268.306 L3013.72 268.306 L3013.72 264.417 Q3012.37 266.731 3010.31 267.866 Q3008.28 268.977 3005.41 268.977 Q3000.71 268.977 2997.74 265.227 Q2994.8 261.477 2994.8 255.366 Q2994.8 249.255 2997.74 245.505 Q3000.71 241.755 3005.41 241.755 Q3008.28 241.755 3010.31 242.889 Q3012.37 244 3013.72 246.315 M2999.2 255.366 Q2999.2 260.065 3001.12 262.75 Q3003.07 265.412 3006.45 265.412 Q3009.83 265.412 3011.77 262.75 Q3013.72 260.065 3013.72 255.366 Q3013.72 250.667 3011.77 248.005 Q3009.83 245.32 3006.45 245.32 Q3003.07 245.32 3001.12 248.005 Q2999.2 250.667 2999.2 255.366 Z" fill="#000000" fill-rule="nonzero" fill-opacity="1" /></svg>
